<?xml version="1.0" encoding="utf-8" standalone="no"?>
<!DOCTYPE svg PUBLIC "-//W3C//DTD SVG 1.1//EN"
  "http://www.w3.org/Graphics/SVG/1.1/DTD/svg11.dtd">
<!-- Created with matplotlib (http://matplotlib.org/) -->
<svg height="345pt" version="1.1" viewBox="0 0 460 345" width="460pt" xmlns="http://www.w3.org/2000/svg" xmlns:xlink="http://www.w3.org/1999/xlink">
 <defs>
  <style type="text/css">
*{stroke-linecap:butt;stroke-linejoin:round;}
  </style>
 </defs>
 <g id="figure_1">
  <g id="patch_1">
   <path d="M 0 345.6 
L 460.8 345.6 
L 460.8 0 
L 0 0 
z
" style="fill:#ffffff;"/>
  </g>
  <g id="axes_1">
   <g id="patch_2">
    <path d="M 57.6 162.432 
L 414.72 162.432 
L 414.72 41.472 
L 57.6 41.472 
z
" style="fill:#ffffff;"/>
   </g>
   <g id="matplotlib.axis_1">
    <g id="xtick_1">
     <g id="line2d_1">
      <path clip-path="url(#pd27c905991)" d="M 57.6 162.432 
L 57.6 41.472 
" style="fill:none;stroke:#b0b0b0;stroke-linecap:square;stroke-width:0.8;"/>
     </g>
     <g id="line2d_2">
      <defs>
       <path d="M 0 0 
L 0 3.5 
" id="m9bf970f287" style="stroke:#000000;stroke-width:0.8;"/>
      </defs>
      <g>
       <use style="stroke:#000000;stroke-width:0.8;" x="57.6" xlink:href="#m9bf970f287" y="162.432"/>
      </g>
     </g>
     <g id="text_1">
      <!-- 0 -->
      <defs>
       <path d="M 31.78125 66.40625 
Q 24.171875 66.40625 20.328125 58.90625 
Q 16.5 51.421875 16.5 36.375 
Q 16.5 21.390625 20.328125 13.890625 
Q 24.171875 6.390625 31.78125 6.390625 
Q 39.453125 6.390625 43.28125 13.890625 
Q 47.125 21.390625 47.125 36.375 
Q 47.125 51.421875 43.28125 58.90625 
Q 39.453125 66.40625 31.78125 66.40625 
z
M 31.78125 74.21875 
Q 44.046875 74.21875 50.515625 64.515625 
Q 56.984375 54.828125 56.984375 36.375 
Q 56.984375 17.96875 50.515625 8.265625 
Q 44.046875 -1.421875 31.78125 -1.421875 
Q 19.53125 -1.421875 13.0625 8.265625 
Q 6.59375 17.96875 6.59375 36.375 
Q 6.59375 54.828125 13.0625 64.515625 
Q 19.53125 74.21875 31.78125 74.21875 
z
" id="DejaVuSans-30"/>
      </defs>
      <g transform="translate(54.41875 177.030437)scale(0.1 -0.1)">
       <use xlink:href="#DejaVuSans-30"/>
      </g>
     </g>
    </g>
    <g id="xtick_2">
     <g id="line2d_3">
      <path clip-path="url(#pd27c905991)" d="M 136.028595 162.432 
L 136.028595 41.472 
" style="fill:none;stroke:#b0b0b0;stroke-linecap:square;stroke-width:0.8;"/>
     </g>
     <g id="line2d_4">
      <g>
       <use style="stroke:#000000;stroke-width:0.8;" x="136.028595" xlink:href="#m9bf970f287" y="162.432"/>
      </g>
     </g>
     <g id="text_2">
      <!-- 100 -->
      <defs>
       <path d="M 12.40625 8.296875 
L 28.515625 8.296875 
L 28.515625 63.921875 
L 10.984375 60.40625 
L 10.984375 69.390625 
L 28.421875 72.90625 
L 38.28125 72.90625 
L 38.28125 8.296875 
L 54.390625 8.296875 
L 54.390625 0 
L 12.40625 0 
z
" id="DejaVuSans-31"/>
      </defs>
      <g transform="translate(126.484845 177.030437)scale(0.1 -0.1)">
       <use xlink:href="#DejaVuSans-31"/>
       <use x="63.623047" xlink:href="#DejaVuSans-30"/>
       <use x="127.246094" xlink:href="#DejaVuSans-30"/>
      </g>
     </g>
    </g>
    <g id="xtick_3">
     <g id="line2d_5">
      <path clip-path="url(#pd27c905991)" d="M 214.457189 162.432 
L 214.457189 41.472 
" style="fill:none;stroke:#b0b0b0;stroke-linecap:square;stroke-width:0.8;"/>
     </g>
     <g id="line2d_6">
      <g>
       <use style="stroke:#000000;stroke-width:0.8;" x="214.457189" xlink:href="#m9bf970f287" y="162.432"/>
      </g>
     </g>
     <g id="text_3">
      <!-- 200 -->
      <defs>
       <path d="M 19.1875 8.296875 
L 53.609375 8.296875 
L 53.609375 0 
L 7.328125 0 
L 7.328125 8.296875 
Q 12.9375 14.109375 22.625 23.890625 
Q 32.328125 33.6875 34.8125 36.53125 
Q 39.546875 41.84375 41.421875 45.53125 
Q 43.3125 49.21875 43.3125 52.78125 
Q 43.3125 58.59375 39.234375 62.25 
Q 35.15625 65.921875 28.609375 65.921875 
Q 23.96875 65.921875 18.8125 64.3125 
Q 13.671875 62.703125 7.8125 59.421875 
L 7.8125 69.390625 
Q 13.765625 71.78125 18.9375 73 
Q 24.125 74.21875 28.421875 74.21875 
Q 39.75 74.21875 46.484375 68.546875 
Q 53.21875 62.890625 53.21875 53.421875 
Q 53.21875 48.921875 51.53125 44.890625 
Q 49.859375 40.875 45.40625 35.40625 
Q 44.1875 33.984375 37.640625 27.21875 
Q 31.109375 20.453125 19.1875 8.296875 
z
" id="DejaVuSans-32"/>
      </defs>
      <g transform="translate(204.913439 177.030437)scale(0.1 -0.1)">
       <use xlink:href="#DejaVuSans-32"/>
       <use x="63.623047" xlink:href="#DejaVuSans-30"/>
       <use x="127.246094" xlink:href="#DejaVuSans-30"/>
      </g>
     </g>
    </g>
    <g id="xtick_4">
     <g id="line2d_7">
      <path clip-path="url(#pd27c905991)" d="M 292.885784 162.432 
L 292.885784 41.472 
" style="fill:none;stroke:#b0b0b0;stroke-linecap:square;stroke-width:0.8;"/>
     </g>
     <g id="line2d_8">
      <g>
       <use style="stroke:#000000;stroke-width:0.8;" x="292.885784" xlink:href="#m9bf970f287" y="162.432"/>
      </g>
     </g>
     <g id="text_4">
      <!-- 300 -->
      <defs>
       <path d="M 40.578125 39.3125 
Q 47.65625 37.796875 51.625 33 
Q 55.609375 28.21875 55.609375 21.1875 
Q 55.609375 10.40625 48.1875 4.484375 
Q 40.765625 -1.421875 27.09375 -1.421875 
Q 22.515625 -1.421875 17.65625 -0.515625 
Q 12.796875 0.390625 7.625 2.203125 
L 7.625 11.71875 
Q 11.71875 9.328125 16.59375 8.109375 
Q 21.484375 6.890625 26.8125 6.890625 
Q 36.078125 6.890625 40.9375 10.546875 
Q 45.796875 14.203125 45.796875 21.1875 
Q 45.796875 27.640625 41.28125 31.265625 
Q 36.765625 34.90625 28.71875 34.90625 
L 20.21875 34.90625 
L 20.21875 43.015625 
L 29.109375 43.015625 
Q 36.375 43.015625 40.234375 45.921875 
Q 44.09375 48.828125 44.09375 54.296875 
Q 44.09375 59.90625 40.109375 62.90625 
Q 36.140625 65.921875 28.71875 65.921875 
Q 24.65625 65.921875 20.015625 65.03125 
Q 15.375 64.15625 9.8125 62.3125 
L 9.8125 71.09375 
Q 15.4375 72.65625 20.34375 73.4375 
Q 25.25 74.21875 29.59375 74.21875 
Q 40.828125 74.21875 47.359375 69.109375 
Q 53.90625 64.015625 53.90625 55.328125 
Q 53.90625 49.265625 50.4375 45.09375 
Q 46.96875 40.921875 40.578125 39.3125 
z
" id="DejaVuSans-33"/>
      </defs>
      <g transform="translate(283.342034 177.030437)scale(0.1 -0.1)">
       <use xlink:href="#DejaVuSans-33"/>
       <use x="63.623047" xlink:href="#DejaVuSans-30"/>
       <use x="127.246094" xlink:href="#DejaVuSans-30"/>
      </g>
     </g>
    </g>
    <g id="xtick_5">
     <g id="line2d_9">
      <path clip-path="url(#pd27c905991)" d="M 371.314378 162.432 
L 371.314378 41.472 
" style="fill:none;stroke:#b0b0b0;stroke-linecap:square;stroke-width:0.8;"/>
     </g>
     <g id="line2d_10">
      <g>
       <use style="stroke:#000000;stroke-width:0.8;" x="371.314378" xlink:href="#m9bf970f287" y="162.432"/>
      </g>
     </g>
     <g id="text_5">
      <!-- 400 -->
      <defs>
       <path d="M 37.796875 64.3125 
L 12.890625 25.390625 
L 37.796875 25.390625 
z
M 35.203125 72.90625 
L 47.609375 72.90625 
L 47.609375 25.390625 
L 58.015625 25.390625 
L 58.015625 17.1875 
L 47.609375 17.1875 
L 47.609375 0 
L 37.796875 0 
L 37.796875 17.1875 
L 4.890625 17.1875 
L 4.890625 26.703125 
z
" id="DejaVuSans-34"/>
      </defs>
      <g transform="translate(361.770628 177.030437)scale(0.1 -0.1)">
       <use xlink:href="#DejaVuSans-34"/>
       <use x="63.623047" xlink:href="#DejaVuSans-30"/>
       <use x="127.246094" xlink:href="#DejaVuSans-30"/>
      </g>
     </g>
    </g>
    <g id="text_6">
     <!-- t (s) -->
     <defs>
      <path d="M 18.3125 70.21875 
L 18.3125 54.6875 
L 36.8125 54.6875 
L 36.8125 47.703125 
L 18.3125 47.703125 
L 18.3125 18.015625 
Q 18.3125 11.328125 20.140625 9.421875 
Q 21.96875 7.515625 27.59375 7.515625 
L 36.8125 7.515625 
L 36.8125 0 
L 27.59375 0 
Q 17.1875 0 13.234375 3.875 
Q 9.28125 7.765625 9.28125 18.015625 
L 9.28125 47.703125 
L 2.6875 47.703125 
L 2.6875 54.6875 
L 9.28125 54.6875 
L 9.28125 70.21875 
z
" id="DejaVuSans-74"/>
      <path id="DejaVuSans-20"/>
      <path d="M 31 75.875 
Q 24.46875 64.65625 21.28125 53.65625 
Q 18.109375 42.671875 18.109375 31.390625 
Q 18.109375 20.125 21.3125 9.0625 
Q 24.515625 -2 31 -13.1875 
L 23.1875 -13.1875 
Q 15.875 -1.703125 12.234375 9.375 
Q 8.59375 20.453125 8.59375 31.390625 
Q 8.59375 42.28125 12.203125 53.3125 
Q 15.828125 64.359375 23.1875 75.875 
z
" id="DejaVuSans-28"/>
      <path d="M 44.28125 53.078125 
L 44.28125 44.578125 
Q 40.484375 46.53125 36.375 47.5 
Q 32.28125 48.484375 27.875 48.484375 
Q 21.1875 48.484375 17.84375 46.4375 
Q 14.5 44.390625 14.5 40.28125 
Q 14.5 37.15625 16.890625 35.375 
Q 19.28125 33.59375 26.515625 31.984375 
L 29.59375 31.296875 
Q 39.15625 29.25 43.1875 25.515625 
Q 47.21875 21.78125 47.21875 15.09375 
Q 47.21875 7.46875 41.1875 3.015625 
Q 35.15625 -1.421875 24.609375 -1.421875 
Q 20.21875 -1.421875 15.453125 -0.5625 
Q 10.6875 0.296875 5.421875 2 
L 5.421875 11.28125 
Q 10.40625 8.6875 15.234375 7.390625 
Q 20.0625 6.109375 24.8125 6.109375 
Q 31.15625 6.109375 34.5625 8.28125 
Q 37.984375 10.453125 37.984375 14.40625 
Q 37.984375 18.0625 35.515625 20.015625 
Q 33.0625 21.96875 24.703125 23.78125 
L 21.578125 24.515625 
Q 13.234375 26.265625 9.515625 29.90625 
Q 5.8125 33.546875 5.8125 39.890625 
Q 5.8125 47.609375 11.28125 51.796875 
Q 16.75 56 26.8125 56 
Q 31.78125 56 36.171875 55.265625 
Q 40.578125 54.546875 44.28125 53.078125 
z
" id="DejaVuSans-73"/>
      <path d="M 8.015625 75.875 
L 15.828125 75.875 
Q 23.140625 64.359375 26.78125 53.3125 
Q 30.421875 42.28125 30.421875 31.390625 
Q 30.421875 20.453125 26.78125 9.375 
Q 23.140625 -1.703125 15.828125 -13.1875 
L 8.015625 -13.1875 
Q 14.5 -2 17.703125 9.0625 
Q 20.90625 20.125 20.90625 31.390625 
Q 20.90625 42.671875 17.703125 53.65625 
Q 14.5 64.65625 8.015625 75.875 
z
" id="DejaVuSans-29"/>
     </defs>
     <g transform="translate(226.104531 190.708562)scale(0.1 -0.1)">
      <use xlink:href="#DejaVuSans-74"/>
      <use x="39.208984" xlink:href="#DejaVuSans-20"/>
      <use x="70.996094" xlink:href="#DejaVuSans-28"/>
      <use x="110.009766" xlink:href="#DejaVuSans-73"/>
      <use x="162.109375" xlink:href="#DejaVuSans-29"/>
     </g>
    </g>
   </g>
   <g id="matplotlib.axis_2">
    <g id="ytick_1">
     <g id="line2d_11">
      <path clip-path="url(#pd27c905991)" d="M 57.6 158.903087 
L 414.72 158.903087 
" style="fill:none;stroke:#b0b0b0;stroke-linecap:square;stroke-width:0.8;"/>
     </g>
     <g id="line2d_12">
      <defs>
       <path d="M 0 0 
L -3.5 0 
" id="mb3e9e661f5" style="stroke:#000000;stroke-width:0.8;"/>
      </defs>
      <g>
       <use style="stroke:#000000;stroke-width:0.8;" x="57.6" xlink:href="#mb3e9e661f5" y="158.903087"/>
      </g>
     </g>
     <g id="text_7">
      <!-- 5000 -->
      <defs>
       <path d="M 10.796875 72.90625 
L 49.515625 72.90625 
L 49.515625 64.59375 
L 19.828125 64.59375 
L 19.828125 46.734375 
Q 21.96875 47.46875 24.109375 47.828125 
Q 26.265625 48.1875 28.421875 48.1875 
Q 40.625 48.1875 47.75 41.5 
Q 54.890625 34.8125 54.890625 23.390625 
Q 54.890625 11.625 47.5625 5.09375 
Q 40.234375 -1.421875 26.90625 -1.421875 
Q 22.3125 -1.421875 17.546875 -0.640625 
Q 12.796875 0.140625 7.71875 1.703125 
L 7.71875 11.625 
Q 12.109375 9.234375 16.796875 8.0625 
Q 21.484375 6.890625 26.703125 6.890625 
Q 35.15625 6.890625 40.078125 11.328125 
Q 45.015625 15.765625 45.015625 23.390625 
Q 45.015625 31 40.078125 35.4375 
Q 35.15625 39.890625 26.703125 39.890625 
Q 22.75 39.890625 18.8125 39.015625 
Q 14.890625 38.140625 10.796875 36.28125 
z
" id="DejaVuSans-35"/>
      </defs>
      <g transform="translate(25.15 162.702306)scale(0.1 -0.1)">
       <use xlink:href="#DejaVuSans-35"/>
       <use x="63.623047" xlink:href="#DejaVuSans-30"/>
       <use x="127.246094" xlink:href="#DejaVuSans-30"/>
       <use x="190.869141" xlink:href="#DejaVuSans-30"/>
      </g>
     </g>
    </g>
    <g id="ytick_2">
     <g id="line2d_13">
      <path clip-path="url(#pd27c905991)" d="M 57.6 129.516423 
L 414.72 129.516423 
" style="fill:none;stroke:#b0b0b0;stroke-linecap:square;stroke-width:0.8;"/>
     </g>
     <g id="line2d_14">
      <g>
       <use style="stroke:#000000;stroke-width:0.8;" x="57.6" xlink:href="#mb3e9e661f5" y="129.516423"/>
      </g>
     </g>
     <g id="text_8">
      <!-- 10000 -->
      <g transform="translate(18.7875 133.315641)scale(0.1 -0.1)">
       <use xlink:href="#DejaVuSans-31"/>
       <use x="63.623047" xlink:href="#DejaVuSans-30"/>
       <use x="127.246094" xlink:href="#DejaVuSans-30"/>
       <use x="190.869141" xlink:href="#DejaVuSans-30"/>
       <use x="254.492188" xlink:href="#DejaVuSans-30"/>
      </g>
     </g>
    </g>
    <g id="ytick_3">
     <g id="line2d_15">
      <path clip-path="url(#pd27c905991)" d="M 57.6 100.129758 
L 414.72 100.129758 
" style="fill:none;stroke:#b0b0b0;stroke-linecap:square;stroke-width:0.8;"/>
     </g>
     <g id="line2d_16">
      <g>
       <use style="stroke:#000000;stroke-width:0.8;" x="57.6" xlink:href="#mb3e9e661f5" y="100.129758"/>
      </g>
     </g>
     <g id="text_9">
      <!-- 15000 -->
      <g transform="translate(18.7875 103.928977)scale(0.1 -0.1)">
       <use xlink:href="#DejaVuSans-31"/>
       <use x="63.623047" xlink:href="#DejaVuSans-35"/>
       <use x="127.246094" xlink:href="#DejaVuSans-30"/>
       <use x="190.869141" xlink:href="#DejaVuSans-30"/>
       <use x="254.492188" xlink:href="#DejaVuSans-30"/>
      </g>
     </g>
    </g>
    <g id="ytick_4">
     <g id="line2d_17">
      <path clip-path="url(#pd27c905991)" d="M 57.6 70.743094 
L 414.72 70.743094 
" style="fill:none;stroke:#b0b0b0;stroke-linecap:square;stroke-width:0.8;"/>
     </g>
     <g id="line2d_18">
      <g>
       <use style="stroke:#000000;stroke-width:0.8;" x="57.6" xlink:href="#mb3e9e661f5" y="70.743094"/>
      </g>
     </g>
     <g id="text_10">
      <!-- 20000 -->
      <g transform="translate(18.7875 74.542313)scale(0.1 -0.1)">
       <use xlink:href="#DejaVuSans-32"/>
       <use x="63.623047" xlink:href="#DejaVuSans-30"/>
       <use x="127.246094" xlink:href="#DejaVuSans-30"/>
       <use x="190.869141" xlink:href="#DejaVuSans-30"/>
       <use x="254.492188" xlink:href="#DejaVuSans-30"/>
      </g>
     </g>
    </g>
    <g id="ytick_5">
     <g id="line2d_19">
      <path clip-path="url(#pd27c905991)" d="M 57.6 41.35643 
L 414.72 41.35643 
" style="fill:none;stroke:#b0b0b0;stroke-linecap:square;stroke-width:0.8;"/>
     </g>
     <g id="line2d_20">
      <g>
       <use style="stroke:#000000;stroke-width:0.8;" x="57.6" xlink:href="#mb3e9e661f5" y="41.35643"/>
      </g>
     </g>
     <g id="text_11">
      <!-- 25000 -->
      <g transform="translate(18.7875 45.155649)scale(0.1 -0.1)">
       <use xlink:href="#DejaVuSans-32"/>
       <use x="63.623047" xlink:href="#DejaVuSans-35"/>
       <use x="127.246094" xlink:href="#DejaVuSans-30"/>
       <use x="190.869141" xlink:href="#DejaVuSans-30"/>
       <use x="254.492188" xlink:href="#DejaVuSans-30"/>
      </g>
     </g>
    </g>
    <g id="text_12">
     <!-- Power (arb. units) -->
     <defs>
      <path d="M 19.671875 64.796875 
L 19.671875 37.40625 
L 32.078125 37.40625 
Q 38.96875 37.40625 42.71875 40.96875 
Q 46.484375 44.53125 46.484375 51.125 
Q 46.484375 57.671875 42.71875 61.234375 
Q 38.96875 64.796875 32.078125 64.796875 
z
M 9.8125 72.90625 
L 32.078125 72.90625 
Q 44.34375 72.90625 50.609375 67.359375 
Q 56.890625 61.8125 56.890625 51.125 
Q 56.890625 40.328125 50.609375 34.8125 
Q 44.34375 29.296875 32.078125 29.296875 
L 19.671875 29.296875 
L 19.671875 0 
L 9.8125 0 
z
" id="DejaVuSans-50"/>
      <path d="M 30.609375 48.390625 
Q 23.390625 48.390625 19.1875 42.75 
Q 14.984375 37.109375 14.984375 27.296875 
Q 14.984375 17.484375 19.15625 11.84375 
Q 23.34375 6.203125 30.609375 6.203125 
Q 37.796875 6.203125 41.984375 11.859375 
Q 46.1875 17.53125 46.1875 27.296875 
Q 46.1875 37.015625 41.984375 42.703125 
Q 37.796875 48.390625 30.609375 48.390625 
z
M 30.609375 56 
Q 42.328125 56 49.015625 48.375 
Q 55.71875 40.765625 55.71875 27.296875 
Q 55.71875 13.875 49.015625 6.21875 
Q 42.328125 -1.421875 30.609375 -1.421875 
Q 18.84375 -1.421875 12.171875 6.21875 
Q 5.515625 13.875 5.515625 27.296875 
Q 5.515625 40.765625 12.171875 48.375 
Q 18.84375 56 30.609375 56 
z
" id="DejaVuSans-6f"/>
      <path d="M 4.203125 54.6875 
L 13.1875 54.6875 
L 24.421875 12.015625 
L 35.59375 54.6875 
L 46.1875 54.6875 
L 57.421875 12.015625 
L 68.609375 54.6875 
L 77.59375 54.6875 
L 63.28125 0 
L 52.6875 0 
L 40.921875 44.828125 
L 29.109375 0 
L 18.5 0 
z
" id="DejaVuSans-77"/>
      <path d="M 56.203125 29.59375 
L 56.203125 25.203125 
L 14.890625 25.203125 
Q 15.484375 15.921875 20.484375 11.0625 
Q 25.484375 6.203125 34.421875 6.203125 
Q 39.59375 6.203125 44.453125 7.46875 
Q 49.3125 8.734375 54.109375 11.28125 
L 54.109375 2.78125 
Q 49.265625 0.734375 44.1875 -0.34375 
Q 39.109375 -1.421875 33.890625 -1.421875 
Q 20.796875 -1.421875 13.15625 6.1875 
Q 5.515625 13.8125 5.515625 26.8125 
Q 5.515625 40.234375 12.765625 48.109375 
Q 20.015625 56 32.328125 56 
Q 43.359375 56 49.78125 48.890625 
Q 56.203125 41.796875 56.203125 29.59375 
z
M 47.21875 32.234375 
Q 47.125 39.59375 43.09375 43.984375 
Q 39.0625 48.390625 32.421875 48.390625 
Q 24.90625 48.390625 20.390625 44.140625 
Q 15.875 39.890625 15.1875 32.171875 
z
" id="DejaVuSans-65"/>
      <path d="M 41.109375 46.296875 
Q 39.59375 47.171875 37.8125 47.578125 
Q 36.03125 48 33.890625 48 
Q 26.265625 48 22.1875 43.046875 
Q 18.109375 38.09375 18.109375 28.8125 
L 18.109375 0 
L 9.078125 0 
L 9.078125 54.6875 
L 18.109375 54.6875 
L 18.109375 46.1875 
Q 20.953125 51.171875 25.484375 53.578125 
Q 30.03125 56 36.53125 56 
Q 37.453125 56 38.578125 55.875 
Q 39.703125 55.765625 41.0625 55.515625 
z
" id="DejaVuSans-72"/>
      <path d="M 34.28125 27.484375 
Q 23.390625 27.484375 19.1875 25 
Q 14.984375 22.515625 14.984375 16.5 
Q 14.984375 11.71875 18.140625 8.90625 
Q 21.296875 6.109375 26.703125 6.109375 
Q 34.1875 6.109375 38.703125 11.40625 
Q 43.21875 16.703125 43.21875 25.484375 
L 43.21875 27.484375 
z
M 52.203125 31.203125 
L 52.203125 0 
L 43.21875 0 
L 43.21875 8.296875 
Q 40.140625 3.328125 35.546875 0.953125 
Q 30.953125 -1.421875 24.3125 -1.421875 
Q 15.921875 -1.421875 10.953125 3.296875 
Q 6 8.015625 6 15.921875 
Q 6 25.140625 12.171875 29.828125 
Q 18.359375 34.515625 30.609375 34.515625 
L 43.21875 34.515625 
L 43.21875 35.40625 
Q 43.21875 41.609375 39.140625 45 
Q 35.0625 48.390625 27.6875 48.390625 
Q 23 48.390625 18.546875 47.265625 
Q 14.109375 46.140625 10.015625 43.890625 
L 10.015625 52.203125 
Q 14.9375 54.109375 19.578125 55.046875 
Q 24.21875 56 28.609375 56 
Q 40.484375 56 46.34375 49.84375 
Q 52.203125 43.703125 52.203125 31.203125 
z
" id="DejaVuSans-61"/>
      <path d="M 48.6875 27.296875 
Q 48.6875 37.203125 44.609375 42.84375 
Q 40.53125 48.484375 33.40625 48.484375 
Q 26.265625 48.484375 22.1875 42.84375 
Q 18.109375 37.203125 18.109375 27.296875 
Q 18.109375 17.390625 22.1875 11.75 
Q 26.265625 6.109375 33.40625 6.109375 
Q 40.53125 6.109375 44.609375 11.75 
Q 48.6875 17.390625 48.6875 27.296875 
z
M 18.109375 46.390625 
Q 20.953125 51.265625 25.265625 53.625 
Q 29.59375 56 35.59375 56 
Q 45.5625 56 51.78125 48.09375 
Q 58.015625 40.1875 58.015625 27.296875 
Q 58.015625 14.40625 51.78125 6.484375 
Q 45.5625 -1.421875 35.59375 -1.421875 
Q 29.59375 -1.421875 25.265625 0.953125 
Q 20.953125 3.328125 18.109375 8.203125 
L 18.109375 0 
L 9.078125 0 
L 9.078125 75.984375 
L 18.109375 75.984375 
z
" id="DejaVuSans-62"/>
      <path d="M 10.6875 12.40625 
L 21 12.40625 
L 21 0 
L 10.6875 0 
z
" id="DejaVuSans-2e"/>
      <path d="M 8.5 21.578125 
L 8.5 54.6875 
L 17.484375 54.6875 
L 17.484375 21.921875 
Q 17.484375 14.15625 20.5 10.265625 
Q 23.53125 6.390625 29.59375 6.390625 
Q 36.859375 6.390625 41.078125 11.03125 
Q 45.3125 15.671875 45.3125 23.6875 
L 45.3125 54.6875 
L 54.296875 54.6875 
L 54.296875 0 
L 45.3125 0 
L 45.3125 8.40625 
Q 42.046875 3.421875 37.71875 1 
Q 33.40625 -1.421875 27.6875 -1.421875 
Q 18.265625 -1.421875 13.375 4.4375 
Q 8.5 10.296875 8.5 21.578125 
z
M 31.109375 56 
z
" id="DejaVuSans-75"/>
      <path d="M 54.890625 33.015625 
L 54.890625 0 
L 45.90625 0 
L 45.90625 32.71875 
Q 45.90625 40.484375 42.875 44.328125 
Q 39.84375 48.1875 33.796875 48.1875 
Q 26.515625 48.1875 22.3125 43.546875 
Q 18.109375 38.921875 18.109375 30.90625 
L 18.109375 0 
L 9.078125 0 
L 9.078125 54.6875 
L 18.109375 54.6875 
L 18.109375 46.1875 
Q 21.34375 51.125 25.703125 53.5625 
Q 30.078125 56 35.796875 56 
Q 45.21875 56 50.046875 50.171875 
Q 54.890625 44.34375 54.890625 33.015625 
z
" id="DejaVuSans-6e"/>
      <path d="M 9.421875 54.6875 
L 18.40625 54.6875 
L 18.40625 0 
L 9.421875 0 
z
M 9.421875 75.984375 
L 18.40625 75.984375 
L 18.40625 64.59375 
L 9.421875 64.59375 
z
" id="DejaVuSans-69"/>
     </defs>
     <g transform="translate(12.707812 146.498875)rotate(-90)scale(0.1 -0.1)">
      <use xlink:href="#DejaVuSans-50"/>
      <use x="60.255859" xlink:href="#DejaVuSans-6f"/>
      <use x="121.4375" xlink:href="#DejaVuSans-77"/>
      <use x="203.224609" xlink:href="#DejaVuSans-65"/>
      <use x="264.748047" xlink:href="#DejaVuSans-72"/>
      <use x="305.861328" xlink:href="#DejaVuSans-20"/>
      <use x="337.648438" xlink:href="#DejaVuSans-28"/>
      <use x="376.662109" xlink:href="#DejaVuSans-61"/>
      <use x="437.941406" xlink:href="#DejaVuSans-72"/>
      <use x="479.054688" xlink:href="#DejaVuSans-62"/>
      <use x="542.53125" xlink:href="#DejaVuSans-2e"/>
      <use x="574.318359" xlink:href="#DejaVuSans-20"/>
      <use x="606.105469" xlink:href="#DejaVuSans-75"/>
      <use x="669.484375" xlink:href="#DejaVuSans-6e"/>
      <use x="732.863281" xlink:href="#DejaVuSans-69"/>
      <use x="760.646484" xlink:href="#DejaVuSans-74"/>
      <use x="799.855469" xlink:href="#DejaVuSans-73"/>
      <use x="851.955078" xlink:href="#DejaVuSans-29"/>
     </g>
    </g>
   </g>
   <g id="line2d_21">
    <path clip-path="url(#pd27c905991)" d="M 57.6 57.672166 
L 57.805714 56.946325 
L 58.011429 57.130977 
L 58.217143 56.887627 
L 58.422857 56.938481 
L 58.628571 57.140491 
L 58.834286 55.771791 
L 59.04 56.650716 
L 59.245714 56.285924 
L 59.451429 57.336509 
L 59.862857 56.747187 
L 60.068571 57.488141 
L 60.274286 57.368549 
L 60.48 56.788799 
L 60.685714 57.18887 
L 61.097143 56.954624 
L 61.508571 58.259705 
L 61.714286 57.599644 
L 61.92 57.370087 
L 62.125714 57.853883 
L 62.537143 58.100698 
L 62.742857 57.687835 
L 62.948571 57.57022 
L 63.154286 57.696952 
L 63.565714 57.2777 
L 63.771429 56.618794 
L 63.977143 57.397084 
L 64.182857 57.294191 
L 64.388571 56.83601 
L 64.8 57.42934 
L 65.005714 57.492148 
L 65.211429 57.751633 
L 65.417143 57.243101 
L 66.034286 57.771255 
L 66.24 57.53707 
L 66.445714 57.761162 
L 66.651429 57.192553 
L 66.857143 58.371163 
L 67.062857 58.154614 
L 67.474286 56.670003 
L 67.885714 56.504215 
L 68.091429 56.075719 
L 68.297143 54.598415 
L 68.502857 55.197299 
L 68.708571 54.661067 
L 68.914286 54.800651 
L 69.12 54.74251 
L 69.531429 54.913503 
L 69.737143 54.75864 
L 69.942857 54.851313 
L 70.354286 55.279873 
L 70.765714 54.9505 
L 70.971429 55.33676 
L 71.177143 55.245116 
L 71.382857 55.325714 
L 71.794286 55.803583 
L 72 55.244246 
L 72.617143 55.666658 
L 73.645714 54.782119 
L 73.851429 55.169816 
L 74.057143 55.042164 
L 74.262857 55.290174 
L 74.468571 55.091042 
L 74.674286 55.212495 
L 75.085714 55.067684 
L 75.497143 55.333473 
L 75.702857 54.881978 
L 75.908571 55.064138 
L 76.114286 54.999319 
L 76.32 55.254839 
L 76.525714 54.918005 
L 76.731429 54.798336 
L 76.937143 56.017563 
L 77.142857 55.965797 
L 77.348571 55.795086 
L 77.554286 55.431623 
L 77.76 55.508182 
L 78.171429 55.123159 
L 78.377143 55.100771 
L 78.582857 54.912128 
L 78.788571 55.549553 
L 78.994286 55.398745 
L 79.2 55.730851 
L 79.405714 55.115343 
L 79.611429 55.362151 
L 80.022857 54.834713 
L 80.434286 56.561955 
L 80.64 56.445354 
L 80.845714 52.488337 
L 81.051429 55.522835 
L 81.257143 55.769553 
L 81.462857 55.695122 
L 81.668571 56.390317 
L 81.874286 55.468973 
L 82.08 55.748856 
L 82.285714 55.28742 
L 82.491429 55.31644 
L 83.108571 55.810287 
L 83.314286 55.356716 
L 83.52 55.795151 
L 83.725714 56.59404 
L 83.931429 56.372723 
L 84.137143 55.850968 
L 84.342857 56.333846 
L 84.548571 56.179615 
L 84.754286 56.270971 
L 84.96 56.665559 
L 85.371429 56.08136 
L 85.577143 55.899517 
L 86.194286 56.560525 
L 86.605714 56.141116 
L 86.811429 56.108155 
L 87.017143 56.326257 
L 87.222857 56.10002 
L 87.634286 56.025905 
L 87.84 55.596706 
L 88.045714 56.204728 
L 88.457143 56.257722 
L 88.868571 55.124569 
L 89.074286 55.563199 
L 89.28 55.246009 
L 89.691429 56.22174 
L 89.897143 55.979065 
L 90.102857 55.464337 
L 90.308571 55.349949 
L 90.72 55.872445 
L 90.925714 55.490971 
L 91.131429 55.358206 
L 91.337143 55.745229 
L 91.748571 55.382708 
L 91.954286 55.601282 
L 92.16 54.051208 
L 92.365714 49.7606 
L 92.982857 52.577303 
L 93.188571 55.154439 
L 93.394286 61.530813 
L 93.805714 67.829863 
L 94.011429 77.87786 
L 94.217143 78.262092 
L 94.422857 81.451439 
L 94.628571 92.843843 
L 94.834286 89.828053 
L 95.04 91.155678 
L 95.245714 94.37459 
L 95.657143 114.808385 
L 95.862857 114.789688 
L 96.068571 117.881636 
L 96.48 134.692877 
L 96.685714 129.828205 
L 96.891429 138.381208 
L 97.097143 140.484562 
L 97.714286 150.399224 
L 97.92 148.054356 
L 98.331429 153.292215 
L 98.537143 151.871659 
L 98.742857 154.955585 
L 98.948571 155.715685 
L 99.154286 154.455069 
L 99.36 155.617899 
L 99.565714 156.116939 
L 99.771429 155.496451 
L 99.977143 152.932455 
L 100.388571 152.894337 
L 100.594286 154.655489 
L 100.8 154.56065 
L 101.622857 155.10793 
L 101.828571 154.926316 
L 102.034286 154.270643 
L 102.24 152.544536 
L 102.445714 154.497003 
L 102.651429 154.337844 
L 102.857143 152.925073 
L 103.062857 154.031875 
L 103.268571 153.716682 
L 103.474286 154.772034 
L 103.68 154.924356 
L 103.885714 154.013474 
L 104.091429 154.940819 
L 104.297143 153.476651 
L 104.502857 154.698937 
L 104.708571 153.79815 
L 104.914286 143.28406 
L 105.12 153.371185 
L 105.325714 155.076131 
L 105.531429 153.044313 
L 105.737143 153.186426 
L 106.148571 155.106209 
L 106.354286 153.590842 
L 106.56 154.823348 
L 106.765714 154.511679 
L 106.971429 152.164463 
L 107.177143 155.210761 
L 107.382857 152.481292 
L 107.588571 154.936754 
L 107.794286 150.708884 
L 108 150.352562 
L 108.205714 154.837765 
L 108.617143 156.824733 
L 108.822857 154.466777 
L 109.028571 156.821108 
L 109.234286 156.704883 
L 109.44 156.933818 
L 109.645714 156.652447 
L 109.851429 155.828975 
L 110.057143 155.583441 
L 110.262857 154.402963 
L 110.468571 153.884428 
L 110.88 154.059043 
L 111.085714 153.879696 
L 111.291429 153.081053 
L 111.497143 153.323092 
L 111.702857 150.545789 
L 111.908571 151.705828 
L 112.114286 153.947489 
L 112.32 152.729482 
L 112.525714 153.542031 
L 112.937143 150.765053 
L 113.142857 153.503634 
L 113.554286 153.15448 
L 113.965714 153.531958 
L 114.377143 153.928339 
L 114.582857 152.709145 
L 114.788571 153.606938 
L 115.2 150.599334 
L 115.405714 153.025259 
L 115.611429 153.517198 
L 116.022857 153.22463 
L 116.228571 152.632352 
L 116.434286 150.150775 
L 116.64 152.139454 
L 117.051429 153.59666 
L 117.257143 153.089223 
L 117.462857 153.102736 
L 117.874286 151.693809 
L 118.08 152.050899 
L 118.285714 153.962994 
L 118.491429 154.083394 
L 118.697143 151.94853 
L 118.902857 152.959867 
L 119.108571 153.024677 
L 119.52 153.925261 
L 119.725714 151.98926 
L 119.931429 152.58757 
L 120.137143 151.816433 
L 120.342857 153.581231 
L 120.548571 152.794606 
L 120.754286 152.887197 
L 120.96 151.977997 
L 121.165714 153.486463 
L 121.371429 153.760158 
L 121.577143 152.398673 
L 121.782857 151.921888 
L 121.988571 149.900156 
L 122.194286 152.226093 
L 122.4 152.305252 
L 122.811429 147.143396 
L 123.222857 140.07796 
L 123.428571 139.593709 
L 123.634286 141.51143 
L 123.84 142.125636 
L 124.045714 141.254665 
L 124.251429 141.298756 
L 124.457143 141.921697 
L 124.868571 140.936429 
L 125.074286 140.950294 
L 125.485714 142.021239 
L 125.691429 141.369817 
L 125.897143 140.188465 
L 126.102857 140.409836 
L 126.308571 141.507176 
L 126.514286 141.377041 
L 126.72 140.589473 
L 127.131429 140.594428 
L 127.337143 142.657131 
L 127.542857 142.725616 
L 127.748571 143.097095 
L 127.954286 142.754981 
L 128.16 143.769678 
L 128.365714 142.596369 
L 128.571429 142.441778 
L 128.777143 141.751877 
L 128.982857 140.323292 
L 129.188571 142.937922 
L 129.394286 143.940371 
L 129.6 143.753232 
L 129.805714 141.830513 
L 130.011429 142.418965 
L 130.217143 139.948232 
L 130.422857 139.467715 
L 130.628571 144.106643 
L 130.834286 143.34559 
L 131.04 144.217911 
L 131.245714 143.732681 
L 131.451429 143.79137 
L 131.657143 143.189964 
L 131.862857 144.202956 
L 132.068571 143.154813 
L 132.274286 144.320372 
L 132.685714 144.375489 
L 133.097143 143.130066 
L 133.302857 144.527328 
L 133.714286 143.771507 
L 133.92 143.399198 
L 134.331429 144.458079 
L 134.537143 143.508747 
L 134.742857 144.197425 
L 134.948571 144.27693 
L 135.154286 143.508795 
L 135.565714 131.516911 
L 135.977143 126.831974 
L 136.182857 121.774019 
L 136.594286 126.013568 
L 137.005714 125.29544 
L 137.211429 126.151486 
L 137.417143 125.721064 
L 137.828571 126.830499 
L 138.034286 126.38013 
L 138.24 126.917061 
L 138.445714 125.835467 
L 138.651429 126.10744 
L 138.857143 125.998851 
L 139.062857 126.554991 
L 139.268571 126.59617 
L 139.474286 125.831569 
L 139.68 125.870232 
L 139.885714 124.883272 
L 140.091429 126.078892 
L 140.297143 126.202594 
L 140.502857 126.689683 
L 140.914286 126.33461 
L 141.12 122.713303 
L 141.325714 125.321631 
L 141.531429 125.800277 
L 141.737143 125.995862 
L 141.942857 125.353558 
L 142.148571 126.365177 
L 142.354286 126.328568 
L 142.56 126.524493 
L 142.971429 126.601393 
L 143.177143 126.312045 
L 143.382857 125.485563 
L 143.588571 126.609115 
L 143.794286 125.830798 
L 144.205714 127.078469 
L 144.411429 126.845974 
L 144.617143 126.390355 
L 144.822857 126.555741 
L 145.028571 126.992923 
L 145.234286 126.135519 
L 145.44 126.049291 
L 145.645714 126.872471 
L 146.468571 126.406704 
L 146.674286 126.719501 
L 146.88 125.81914 
L 147.291429 126.100096 
L 147.497143 125.367764 
L 147.702857 125.273371 
L 147.908571 126.528691 
L 148.114286 127.065707 
L 149.142857 104.521541 
L 149.348571 102.382939 
L 149.554286 103.470879 
L 149.76 103.453032 
L 149.965714 103.082247 
L 150.171429 103.148327 
L 150.377143 103.015366 
L 150.788571 103.122891 
L 150.994286 102.296647 
L 151.2 102.557652 
L 151.405714 103.229223 
L 151.611429 102.928462 
L 151.817143 103.62668 
L 152.022857 103.15737 
L 152.228571 103.429456 
L 152.64 103.136727 
L 152.845714 103.090504 
L 153.257143 103.189995 
L 153.462857 102.852473 
L 153.668571 102.20387 
L 153.874286 103.075042 
L 154.08 103.230618 
L 154.285714 103.094842 
L 154.697143 103.187235 
L 154.902857 102.85287 
L 155.108571 103.10695 
L 155.314286 103.066365 
L 155.725714 103.325339 
L 155.931429 103.117903 
L 156.137143 103.523939 
L 156.342857 103.119457 
L 156.548571 103.594064 
L 156.754286 103.268372 
L 156.96 103.385489 
L 157.165714 103.177117 
L 157.371429 102.672377 
L 157.782857 103.155053 
L 158.194286 102.476748 
L 158.4 102.698726 
L 158.605714 102.582807 
L 158.811429 102.95792 
L 159.017143 102.756234 
L 159.222857 102.883017 
L 159.428571 102.666297 
L 159.634286 102.97402 
L 159.84 102.332952 
L 160.457143 102.670842 
L 160.662857 102.607914 
L 160.868571 102.862374 
L 161.074286 102.867707 
L 161.28 102.52504 
L 161.691429 93.076334 
L 162.308571 80.080497 
L 162.514286 76.856094 
L 162.72 77.016877 
L 162.925714 76.972778 
L 163.131429 76.709818 
L 163.337143 76.835152 
L 163.542857 77.162073 
L 163.748571 76.459741 
L 163.954286 76.325328 
L 164.16 76.980994 
L 164.365714 77.166359 
L 164.571429 76.76135 
L 164.777143 76.670283 
L 165.188571 77.191805 
L 165.6 76.645777 
L 165.805714 76.52589 
L 166.011429 76.612539 
L 166.217143 76.099445 
L 166.422857 76.965121 
L 167.04 75.856674 
L 167.245714 76.385051 
L 167.451429 76.39157 
L 167.657143 76.214343 
L 167.862857 76.643692 
L 168.068571 76.472131 
L 168.274286 75.693071 
L 168.48 75.882389 
L 168.891429 75.344378 
L 169.302857 75.609126 
L 169.508571 75.129313 
L 169.714286 76.370543 
L 170.125714 77.010741 
L 170.331429 76.498134 
L 170.742857 76.018871 
L 170.948571 76.089124 
L 171.154286 75.639126 
L 171.36 75.936253 
L 171.771429 75.963566 
L 172.182857 75.163563 
L 172.388571 75.831276 
L 172.594286 75.663397 
L 172.8 74.471623 
L 173.211429 75.92212 
L 173.417143 75.73583 
L 173.622857 76.033652 
L 174.034286 74.111326 
L 174.24 75.700687 
L 174.445714 74.162014 
L 175.268571 55.995331 
L 175.474286 57.511208 
L 175.885714 58.327395 
L 176.091429 58.217795 
L 176.297143 58.401269 
L 176.502857 58.218078 
L 176.708571 58.22789 
L 177.12 57.601379 
L 177.325714 57.71531 
L 177.737143 57.14922 
L 178.148571 57.969189 
L 178.354286 57.861629 
L 178.765714 57.965841 
L 178.971429 58.342556 
L 179.177143 57.477354 
L 179.588571 57.402333 
L 180 57.88012 
L 180.205714 57.411018 
L 180.822857 57.649048 
L 181.028571 57.539554 
L 181.234286 57.643115 
L 181.44 58.048385 
L 181.645714 57.915707 
L 181.851429 57.606049 
L 182.262857 57.961646 
L 182.468571 57.615389 
L 182.674286 57.726882 
L 183.085714 58.211628 
L 183.291429 58.381252 
L 183.497143 58.195047 
L 183.702857 57.522859 
L 184.114286 58.196105 
L 184.32 58.066985 
L 184.525714 58.137649 
L 184.731429 57.738705 
L 184.937143 57.72997 
L 185.348571 58.183977 
L 185.554286 58.298521 
L 185.76 57.961748 
L 185.965714 57.909972 
L 186.377143 58.073971 
L 186.582857 58.439282 
L 186.788571 57.578113 
L 186.994286 57.845788 
L 187.2 57.874753 
L 187.817143 48.759303 
L 188.022857 48.558053 
L 188.228571 48.691891 
L 188.434286 50.302106 
L 188.845714 51.102949 
L 189.051429 50.851499 
L 189.257143 50.970583 
L 189.462857 51.681448 
L 189.668571 51.437315 
L 189.874286 51.581631 
L 190.08 51.014279 
L 190.491429 50.922951 
L 190.697143 50.744685 
L 190.902857 51.054628 
L 191.108571 50.93779 
L 191.314286 51.29316 
L 191.931429 51.451348 
L 192.137143 51.015958 
L 192.342857 51.693843 
L 192.548571 51.886571 
L 192.96 51.065082 
L 193.371429 51.141079 
L 193.577143 51.388433 
L 193.782857 51.018821 
L 193.988571 51.748184 
L 194.4 51.088528 
L 194.605714 51.622529 
L 195.222857 51.491778 
L 195.634286 52.1193 
L 195.84 51.687679 
L 196.457143 51.666171 
L 196.662857 51.279511 
L 197.074286 51.374399 
L 197.28 51.827504 
L 197.485714 51.543897 
L 197.691429 51.489601 
L 198.102857 52.130142 
L 198.514286 51.681493 
L 198.72 51.926193 
L 198.925714 51.623546 
L 199.542857 51.840885 
L 199.748571 51.745419 
L 200.16 51.133014 
L 200.365714 48.212107 
L 200.571429 48.709417 
L 200.982857 50.930313 
L 201.188571 53.100682 
L 201.394286 58.620191 
L 201.6 58.500025 
L 201.805714 59.118861 
L 202.011429 59.017399 
L 202.217143 59.17041 
L 202.422857 58.810024 
L 202.628571 58.932813 
L 202.834286 58.83298 
L 203.04 59.505737 
L 203.245714 58.566635 
L 203.451429 58.819493 
L 203.657143 58.808773 
L 203.862857 58.925868 
L 204.068571 59.409772 
L 204.274286 59.317147 
L 204.48 58.845906 
L 204.891429 59.298202 
L 205.097143 59.367319 
L 205.302857 59.25649 
L 205.508571 59.900475 
L 205.714286 59.372304 
L 206.125714 58.941833 
L 206.331429 58.666405 
L 206.537143 59.260755 
L 206.742857 59.324617 
L 206.948571 59.703582 
L 207.36 59.444125 
L 207.565714 60.076393 
L 207.977143 59.18168 
L 208.388571 60.203348 
L 208.594286 59.682214 
L 208.8 59.945322 
L 209.005714 60.017965 
L 209.211429 59.066345 
L 209.417143 59.310409 
L 209.622857 60.528445 
L 209.828571 59.612501 
L 210.034286 59.4347 
L 210.24 60.154661 
L 210.445714 59.773632 
L 210.651429 59.031949 
L 211.062857 59.99143 
L 211.474286 59.915989 
L 211.885714 60.249279 
L 212.091429 59.87509 
L 212.297143 60.157395 
L 212.502857 60.19725 
L 212.708571 60.394123 
L 213.12 59.656128 
L 213.325714 58.203182 
L 213.531429 59.535666 
L 214.354286 74.383808 
L 214.56 81.325273 
L 214.765714 81.156768 
L 214.971429 81.61383 
L 215.382857 82.0947 
L 215.588571 81.750842 
L 215.794286 82.073589 
L 216 81.64179 
L 216.205714 81.650392 
L 216.822857 81.263998 
L 217.028571 81.35363 
L 217.234286 81.678402 
L 217.44 81.353582 
L 217.851429 81.875399 
L 218.057143 81.506924 
L 218.262857 81.517733 
L 218.468571 81.135697 
L 218.674286 81.711138 
L 218.88 81.564776 
L 219.085714 81.993443 
L 219.497143 81.498553 
L 219.702857 81.593677 
L 219.908571 81.543595 
L 220.114286 81.624987 
L 220.32 81.948553 
L 220.937143 82.139067 
L 221.142857 81.846064 
L 221.348571 82.013636 
L 221.554286 81.660302 
L 221.76 81.635171 
L 221.965714 82.055228 
L 222.377143 82.25848 
L 222.994286 82.106703 
L 223.2 82.027041 
L 223.405714 82.181248 
L 223.611429 82.165317 
L 223.817143 82.54638 
L 224.228571 82.206987 
L 224.434286 82.450487 
L 224.64 82.121095 
L 224.845714 82.166492 
L 225.257143 82.813391 
L 225.462857 82.530583 
L 225.668571 82.644014 
L 225.874286 82.591477 
L 226.08 83.439611 
L 226.285714 81.232519 
L 226.491429 81.42365 
L 227.314286 99.593721 
L 227.52 106.407323 
L 227.725714 107.238262 
L 227.931429 106.671058 
L 228.342857 106.758368 
L 228.754286 106.12311 
L 228.96 106.052258 
L 229.165714 106.30643 
L 229.371429 106.295214 
L 229.577143 106.690644 
L 229.782857 106.715142 
L 229.988571 106.485596 
L 230.194286 106.626441 
L 230.4 105.924487 
L 230.605714 106.5442 
L 230.811429 106.163966 
L 231.017143 106.893894 
L 231.222857 105.679951 
L 231.428571 105.995778 
L 231.634286 106.723228 
L 231.84 105.48148 
L 232.045714 106.505215 
L 232.251429 106.756748 
L 232.457143 106.217362 
L 232.662857 106.670302 
L 232.868571 106.592469 
L 233.28 106.92224 
L 233.691429 106.508222 
L 233.897143 106.976462 
L 234.308571 105.647352 
L 234.514286 106.902221 
L 234.925714 107.788661 
L 235.131429 107.134766 
L 235.337143 107.513218 
L 235.542857 107.42735 
L 235.748571 107.566784 
L 235.954286 106.138655 
L 236.16 107.936855 
L 236.365714 107.296555 
L 236.571429 107.338446 
L 236.777143 107.236146 
L 236.982857 107.485638 
L 237.188571 107.421826 
L 237.394286 108.154233 
L 237.6 108.361061 
L 238.011429 107.556665 
L 238.217143 107.297559 
L 238.422857 107.995072 
L 238.628571 107.469607 
L 238.834286 107.314575 
L 239.04 107.508417 
L 239.245714 107.351356 
L 239.451429 99.794995 
L 240.068571 118.504296 
L 240.274286 122.452094 
L 240.48 129.975496 
L 240.685714 130.370279 
L 241.097143 130.354919 
L 241.302857 130.417808 
L 241.714286 130.16105 
L 241.92 130.212057 
L 242.331429 130.165077 
L 242.537143 130.507008 
L 243.154286 130.324472 
L 243.36 129.978378 
L 243.771429 130.865201 
L 243.977143 130.557988 
L 244.388571 130.459948 
L 244.8 130.81354 
L 245.828571 130.423738 
L 246.034286 130.856825 
L 246.24 130.930846 
L 246.445714 130.820661 
L 246.651429 130.885133 
L 246.857143 130.546902 
L 247.062857 130.77648 
L 247.268571 130.209651 
L 247.474286 130.748983 
L 247.68 130.435641 
L 248.091429 130.959461 
L 248.502857 130.703664 
L 248.914286 130.863942 
L 249.12 130.731078 
L 249.325714 131.421533 
L 249.531429 129.930638 
L 249.737143 130.504794 
L 250.148571 130.068449 
L 250.354286 130.623091 
L 250.56 130.592054 
L 250.765714 130.298332 
L 250.971429 131.001132 
L 251.177143 131.15636 
L 251.588571 130.915117 
L 252 131.268381 
L 252.205714 131.082122 
L 252.411429 127.598778 
L 252.617143 115.05921 
L 253.028571 102.271221 
L 253.234286 96.872828 
L 253.44 94.781074 
L 253.851429 80.547492 
L 254.057143 79.369185 
L 254.468571 68.448873 
L 254.674286 66.239288 
L 255.291429 57.449422 
L 256.114286 48.42208 
L 256.32 47.483595 
L 256.525714 47.439804 
L 256.731429 46.970182 
L 256.937143 48.456632 
L 257.142857 56.654862 
L 257.554286 57.128704 
L 257.76 56.491034 
L 257.965714 58.64292 
L 258.582857 70.784331 
L 260.845714 134.976891 
L 261.462857 146.113754 
L 261.874286 151.853736 
L 262.08 153.663931 
L 262.285714 154.035684 
L 262.491429 153.197571 
L 262.697143 154.442962 
L 262.902857 154.382189 
L 263.108571 154.912298 
L 263.314286 156.088486 
L 263.931429 152.801398 
L 264.137143 153.50162 
L 264.342857 152.719926 
L 264.548571 153.159651 
L 264.754286 152.879077 
L 264.96 152.407504 
L 265.165714 152.401034 
L 265.577143 154.116565 
L 265.782857 153.781491 
L 265.988571 154.323545 
L 266.194286 153.126836 
L 266.4 153.526418 
L 266.605714 154.975407 
L 266.811429 155.394199 
L 267.017143 152.000679 
L 267.222857 151.885052 
L 267.428571 153.842412 
L 267.634286 154.168807 
L 267.84 154.721115 
L 268.045714 154.635441 
L 268.457143 153.287177 
L 268.662857 153.316903 
L 268.868571 152.546084 
L 269.074286 153.311707 
L 269.28 152.85265 
L 269.485714 155.081672 
L 269.691429 152.432665 
L 269.897143 154.383168 
L 270.102857 153.697213 
L 270.308571 152.562931 
L 270.514286 153.21559 
L 270.72 152.495333 
L 270.925714 152.890588 
L 271.131429 152.518052 
L 271.337143 154.449096 
L 271.542857 155.167913 
L 271.748571 154.751594 
L 271.954286 153.5 
L 272.16 153.509957 
L 272.365714 151.624858 
L 272.571429 151.956491 
L 272.777143 153.657806 
L 273.188571 154.846568 
L 273.394286 151.600295 
L 273.6 155.086024 
L 273.805714 154.637762 
L 274.011429 147.741779 
L 274.217143 155.052952 
L 274.422857 155.249128 
L 274.834286 153.935896 
L 275.04 152.987926 
L 275.245714 154.519351 
L 275.657143 155.079197 
L 276.068571 153.648252 
L 276.274286 155.002708 
L 276.48 153.893196 
L 276.685714 153.933468 
L 277.097143 155.4301 
L 277.302857 155.855717 
L 277.508571 154.648185 
L 277.714286 155.434446 
L 277.92 155.141289 
L 278.125714 156.037614 
L 278.331429 155.595077 
L 278.537143 153.436243 
L 278.742857 153.832046 
L 278.948571 153.336606 
L 279.154286 154.923089 
L 279.36 154.217488 
L 279.565714 154.228129 
L 279.977143 154.684829 
L 280.182857 153.862571 
L 280.388571 154.967366 
L 280.594286 151.894588 
L 280.8 152.13113 
L 281.211429 155.174241 
L 281.417143 155.030147 
L 281.828571 155.582167 
L 282.034286 155.80357 
L 282.24 155.585961 
L 282.445714 155.047663 
L 282.651429 152.464549 
L 283.062857 155.120028 
L 283.268571 155.598761 
L 283.474286 155.685335 
L 283.68 155.32947 
L 283.885714 154.696874 
L 284.091429 153.351649 
L 284.297143 154.993631 
L 284.502857 154.707509 
L 284.708571 154.638611 
L 284.914286 155.167904 
L 285.12 154.815965 
L 285.531429 153.583901 
L 285.737143 153.573509 
L 285.942857 152.069175 
L 286.148571 151.514435 
L 286.354286 154.426569 
L 286.765714 155.050868 
L 286.971429 153.945577 
L 288 142.665579 
L 288.205714 143.482742 
L 288.411429 143.128714 
L 288.822857 143.714889 
L 289.028571 143.56371 
L 289.44 143.846725 
L 289.645714 143.635762 
L 290.057143 144.245749 
L 290.262857 143.985628 
L 290.468571 144.053703 
L 290.674286 143.90726 
L 290.88 143.19818 
L 291.291429 144.003743 
L 291.497143 144.146433 
L 291.908571 142.181651 
L 292.32 143.065948 
L 292.525714 142.366367 
L 292.731429 142.771554 
L 292.937143 143.920463 
L 293.554286 141.292815 
L 293.76 143.159063 
L 293.965714 142.938826 
L 294.171429 141.156818 
L 295.2 143.91871 
L 295.405714 143.562306 
L 295.611429 143.515117 
L 295.817143 143.775434 
L 296.022857 143.122039 
L 296.228571 143.638232 
L 296.64 143.020437 
L 296.845714 143.426611 
L 297.051429 144.543248 
L 297.462857 143.507421 
L 297.668571 142.757334 
L 298.08 144.118599 
L 298.285714 143.787576 
L 298.491429 142.316414 
L 298.697143 142.87121 
L 298.902857 144.38361 
L 299.108571 144.242838 
L 299.314286 144.516565 
L 299.52 144.24533 
L 299.725714 139.788009 
L 299.931429 141.078126 
L 300.754286 125.022118 
L 300.96 124.702338 
L 301.165714 124.865255 
L 301.371429 124.509178 
L 301.577143 125.234647 
L 301.782857 124.770774 
L 302.194286 125.19668 
L 302.4 125.111603 
L 302.605714 124.43884 
L 302.811429 124.716671 
L 303.017143 124.093338 
L 303.222857 124.213965 
L 303.428571 124.987756 
L 303.634286 124.381937 
L 304.251429 125.233196 
L 304.457143 124.916574 
L 304.662857 125.597101 
L 304.868571 125.307273 
L 305.074286 125.49197 
L 305.485714 124.758846 
L 305.691429 124.992297 
L 305.897143 124.554632 
L 306.102857 124.529529 
L 306.308571 124.619149 
L 306.514286 123.852056 
L 306.925714 123.926977 
L 307.337143 125.437683 
L 307.542857 125.028035 
L 307.748571 125.414544 
L 307.954286 125.451936 
L 308.16 125.267803 
L 308.365714 125.551982 
L 308.571429 125.077733 
L 308.777143 124.912208 
L 308.982857 124.583195 
L 309.188571 125.447908 
L 309.6 125.681337 
L 309.805714 124.545296 
L 310.011429 124.889795 
L 310.217143 124.599771 
L 310.422857 123.880837 
L 310.628571 123.931155 
L 310.834286 123.403886 
L 311.245714 123.934903 
L 311.657143 124.077071 
L 311.862857 123.366197 
L 312.068571 123.429015 
L 312.274286 124.188587 
L 312.48 124.039613 
L 313.097143 109.330883 
L 313.302857 102.696144 
L 313.508571 99.943045 
L 313.714286 100.070807 
L 313.92 99.943071 
L 314.331429 100.11394 
L 314.537143 99.872976 
L 314.948571 100.40312 
L 315.154286 100.468898 
L 315.36 100.370634 
L 315.565714 99.893719 
L 315.771429 100.378147 
L 315.977143 99.7804 
L 316.182857 99.751094 
L 316.594286 100.290583 
L 316.8 99.227776 
L 317.005714 99.317615 
L 317.211429 99.104366 
L 317.417143 100.385027 
L 317.622857 99.798158 
L 317.828571 99.676028 
L 318.034286 100.15976 
L 318.24 99.50898 
L 319.062857 100.922195 
L 319.68 100.026103 
L 319.885714 99.600898 
L 320.091429 100.084209 
L 320.297143 100.923594 
L 320.502857 100.650589 
L 320.708571 100.562816 
L 320.914286 99.765087 
L 321.12 100.840305 
L 321.325714 100.932479 
L 321.531429 101.269722 
L 321.942857 100.596581 
L 322.148571 101.2237 
L 322.354286 101.076683 
L 322.56 101.237439 
L 322.765714 100.842064 
L 323.177143 101.012344 
L 323.382857 100.950104 
L 323.588571 101.105074 
L 323.794286 100.956493 
L 324.205714 100.970863 
L 324.411429 100.680288 
L 324.822857 101.191641 
L 325.028571 100.711684 
L 325.234286 100.562136 
L 325.44 96.75929 
L 326.262857 72.71039 
L 326.468571 71.929243 
L 326.88 71.79338 
L 327.291429 72.507756 
L 327.497143 72.205883 
L 327.702857 72.578285 
L 327.908571 71.996787 
L 328.114286 72.107582 
L 328.32 71.596592 
L 328.525714 72.153864 
L 328.731429 72.257036 
L 328.937143 72.132727 
L 329.142857 71.873477 
L 329.348571 72.581413 
L 329.554286 71.841167 
L 329.76 72.080915 
L 329.965714 72.001488 
L 330.171429 72.281064 
L 330.582857 72.313437 
L 331.405714 72.590896 
L 331.611429 72.383186 
L 331.817143 72.645315 
L 332.022857 72.158721 
L 332.228571 72.100215 
L 332.434286 72.652739 
L 332.64 72.569824 
L 332.845714 72.826082 
L 333.051429 72.416723 
L 333.257143 72.530249 
L 333.462857 71.508055 
L 333.668571 72.675956 
L 333.874286 72.870598 
L 334.08 72.481469 
L 334.491429 72.541342 
L 334.697143 72.068074 
L 334.902857 71.951551 
L 335.108571 71.994501 
L 335.314286 71.836035 
L 335.52 72.63463 
L 335.725714 72.134994 
L 335.931429 72.224665 
L 336.137143 72.92086 
L 336.342857 72.208647 
L 336.548571 72.066129 
L 336.754286 72.83642 
L 336.96 72.997656 
L 337.371429 71.776423 
L 337.577143 72.443748 
L 337.782857 72.702905 
L 337.988571 72.492523 
L 338.194286 69.683377 
L 338.4 68.930217 
L 339.017143 57.49217 
L 339.222857 55.965891 
L 339.428571 56.164351 
L 339.634286 55.991118 
L 339.84 55.534141 
L 340.045714 56.17231 
L 340.251429 55.911023 
L 340.662857 55.910838 
L 340.868571 56.497953 
L 341.074286 55.494654 
L 341.28 55.315711 
L 341.485714 55.855438 
L 341.897143 55.345898 
L 342.102857 55.619041 
L 342.308571 55.550363 
L 342.514286 56.335329 
L 342.72 55.829702 
L 342.925714 55.903147 
L 343.131429 56.248673 
L 343.337143 55.915996 
L 343.542857 56.298228 
L 343.748571 55.538796 
L 343.954286 55.219995 
L 344.365714 55.920051 
L 344.571429 55.637514 
L 344.777143 55.559503 
L 344.982857 55.852548 
L 345.188571 56.343414 
L 345.394286 56.202483 
L 345.6 56.273925 
L 345.805714 55.94462 
L 346.011429 56.001161 
L 346.217143 56.435367 
L 346.422857 56.152283 
L 346.628571 56.391145 
L 346.834286 55.800218 
L 347.04 56.027417 
L 347.245714 56.556002 
L 347.451429 56.327332 
L 347.657143 56.580838 
L 347.862857 56.35498 
L 348.068571 56.371092 
L 348.274286 56.034814 
L 348.48 56.299507 
L 348.685714 56.216987 
L 348.891429 56.796357 
L 349.097143 56.456126 
L 349.302857 56.578604 
L 349.508571 56.554975 
L 349.714286 56.06821 
L 350.331429 56.609323 
L 350.742857 55.147474 
L 350.948571 54.830299 
L 351.771429 48.33712 
L 351.977143 48.841869 
L 352.182857 48.806101 
L 352.594286 49.060852 
L 352.8 48.50958 
L 353.005714 48.395914 
L 353.211429 49.820106 
L 353.417143 50.211052 
L 353.828571 49.044659 
L 354.24 49.007519 
L 354.445714 49.273041 
L 354.857143 49.270735 
L 355.062857 49.720488 
L 355.268571 49.138971 
L 355.474286 49.442952 
L 355.68 50.087705 
L 355.885714 49.28216 
L 356.091429 50.037591 
L 356.297143 49.630456 
L 356.502857 50.019112 
L 356.708571 49.447046 
L 356.914286 49.307475 
L 357.12 49.629746 
L 357.531429 49.099725 
L 357.737143 49.763979 
L 357.942857 49.518194 
L 358.148571 48.903743 
L 358.354286 48.900193 
L 358.56 48.594792 
L 358.765714 49.224755 
L 358.971429 49.252649 
L 359.177143 48.920695 
L 359.382857 49.526777 
L 359.588571 48.158324 
L 359.794286 48.118734 
L 360 48.422963 
L 360.205714 48.520238 
L 360.411429 48.743862 
L 360.617143 49.382038 
L 360.822857 47.905273 
L 361.028571 48.348528 
L 361.234286 49.586192 
L 361.851429 50.954548 
L 362.057143 51.07322 
L 362.468571 50.30549 
L 362.88 50.256925 
L 363.291429 49.882037 
L 363.497143 50.096545 
L 363.702857 47.867515 
L 364.114286 50.518667 
L 364.937143 59.103697 
L 365.142857 58.491185 
L 365.554286 59.151096 
L 365.76 58.337819 
L 365.965714 58.253859 
L 366.171429 58.34891 
L 366.377143 58.06323 
L 366.582857 58.181981 
L 366.788571 58.604872 
L 366.994286 58.720809 
L 367.2 57.931656 
L 367.817143 57.715702 
L 368.228571 57.359454 
L 368.434286 56.723591 
L 369.051429 57.543244 
L 369.257143 57.597414 
L 369.462857 57.450481 
L 369.668571 57.822349 
L 369.874286 57.943385 
L 370.08 57.668324 
L 370.285714 57.720724 
L 370.697143 57.116121 
L 370.902857 57.809413 
L 371.108571 57.928717 
L 371.314286 57.589285 
L 371.725714 58.432168 
L 371.931429 57.628053 
L 372.137143 57.903359 
L 372.342857 58.417499 
L 372.96 58.007737 
L 373.165714 58.658443 
L 373.371429 58.034271 
L 373.577143 58.392579 
L 373.782857 57.692158 
L 373.988571 57.700207 
L 374.194286 58.121787 
L 374.4 57.830985 
L 374.605714 58.178058 
L 374.811429 57.544694 
L 375.017143 57.625883 
L 375.222857 57.560583 
L 375.428571 57.892813 
L 375.84 57.763526 
L 376.045714 58.287034 
L 376.251429 58.352861 
L 376.457143 58.258824 
L 376.662857 58.755103 
L 377.074286 66.144585 
L 377.485714 74.695225 
L 377.691429 75.881943 
L 377.897143 75.344661 
L 378.102857 75.254227 
L 378.514286 75.661038 
L 378.72 75.449605 
L 378.925714 75.674955 
L 379.337143 75.52843 
L 379.542857 75.40584 
L 379.748571 76.058044 
L 379.954286 75.87088 
L 380.16 75.414821 
L 380.571429 75.524338 
L 380.777143 75.51472 
L 380.982857 75.801618 
L 381.188571 74.974183 
L 381.394286 75.154186 
L 381.6 75.499141 
L 382.011429 75.744943 
L 382.834286 74.705576 
L 383.04 74.993134 
L 383.245714 74.375209 
L 383.657143 74.37477 
L 383.862857 74.368514 
L 384.274286 74.649154 
L 384.48 75.172819 
L 384.685714 74.861973 
L 384.891429 75.143867 
L 385.097143 74.694907 
L 385.302857 74.754812 
L 385.508571 74.460985 
L 385.714286 74.876544 
L 385.92 73.725496 
L 386.125714 74.61795 
L 386.537143 73.628263 
L 386.742857 73.651221 
L 386.948571 73.92082 
L 387.154286 73.841169 
L 387.565714 74.399283 
L 387.771429 73.755756 
L 387.977143 71.746355 
L 388.182857 72.017327 
L 388.388571 72.771571 
L 388.594286 72.345975 
L 389.005714 74.335904 
L 389.211429 74.265284 
L 389.417143 72.204175 
L 390.034286 88.514716 
L 390.445714 97.549923 
L 390.651429 98.666191 
L 391.062857 99.664319 
L 391.68 98.412513 
L 391.885714 98.60915 
L 392.091429 98.419278 
L 392.297143 98.463836 
L 392.502857 98.318315 
L 392.914286 98.792438 
L 393.12 98.387887 
L 393.325714 99.055266 
L 393.531429 98.59974 
L 393.737143 97.575247 
L 393.942857 98.767079 
L 394.148571 99.185005 
L 394.354286 98.306692 
L 394.56 99.173443 
L 394.971429 98.577492 
L 395.177143 98.080969 
L 395.382857 98.576199 
L 395.588571 98.003449 
L 395.794286 98.157584 
L 396 98.089433 
L 396.205714 98.47675 
L 396.411429 99.290513 
L 396.617143 97.505059 
L 397.234286 97.312784 
L 397.44 97.494243 
L 397.645714 97.510092 
L 397.851429 97.764839 
L 398.057143 97.771719 
L 398.468571 98.410543 
L 398.674286 98.404777 
L 398.88 98.579733 
L 399.085714 97.451332 
L 399.497143 98.780408 
L 399.702857 98.882031 
L 399.908571 98.625187 
L 400.114286 98.549373 
L 400.32 98.234128 
L 400.937143 98.116974 
L 401.142857 98.167156 
L 401.348571 97.799478 
L 401.554286 98.157231 
L 401.76 98.143031 
L 401.965714 98.315466 
L 402.171429 97.824163 
L 402.377143 99.871414 
L 403.2 122.249833 
L 403.405714 122.965892 
L 403.611429 122.898131 
L 404.022857 123.198388 
L 404.434286 123.88315 
L 404.845714 123.560833 
L 405.051429 123.594718 
L 405.257143 123.875286 
L 405.668571 122.755566 
L 405.874286 122.740938 
L 406.08 122.854026 
L 406.285714 123.164767 
L 406.697143 122.765375 
L 407.108571 122.990658 
L 407.314286 122.974997 
L 407.725714 123.249187 
L 407.931429 122.951345 
L 408.137143 122.927343 
L 408.342857 122.746457 
L 408.754286 123.024489 
L 408.96 122.766903 
L 409.371429 123.182916 
L 409.577143 122.846284 
L 409.782857 123.089654 
L 409.988571 123.080322 
L 410.194286 122.673794 
L 410.4 122.979925 
L 410.605714 122.758325 
L 410.811429 122.788392 
L 411.017143 122.561073 
L 411.222857 122.634439 
L 411.428571 122.233568 
L 411.84 122.676877 
L 412.251429 122.482578 
L 412.457143 122.262076 
L 412.662857 121.823438 
L 412.868571 121.859256 
L 413.074286 122.159384 
L 413.28 122.183719 
L 413.897143 122.670438 
L 414.102857 122.557039 
L 414.308571 122.289937 
L 414.72 122.52403 
L 414.72 122.52403 
" style="fill:none;stroke:#0000ff;stroke-linecap:square;stroke-width:1.5;"/>
   </g>
   <g id="patch_3">
    <path d="M 57.6 162.432 
L 57.6 41.472 
" style="fill:none;stroke:#000000;stroke-linecap:square;stroke-linejoin:miter;stroke-width:0.8;"/>
   </g>
   <g id="patch_4">
    <path d="M 414.72 162.432 
L 414.72 41.472 
" style="fill:none;stroke:#000000;stroke-linecap:square;stroke-linejoin:miter;stroke-width:0.8;"/>
   </g>
   <g id="patch_5">
    <path d="M 57.6 162.432 
L 414.72 162.432 
" style="fill:none;stroke:#000000;stroke-linecap:square;stroke-linejoin:miter;stroke-width:0.8;"/>
   </g>
   <g id="patch_6">
    <path d="M 57.6 41.472 
L 414.72 41.472 
" style="fill:none;stroke:#000000;stroke-linecap:square;stroke-linejoin:miter;stroke-width:0.8;"/>
   </g>
   <g id="text_13">
    <!-- Power vs. Time Sun Scan -->
    <defs>
     <path d="M 2.984375 54.6875 
L 12.5 54.6875 
L 29.59375 8.796875 
L 46.6875 54.6875 
L 56.203125 54.6875 
L 35.6875 0 
L 23.484375 0 
z
" id="DejaVuSans-76"/>
     <path d="M -0.296875 72.90625 
L 61.375 72.90625 
L 61.375 64.59375 
L 35.5 64.59375 
L 35.5 0 
L 25.59375 0 
L 25.59375 64.59375 
L -0.296875 64.59375 
z
" id="DejaVuSans-54"/>
     <path d="M 52 44.1875 
Q 55.375 50.25 60.0625 53.125 
Q 64.75 56 71.09375 56 
Q 79.640625 56 84.28125 50.015625 
Q 88.921875 44.046875 88.921875 33.015625 
L 88.921875 0 
L 79.890625 0 
L 79.890625 32.71875 
Q 79.890625 40.578125 77.09375 44.375 
Q 74.3125 48.1875 68.609375 48.1875 
Q 61.625 48.1875 57.5625 43.546875 
Q 53.515625 38.921875 53.515625 30.90625 
L 53.515625 0 
L 44.484375 0 
L 44.484375 32.71875 
Q 44.484375 40.625 41.703125 44.40625 
Q 38.921875 48.1875 33.109375 48.1875 
Q 26.21875 48.1875 22.15625 43.53125 
Q 18.109375 38.875 18.109375 30.90625 
L 18.109375 0 
L 9.078125 0 
L 9.078125 54.6875 
L 18.109375 54.6875 
L 18.109375 46.1875 
Q 21.1875 51.21875 25.484375 53.609375 
Q 29.78125 56 35.6875 56 
Q 41.65625 56 45.828125 52.96875 
Q 50 49.953125 52 44.1875 
z
" id="DejaVuSans-6d"/>
     <path d="M 53.515625 70.515625 
L 53.515625 60.890625 
Q 47.90625 63.578125 42.921875 64.890625 
Q 37.9375 66.21875 33.296875 66.21875 
Q 25.25 66.21875 20.875 63.09375 
Q 16.5 59.96875 16.5 54.203125 
Q 16.5 49.359375 19.40625 46.890625 
Q 22.3125 44.4375 30.421875 42.921875 
L 36.375 41.703125 
Q 47.40625 39.59375 52.65625 34.296875 
Q 57.90625 29 57.90625 20.125 
Q 57.90625 9.515625 50.796875 4.046875 
Q 43.703125 -1.421875 29.984375 -1.421875 
Q 24.8125 -1.421875 18.96875 -0.25 
Q 13.140625 0.921875 6.890625 3.21875 
L 6.890625 13.375 
Q 12.890625 10.015625 18.65625 8.296875 
Q 24.421875 6.59375 29.984375 6.59375 
Q 38.421875 6.59375 43.015625 9.90625 
Q 47.609375 13.234375 47.609375 19.390625 
Q 47.609375 24.75 44.3125 27.78125 
Q 41.015625 30.8125 33.5 32.328125 
L 27.484375 33.5 
Q 16.453125 35.6875 11.515625 40.375 
Q 6.59375 45.0625 6.59375 53.421875 
Q 6.59375 63.09375 13.40625 68.65625 
Q 20.21875 74.21875 32.171875 74.21875 
Q 37.3125 74.21875 42.625 73.28125 
Q 47.953125 72.359375 53.515625 70.515625 
z
" id="DejaVuSans-53"/>
     <path d="M 48.78125 52.59375 
L 48.78125 44.1875 
Q 44.96875 46.296875 41.140625 47.34375 
Q 37.3125 48.390625 33.40625 48.390625 
Q 24.65625 48.390625 19.8125 42.84375 
Q 14.984375 37.3125 14.984375 27.296875 
Q 14.984375 17.28125 19.8125 11.734375 
Q 24.65625 6.203125 33.40625 6.203125 
Q 37.3125 6.203125 41.140625 7.25 
Q 44.96875 8.296875 48.78125 10.40625 
L 48.78125 2.09375 
Q 45.015625 0.34375 40.984375 -0.53125 
Q 36.96875 -1.421875 32.421875 -1.421875 
Q 20.0625 -1.421875 12.78125 6.34375 
Q 5.515625 14.109375 5.515625 27.296875 
Q 5.515625 40.671875 12.859375 48.328125 
Q 20.21875 56 33.015625 56 
Q 37.15625 56 41.109375 55.140625 
Q 45.0625 54.296875 48.78125 52.59375 
z
" id="DejaVuSans-63"/>
    </defs>
    <g transform="translate(160.730625 35.472)scale(0.12 -0.12)">
     <use xlink:href="#DejaVuSans-50"/>
     <use x="60.255859" xlink:href="#DejaVuSans-6f"/>
     <use x="121.4375" xlink:href="#DejaVuSans-77"/>
     <use x="203.224609" xlink:href="#DejaVuSans-65"/>
     <use x="264.748047" xlink:href="#DejaVuSans-72"/>
     <use x="305.861328" xlink:href="#DejaVuSans-20"/>
     <use x="337.648438" xlink:href="#DejaVuSans-76"/>
     <use x="396.828125" xlink:href="#DejaVuSans-73"/>
     <use x="448.927734" xlink:href="#DejaVuSans-2e"/>
     <use x="480.714844" xlink:href="#DejaVuSans-20"/>
     <use x="512.501953" xlink:href="#DejaVuSans-54"/>
     <use x="573.539062" xlink:href="#DejaVuSans-69"/>
     <use x="601.322266" xlink:href="#DejaVuSans-6d"/>
     <use x="698.734375" xlink:href="#DejaVuSans-65"/>
     <use x="760.257812" xlink:href="#DejaVuSans-20"/>
     <use x="792.044922" xlink:href="#DejaVuSans-53"/>
     <use x="855.521484" xlink:href="#DejaVuSans-75"/>
     <use x="918.900391" xlink:href="#DejaVuSans-6e"/>
     <use x="982.279297" xlink:href="#DejaVuSans-20"/>
     <use x="1014.066406" xlink:href="#DejaVuSans-53"/>
     <use x="1077.542969" xlink:href="#DejaVuSans-63"/>
     <use x="1132.523438" xlink:href="#DejaVuSans-61"/>
     <use x="1193.802734" xlink:href="#DejaVuSans-6e"/>
    </g>
   </g>
  </g>
  <g id="axes_2">
   <g id="patch_7">
    <path d="M 57.6 307.584 
L 414.72 307.584 
L 414.72 186.624 
L 57.6 186.624 
z
" style="fill:#ffffff;"/>
   </g>
   <g id="matplotlib.axis_3">
    <g id="xtick_6">
     <g id="line2d_22">
      <path clip-path="url(#p86b2673712)" d="M 57.6 307.584 
L 57.6 186.624 
" style="fill:none;stroke:#b0b0b0;stroke-linecap:square;stroke-width:0.8;"/>
     </g>
     <g id="line2d_23">
      <g>
       <use style="stroke:#000000;stroke-width:0.8;" x="57.6" xlink:href="#m9bf970f287" y="307.584"/>
      </g>
     </g>
     <g id="text_14">
      <!-- 0 -->
      <g transform="translate(54.41875 322.182437)scale(0.1 -0.1)">
       <use xlink:href="#DejaVuSans-30"/>
      </g>
     </g>
    </g>
    <g id="xtick_7">
     <g id="line2d_24">
      <path clip-path="url(#p86b2673712)" d="M 136.028595 307.584 
L 136.028595 186.624 
" style="fill:none;stroke:#b0b0b0;stroke-linecap:square;stroke-width:0.8;"/>
     </g>
     <g id="line2d_25">
      <g>
       <use style="stroke:#000000;stroke-width:0.8;" x="136.028595" xlink:href="#m9bf970f287" y="307.584"/>
      </g>
     </g>
     <g id="text_15">
      <!-- 100 -->
      <g transform="translate(126.484845 322.182437)scale(0.1 -0.1)">
       <use xlink:href="#DejaVuSans-31"/>
       <use x="63.623047" xlink:href="#DejaVuSans-30"/>
       <use x="127.246094" xlink:href="#DejaVuSans-30"/>
      </g>
     </g>
    </g>
    <g id="xtick_8">
     <g id="line2d_26">
      <path clip-path="url(#p86b2673712)" d="M 214.457189 307.584 
L 214.457189 186.624 
" style="fill:none;stroke:#b0b0b0;stroke-linecap:square;stroke-width:0.8;"/>
     </g>
     <g id="line2d_27">
      <g>
       <use style="stroke:#000000;stroke-width:0.8;" x="214.457189" xlink:href="#m9bf970f287" y="307.584"/>
      </g>
     </g>
     <g id="text_16">
      <!-- 200 -->
      <g transform="translate(204.913439 322.182437)scale(0.1 -0.1)">
       <use xlink:href="#DejaVuSans-32"/>
       <use x="63.623047" xlink:href="#DejaVuSans-30"/>
       <use x="127.246094" xlink:href="#DejaVuSans-30"/>
      </g>
     </g>
    </g>
    <g id="xtick_9">
     <g id="line2d_28">
      <path clip-path="url(#p86b2673712)" d="M 292.885784 307.584 
L 292.885784 186.624 
" style="fill:none;stroke:#b0b0b0;stroke-linecap:square;stroke-width:0.8;"/>
     </g>
     <g id="line2d_29">
      <g>
       <use style="stroke:#000000;stroke-width:0.8;" x="292.885784" xlink:href="#m9bf970f287" y="307.584"/>
      </g>
     </g>
     <g id="text_17">
      <!-- 300 -->
      <g transform="translate(283.342034 322.182437)scale(0.1 -0.1)">
       <use xlink:href="#DejaVuSans-33"/>
       <use x="63.623047" xlink:href="#DejaVuSans-30"/>
       <use x="127.246094" xlink:href="#DejaVuSans-30"/>
      </g>
     </g>
    </g>
    <g id="xtick_10">
     <g id="line2d_30">
      <path clip-path="url(#p86b2673712)" d="M 371.314378 307.584 
L 371.314378 186.624 
" style="fill:none;stroke:#b0b0b0;stroke-linecap:square;stroke-width:0.8;"/>
     </g>
     <g id="line2d_31">
      <g>
       <use style="stroke:#000000;stroke-width:0.8;" x="371.314378" xlink:href="#m9bf970f287" y="307.584"/>
      </g>
     </g>
     <g id="text_18">
      <!-- 400 -->
      <g transform="translate(361.770628 322.182437)scale(0.1 -0.1)">
       <use xlink:href="#DejaVuSans-34"/>
       <use x="63.623047" xlink:href="#DejaVuSans-30"/>
       <use x="127.246094" xlink:href="#DejaVuSans-30"/>
      </g>
     </g>
    </g>
    <g id="text_19">
     <!-- t (s) -->
     <g transform="translate(226.104531 335.860562)scale(0.1 -0.1)">
      <use xlink:href="#DejaVuSans-74"/>
      <use x="39.208984" xlink:href="#DejaVuSans-20"/>
      <use x="70.996094" xlink:href="#DejaVuSans-28"/>
      <use x="110.009766" xlink:href="#DejaVuSans-73"/>
      <use x="162.109375" xlink:href="#DejaVuSans-29"/>
     </g>
    </g>
   </g>
   <g id="matplotlib.axis_4">
    <g id="ytick_6">
     <g id="line2d_32">
      <path clip-path="url(#p86b2673712)" d="M 57.6 292.089124 
L 414.72 292.089124 
" style="fill:none;stroke:#b0b0b0;stroke-linecap:square;stroke-width:0.8;"/>
     </g>
     <g id="line2d_33">
      <g>
       <use style="stroke:#000000;stroke-width:0.8;" x="57.6" xlink:href="#mb3e9e661f5" y="292.089124"/>
      </g>
     </g>
     <g id="text_20">
      <!-- 5.0 -->
      <defs>
       <path d="M 10.59375 35.5 
L 73.1875 35.5 
L 73.1875 27.203125 
L 10.59375 27.203125 
z
" id="DejaVuSans-2212"/>
      </defs>
      <g transform="translate(26.317187 295.888343)scale(0.1 -0.1)">
       <use xlink:href="#DejaVuSans-2212"/>
       <use x="83.789062" xlink:href="#DejaVuSans-35"/>
       <use x="147.412109" xlink:href="#DejaVuSans-2e"/>
       <use x="179.199219" xlink:href="#DejaVuSans-30"/>
      </g>
     </g>
    </g>
    <g id="ytick_7">
     <g id="line2d_34">
      <path clip-path="url(#p86b2673712)" d="M 57.6 267.097388 
L 414.72 267.097388 
" style="fill:none;stroke:#b0b0b0;stroke-linecap:square;stroke-width:0.8;"/>
     </g>
     <g id="line2d_35">
      <g>
       <use style="stroke:#000000;stroke-width:0.8;" x="57.6" xlink:href="#mb3e9e661f5" y="267.097388"/>
      </g>
     </g>
     <g id="text_21">
      <!-- 2.5 -->
      <g transform="translate(26.317187 270.896607)scale(0.1 -0.1)">
       <use xlink:href="#DejaVuSans-2212"/>
       <use x="83.789062" xlink:href="#DejaVuSans-32"/>
       <use x="147.412109" xlink:href="#DejaVuSans-2e"/>
       <use x="179.199219" xlink:href="#DejaVuSans-35"/>
      </g>
     </g>
    </g>
    <g id="ytick_8">
     <g id="line2d_36">
      <path clip-path="url(#p86b2673712)" d="M 57.6 242.105653 
L 414.72 242.105653 
" style="fill:none;stroke:#b0b0b0;stroke-linecap:square;stroke-width:0.8;"/>
     </g>
     <g id="line2d_37">
      <g>
       <use style="stroke:#000000;stroke-width:0.8;" x="57.6" xlink:href="#mb3e9e661f5" y="242.105653"/>
      </g>
     </g>
     <g id="text_22">
      <!-- 0.0 -->
      <g transform="translate(34.696875 245.904872)scale(0.1 -0.1)">
       <use xlink:href="#DejaVuSans-30"/>
       <use x="63.623047" xlink:href="#DejaVuSans-2e"/>
       <use x="95.410156" xlink:href="#DejaVuSans-30"/>
      </g>
     </g>
    </g>
    <g id="ytick_9">
     <g id="line2d_38">
      <path clip-path="url(#p86b2673712)" d="M 57.6 217.113917 
L 414.72 217.113917 
" style="fill:none;stroke:#b0b0b0;stroke-linecap:square;stroke-width:0.8;"/>
     </g>
     <g id="line2d_39">
      <g>
       <use style="stroke:#000000;stroke-width:0.8;" x="57.6" xlink:href="#mb3e9e661f5" y="217.113917"/>
      </g>
     </g>
     <g id="text_23">
      <!-- 2.5 -->
      <g transform="translate(34.696875 220.913136)scale(0.1 -0.1)">
       <use xlink:href="#DejaVuSans-32"/>
       <use x="63.623047" xlink:href="#DejaVuSans-2e"/>
       <use x="95.410156" xlink:href="#DejaVuSans-35"/>
      </g>
     </g>
    </g>
    <g id="ytick_10">
     <g id="line2d_40">
      <path clip-path="url(#p86b2673712)" d="M 57.6 192.122182 
L 414.72 192.122182 
" style="fill:none;stroke:#b0b0b0;stroke-linecap:square;stroke-width:0.8;"/>
     </g>
     <g id="line2d_41">
      <g>
       <use style="stroke:#000000;stroke-width:0.8;" x="57.6" xlink:href="#mb3e9e661f5" y="192.122182"/>
      </g>
     </g>
     <g id="text_24">
      <!-- 5.0 -->
      <g transform="translate(34.696875 195.921401)scale(0.1 -0.1)">
       <use xlink:href="#DejaVuSans-35"/>
       <use x="63.623047" xlink:href="#DejaVuSans-2e"/>
       <use x="95.410156" xlink:href="#DejaVuSans-30"/>
      </g>
     </g>
    </g>
    <g id="text_25">
     <!-- Offset from Sun (degrees) -->
     <defs>
      <path d="M 39.40625 66.21875 
Q 28.65625 66.21875 22.328125 58.203125 
Q 16.015625 50.203125 16.015625 36.375 
Q 16.015625 22.609375 22.328125 14.59375 
Q 28.65625 6.59375 39.40625 6.59375 
Q 50.140625 6.59375 56.421875 14.59375 
Q 62.703125 22.609375 62.703125 36.375 
Q 62.703125 50.203125 56.421875 58.203125 
Q 50.140625 66.21875 39.40625 66.21875 
z
M 39.40625 74.21875 
Q 54.734375 74.21875 63.90625 63.9375 
Q 73.09375 53.65625 73.09375 36.375 
Q 73.09375 19.140625 63.90625 8.859375 
Q 54.734375 -1.421875 39.40625 -1.421875 
Q 24.03125 -1.421875 14.8125 8.828125 
Q 5.609375 19.09375 5.609375 36.375 
Q 5.609375 53.65625 14.8125 63.9375 
Q 24.03125 74.21875 39.40625 74.21875 
z
" id="DejaVuSans-4f"/>
      <path d="M 37.109375 75.984375 
L 37.109375 68.5 
L 28.515625 68.5 
Q 23.6875 68.5 21.796875 66.546875 
Q 19.921875 64.59375 19.921875 59.515625 
L 19.921875 54.6875 
L 34.71875 54.6875 
L 34.71875 47.703125 
L 19.921875 47.703125 
L 19.921875 0 
L 10.890625 0 
L 10.890625 47.703125 
L 2.296875 47.703125 
L 2.296875 54.6875 
L 10.890625 54.6875 
L 10.890625 58.5 
Q 10.890625 67.625 15.140625 71.796875 
Q 19.390625 75.984375 28.609375 75.984375 
z
" id="DejaVuSans-66"/>
      <path d="M 45.40625 46.390625 
L 45.40625 75.984375 
L 54.390625 75.984375 
L 54.390625 0 
L 45.40625 0 
L 45.40625 8.203125 
Q 42.578125 3.328125 38.25 0.953125 
Q 33.9375 -1.421875 27.875 -1.421875 
Q 17.96875 -1.421875 11.734375 6.484375 
Q 5.515625 14.40625 5.515625 27.296875 
Q 5.515625 40.1875 11.734375 48.09375 
Q 17.96875 56 27.875 56 
Q 33.9375 56 38.25 53.625 
Q 42.578125 51.265625 45.40625 46.390625 
z
M 14.796875 27.296875 
Q 14.796875 17.390625 18.875 11.75 
Q 22.953125 6.109375 30.078125 6.109375 
Q 37.203125 6.109375 41.296875 11.75 
Q 45.40625 17.390625 45.40625 27.296875 
Q 45.40625 37.203125 41.296875 42.84375 
Q 37.203125 48.484375 30.078125 48.484375 
Q 22.953125 48.484375 18.875 42.84375 
Q 14.796875 37.203125 14.796875 27.296875 
z
" id="DejaVuSans-64"/>
      <path d="M 45.40625 27.984375 
Q 45.40625 37.75 41.375 43.109375 
Q 37.359375 48.484375 30.078125 48.484375 
Q 22.859375 48.484375 18.828125 43.109375 
Q 14.796875 37.75 14.796875 27.984375 
Q 14.796875 18.265625 18.828125 12.890625 
Q 22.859375 7.515625 30.078125 7.515625 
Q 37.359375 7.515625 41.375 12.890625 
Q 45.40625 18.265625 45.40625 27.984375 
z
M 54.390625 6.78125 
Q 54.390625 -7.171875 48.1875 -13.984375 
Q 42 -20.796875 29.203125 -20.796875 
Q 24.46875 -20.796875 20.265625 -20.09375 
Q 16.0625 -19.390625 12.109375 -17.921875 
L 12.109375 -9.1875 
Q 16.0625 -11.328125 19.921875 -12.34375 
Q 23.78125 -13.375 27.78125 -13.375 
Q 36.625 -13.375 41.015625 -8.765625 
Q 45.40625 -4.15625 45.40625 5.171875 
L 45.40625 9.625 
Q 42.625 4.78125 38.28125 2.390625 
Q 33.9375 0 27.875 0 
Q 17.828125 0 11.671875 7.65625 
Q 5.515625 15.328125 5.515625 27.984375 
Q 5.515625 40.671875 11.671875 48.328125 
Q 17.828125 56 27.875 56 
Q 33.9375 56 38.28125 53.609375 
Q 42.625 51.21875 45.40625 46.390625 
L 45.40625 54.6875 
L 54.390625 54.6875 
z
" id="DejaVuSans-67"/>
     </defs>
     <g transform="translate(20.2375 312.362594)rotate(-90)scale(0.1 -0.1)">
      <use xlink:href="#DejaVuSans-4f"/>
      <use x="78.710938" xlink:href="#DejaVuSans-66"/>
      <use x="113.916016" xlink:href="#DejaVuSans-66"/>
      <use x="149.121094" xlink:href="#DejaVuSans-73"/>
      <use x="201.220703" xlink:href="#DejaVuSans-65"/>
      <use x="262.744141" xlink:href="#DejaVuSans-74"/>
      <use x="301.953125" xlink:href="#DejaVuSans-20"/>
      <use x="333.740234" xlink:href="#DejaVuSans-66"/>
      <use x="368.945312" xlink:href="#DejaVuSans-72"/>
      <use x="410.027344" xlink:href="#DejaVuSans-6f"/>
      <use x="471.208984" xlink:href="#DejaVuSans-6d"/>
      <use x="568.621094" xlink:href="#DejaVuSans-20"/>
      <use x="600.408203" xlink:href="#DejaVuSans-53"/>
      <use x="663.884766" xlink:href="#DejaVuSans-75"/>
      <use x="727.263672" xlink:href="#DejaVuSans-6e"/>
      <use x="790.642578" xlink:href="#DejaVuSans-20"/>
      <use x="822.429688" xlink:href="#DejaVuSans-28"/>
      <use x="861.443359" xlink:href="#DejaVuSans-64"/>
      <use x="924.919922" xlink:href="#DejaVuSans-65"/>
      <use x="986.443359" xlink:href="#DejaVuSans-67"/>
      <use x="1049.919922" xlink:href="#DejaVuSans-72"/>
      <use x="1091.001953" xlink:href="#DejaVuSans-65"/>
      <use x="1152.525391" xlink:href="#DejaVuSans-65"/>
      <use x="1214.048828" xlink:href="#DejaVuSans-73"/>
      <use x="1266.148438" xlink:href="#DejaVuSans-29"/>
     </g>
    </g>
   </g>
   <g id="line2d_42">
    <path clip-path="url(#p86b2673712)" d="M 130.977793 242.105653 
L 142.930311 242.105653 
L 142.930311 242.105653 
L 160.396359 242.105653 
L 160.396359 302.085818 
L 173.242963 302.085818 
L 173.242963 292.089124 
L 186.152309 292.089124 
L 186.152309 282.09243 
L 199.163613 282.09243 
L 199.163613 272.095736 
L 212.18276 272.095736 
L 212.18276 262.099041 
L 225.201907 262.099041 
L 225.201907 252.102347 
L 238.197525 252.102347 
L 238.197525 242.105653 
L 251.169614 242.105653 
L 251.169614 232.108959 
L 264.133861 232.108959 
L 264.133861 222.112264 
L 277.129479 222.112264 
L 277.129479 212.11557 
L 290.148626 212.11557 
L 290.148626 202.118876 
L 303.15993 202.118876 
L 303.15993 192.122182 
L 324.790536 192.122182 
L 324.790536 242.105653 
L 337.63714 242.105653 
L 337.63714 242.105653 
L 350.397472 242.105653 
L 350.397472 242.105653 
L 363.244076 242.105653 
L 363.244076 242.105653 
L 376.012251 242.105653 
L 376.012251 242.105653 
L 388.851012 242.105653 
L 388.851012 242.105653 
L 401.697616 242.105653 
L 401.697616 242.105653 
L 414.465791 242.105653 
L 414.465791 242.105653 
L 427.320238 242.105653 
L 427.320238 242.105653 
L 440.088413 242.105653 
L 440.088413 242.105653 
L 452.958545 242.105653 
L 452.958545 242.105653 
L 461.8 242.105653 
" style="fill:none;stroke:#ff0000;stroke-linecap:square;stroke-width:1.5;"/>
   </g>
   <g id="line2d_43">
    <path clip-path="url(#p86b2673712)" d="M 130.977793 242.105653 
L 142.930311 242.105653 
L 142.930311 242.105653 
L 160.396359 242.105653 
L 160.396359 242.105653 
L 173.242963 242.105653 
L 173.242963 242.105653 
L 186.152309 242.105653 
L 186.152309 242.105653 
L 199.163613 242.105653 
L 199.163613 242.105653 
L 212.18276 242.105653 
L 212.18276 242.105653 
L 225.201907 242.105653 
L 225.201907 242.105653 
L 238.197525 242.105653 
L 238.197525 242.105653 
L 251.169614 242.105653 
L 251.169614 242.105653 
L 264.133861 242.105653 
L 264.133861 242.105653 
L 277.129479 242.105653 
L 277.129479 242.105653 
L 290.148626 242.105653 
L 290.148626 242.105653 
L 303.15993 242.105653 
L 303.15993 242.105653 
L 324.790536 242.105653 
L 324.790536 302.085818 
L 337.63714 302.085818 
L 337.63714 292.089124 
L 350.397472 292.089124 
L 350.397472 282.09243 
L 363.244076 282.09243 
L 363.244076 272.095736 
L 376.012251 272.095736 
L 376.012251 262.099041 
L 388.851012 262.099041 
L 388.851012 252.102347 
L 401.697616 252.102347 
L 401.697616 242.105653 
L 414.465791 242.105653 
L 414.465791 232.108959 
L 427.320238 232.108959 
L 427.320238 222.112264 
L 440.088413 222.112264 
L 440.088413 212.11557 
L 452.958545 212.11557 
L 452.958545 202.118876 
L 461.8 202.118876 
" style="fill:none;stroke:#0000ff;stroke-linecap:square;stroke-width:1.5;"/>
   </g>
   <g id="patch_8">
    <path d="M 57.6 307.584 
L 57.6 186.624 
" style="fill:none;stroke:#000000;stroke-linecap:square;stroke-linejoin:miter;stroke-width:0.8;"/>
   </g>
   <g id="patch_9">
    <path d="M 414.72 307.584 
L 414.72 186.624 
" style="fill:none;stroke:#000000;stroke-linecap:square;stroke-linejoin:miter;stroke-width:0.8;"/>
   </g>
   <g id="patch_10">
    <path d="M 57.6 307.584 
L 414.72 307.584 
" style="fill:none;stroke:#000000;stroke-linecap:square;stroke-linejoin:miter;stroke-width:0.8;"/>
   </g>
   <g id="patch_11">
    <path d="M 57.6 186.624 
L 414.72 186.624 
" style="fill:none;stroke:#000000;stroke-linecap:square;stroke-linejoin:miter;stroke-width:0.8;"/>
   </g>
   <g id="legend_1">
    <g id="patch_12">
     <path d="M 334.516875 223.98025 
L 407.72 223.98025 
Q 409.72 223.98025 409.72 221.98025 
L 409.72 193.624 
Q 409.72 191.624 407.72 191.624 
L 334.516875 191.624 
Q 332.516875 191.624 332.516875 193.624 
L 332.516875 221.98025 
Q 332.516875 223.98025 334.516875 223.98025 
z
" style="fill:#ffffff;opacity:0.8;stroke:#cccccc;stroke-linejoin:miter;"/>
    </g>
    <g id="line2d_44">
     <path d="M 336.516875 199.722437 
L 356.516875 199.722437 
" style="fill:none;stroke:#ff0000;stroke-linecap:square;stroke-width:1.5;"/>
    </g>
    <g id="line2d_45"/>
    <g id="text_26">
     <!-- Altitude -->
     <defs>
      <path d="M 34.1875 63.1875 
L 20.796875 26.90625 
L 47.609375 26.90625 
z
M 28.609375 72.90625 
L 39.796875 72.90625 
L 67.578125 0 
L 57.328125 0 
L 50.6875 18.703125 
L 17.828125 18.703125 
L 11.1875 0 
L 0.78125 0 
z
" id="DejaVuSans-41"/>
      <path d="M 9.421875 75.984375 
L 18.40625 75.984375 
L 18.40625 0 
L 9.421875 0 
z
" id="DejaVuSans-6c"/>
     </defs>
     <g transform="translate(364.516875 203.222437)scale(0.1 -0.1)">
      <use xlink:href="#DejaVuSans-41"/>
      <use x="68.408203" xlink:href="#DejaVuSans-6c"/>
      <use x="96.191406" xlink:href="#DejaVuSans-74"/>
      <use x="135.400391" xlink:href="#DejaVuSans-69"/>
      <use x="163.183594" xlink:href="#DejaVuSans-74"/>
      <use x="202.392578" xlink:href="#DejaVuSans-75"/>
      <use x="265.771484" xlink:href="#DejaVuSans-64"/>
      <use x="329.248047" xlink:href="#DejaVuSans-65"/>
     </g>
    </g>
    <g id="line2d_46">
     <path d="M 336.516875 214.400562 
L 356.516875 214.400562 
" style="fill:none;stroke:#0000ff;stroke-linecap:square;stroke-width:1.5;"/>
    </g>
    <g id="line2d_47"/>
    <g id="text_27">
     <!-- Azimuth -->
     <defs>
      <path d="M 5.515625 54.6875 
L 48.1875 54.6875 
L 48.1875 46.484375 
L 14.40625 7.171875 
L 48.1875 7.171875 
L 48.1875 0 
L 4.296875 0 
L 4.296875 8.203125 
L 38.09375 47.515625 
L 5.515625 47.515625 
z
" id="DejaVuSans-7a"/>
      <path d="M 54.890625 33.015625 
L 54.890625 0 
L 45.90625 0 
L 45.90625 32.71875 
Q 45.90625 40.484375 42.875 44.328125 
Q 39.84375 48.1875 33.796875 48.1875 
Q 26.515625 48.1875 22.3125 43.546875 
Q 18.109375 38.921875 18.109375 30.90625 
L 18.109375 0 
L 9.078125 0 
L 9.078125 75.984375 
L 18.109375 75.984375 
L 18.109375 46.1875 
Q 21.34375 51.125 25.703125 53.5625 
Q 30.078125 56 35.796875 56 
Q 45.21875 56 50.046875 50.171875 
Q 54.890625 44.34375 54.890625 33.015625 
z
" id="DejaVuSans-68"/>
     </defs>
     <g transform="translate(364.516875 217.900562)scale(0.1 -0.1)">
      <use xlink:href="#DejaVuSans-41"/>
      <use x="68.408203" xlink:href="#DejaVuSans-7a"/>
      <use x="120.898438" xlink:href="#DejaVuSans-69"/>
      <use x="148.681641" xlink:href="#DejaVuSans-6d"/>
      <use x="246.09375" xlink:href="#DejaVuSans-75"/>
      <use x="309.472656" xlink:href="#DejaVuSans-74"/>
      <use x="348.681641" xlink:href="#DejaVuSans-68"/>
     </g>
    </g>
   </g>
  </g>
 </g>
 <defs>
  <clipPath id="pd27c905991">
   <rect height="120.96" width="357.12" x="57.6" y="41.472"/>
  </clipPath>
  <clipPath id="p86b2673712">
   <rect height="120.96" width="357.12" x="57.6" y="186.624"/>
  </clipPath>
 </defs>
</svg>
