<?xml version="1.0" encoding="utf-8" standalone="no"?>
<!DOCTYPE svg PUBLIC "-//W3C//DTD SVG 1.1//EN"
  "http://www.w3.org/Graphics/SVG/1.1/DTD/svg11.dtd">
<!-- Created with matplotlib (http://matplotlib.org/) -->
<svg height="345pt" version="1.1" viewBox="0 0 460 345" width="460pt" xmlns="http://www.w3.org/2000/svg" xmlns:xlink="http://www.w3.org/1999/xlink">
 <defs>
  <style type="text/css">
*{stroke-linecap:butt;stroke-linejoin:round;}
  </style>
 </defs>
 <g id="figure_1">
  <g id="patch_1">
   <path d="M 0 345.6 
L 460.8 345.6 
L 460.8 0 
L 0 0 
z
" style="fill:#ffffff;"/>
  </g>
  <g id="axes_1">
   <g id="patch_2">
    <path d="M 57.6 162.432 
L 414.72 162.432 
L 414.72 41.472 
L 57.6 41.472 
z
" style="fill:#ffffff;"/>
   </g>
   <g id="matplotlib.axis_1">
    <g id="xtick_1">
     <g id="line2d_1">
      <path clip-path="url(#pce1833b0e5)" d="M 57.6 162.432 
L 57.6 41.472 
" style="fill:none;stroke:#b0b0b0;stroke-linecap:square;stroke-width:0.8;"/>
     </g>
     <g id="line2d_2">
      <defs>
       <path d="M 0 0 
L 0 3.5 
" id="ma225b89673" style="stroke:#000000;stroke-width:0.8;"/>
      </defs>
      <g>
       <use style="stroke:#000000;stroke-width:0.8;" x="57.6" xlink:href="#ma225b89673" y="162.432"/>
      </g>
     </g>
     <g id="text_1">
      <!-- 0 -->
      <defs>
       <path d="M 31.78125 66.40625 
Q 24.171875 66.40625 20.328125 58.90625 
Q 16.5 51.421875 16.5 36.375 
Q 16.5 21.390625 20.328125 13.890625 
Q 24.171875 6.390625 31.78125 6.390625 
Q 39.453125 6.390625 43.28125 13.890625 
Q 47.125 21.390625 47.125 36.375 
Q 47.125 51.421875 43.28125 58.90625 
Q 39.453125 66.40625 31.78125 66.40625 
z
M 31.78125 74.21875 
Q 44.046875 74.21875 50.515625 64.515625 
Q 56.984375 54.828125 56.984375 36.375 
Q 56.984375 17.96875 50.515625 8.265625 
Q 44.046875 -1.421875 31.78125 -1.421875 
Q 19.53125 -1.421875 13.0625 8.265625 
Q 6.59375 17.96875 6.59375 36.375 
Q 6.59375 54.828125 13.0625 64.515625 
Q 19.53125 74.21875 31.78125 74.21875 
z
" id="DejaVuSans-30"/>
      </defs>
      <g transform="translate(54.41875 177.030437)scale(0.1 -0.1)">
       <use xlink:href="#DejaVuSans-30"/>
      </g>
     </g>
    </g>
    <g id="xtick_2">
     <g id="line2d_3">
      <path clip-path="url(#pce1833b0e5)" d="M 136.164284 162.432 
L 136.164284 41.472 
" style="fill:none;stroke:#b0b0b0;stroke-linecap:square;stroke-width:0.8;"/>
     </g>
     <g id="line2d_4">
      <g>
       <use style="stroke:#000000;stroke-width:0.8;" x="136.164284" xlink:href="#ma225b89673" y="162.432"/>
      </g>
     </g>
     <g id="text_2">
      <!-- 100 -->
      <defs>
       <path d="M 12.40625 8.296875 
L 28.515625 8.296875 
L 28.515625 63.921875 
L 10.984375 60.40625 
L 10.984375 69.390625 
L 28.421875 72.90625 
L 38.28125 72.90625 
L 38.28125 8.296875 
L 54.390625 8.296875 
L 54.390625 0 
L 12.40625 0 
z
" id="DejaVuSans-31"/>
      </defs>
      <g transform="translate(126.620534 177.030437)scale(0.1 -0.1)">
       <use xlink:href="#DejaVuSans-31"/>
       <use x="63.623047" xlink:href="#DejaVuSans-30"/>
       <use x="127.246094" xlink:href="#DejaVuSans-30"/>
      </g>
     </g>
    </g>
    <g id="xtick_3">
     <g id="line2d_5">
      <path clip-path="url(#pce1833b0e5)" d="M 214.728568 162.432 
L 214.728568 41.472 
" style="fill:none;stroke:#b0b0b0;stroke-linecap:square;stroke-width:0.8;"/>
     </g>
     <g id="line2d_6">
      <g>
       <use style="stroke:#000000;stroke-width:0.8;" x="214.728568" xlink:href="#ma225b89673" y="162.432"/>
      </g>
     </g>
     <g id="text_3">
      <!-- 200 -->
      <defs>
       <path d="M 19.1875 8.296875 
L 53.609375 8.296875 
L 53.609375 0 
L 7.328125 0 
L 7.328125 8.296875 
Q 12.9375 14.109375 22.625 23.890625 
Q 32.328125 33.6875 34.8125 36.53125 
Q 39.546875 41.84375 41.421875 45.53125 
Q 43.3125 49.21875 43.3125 52.78125 
Q 43.3125 58.59375 39.234375 62.25 
Q 35.15625 65.921875 28.609375 65.921875 
Q 23.96875 65.921875 18.8125 64.3125 
Q 13.671875 62.703125 7.8125 59.421875 
L 7.8125 69.390625 
Q 13.765625 71.78125 18.9375 73 
Q 24.125 74.21875 28.421875 74.21875 
Q 39.75 74.21875 46.484375 68.546875 
Q 53.21875 62.890625 53.21875 53.421875 
Q 53.21875 48.921875 51.53125 44.890625 
Q 49.859375 40.875 45.40625 35.40625 
Q 44.1875 33.984375 37.640625 27.21875 
Q 31.109375 20.453125 19.1875 8.296875 
z
" id="DejaVuSans-32"/>
      </defs>
      <g transform="translate(205.184818 177.030437)scale(0.1 -0.1)">
       <use xlink:href="#DejaVuSans-32"/>
       <use x="63.623047" xlink:href="#DejaVuSans-30"/>
       <use x="127.246094" xlink:href="#DejaVuSans-30"/>
      </g>
     </g>
    </g>
    <g id="xtick_4">
     <g id="line2d_7">
      <path clip-path="url(#pce1833b0e5)" d="M 293.292853 162.432 
L 293.292853 41.472 
" style="fill:none;stroke:#b0b0b0;stroke-linecap:square;stroke-width:0.8;"/>
     </g>
     <g id="line2d_8">
      <g>
       <use style="stroke:#000000;stroke-width:0.8;" x="293.292853" xlink:href="#ma225b89673" y="162.432"/>
      </g>
     </g>
     <g id="text_4">
      <!-- 300 -->
      <defs>
       <path d="M 40.578125 39.3125 
Q 47.65625 37.796875 51.625 33 
Q 55.609375 28.21875 55.609375 21.1875 
Q 55.609375 10.40625 48.1875 4.484375 
Q 40.765625 -1.421875 27.09375 -1.421875 
Q 22.515625 -1.421875 17.65625 -0.515625 
Q 12.796875 0.390625 7.625 2.203125 
L 7.625 11.71875 
Q 11.71875 9.328125 16.59375 8.109375 
Q 21.484375 6.890625 26.8125 6.890625 
Q 36.078125 6.890625 40.9375 10.546875 
Q 45.796875 14.203125 45.796875 21.1875 
Q 45.796875 27.640625 41.28125 31.265625 
Q 36.765625 34.90625 28.71875 34.90625 
L 20.21875 34.90625 
L 20.21875 43.015625 
L 29.109375 43.015625 
Q 36.375 43.015625 40.234375 45.921875 
Q 44.09375 48.828125 44.09375 54.296875 
Q 44.09375 59.90625 40.109375 62.90625 
Q 36.140625 65.921875 28.71875 65.921875 
Q 24.65625 65.921875 20.015625 65.03125 
Q 15.375 64.15625 9.8125 62.3125 
L 9.8125 71.09375 
Q 15.4375 72.65625 20.34375 73.4375 
Q 25.25 74.21875 29.59375 74.21875 
Q 40.828125 74.21875 47.359375 69.109375 
Q 53.90625 64.015625 53.90625 55.328125 
Q 53.90625 49.265625 50.4375 45.09375 
Q 46.96875 40.921875 40.578125 39.3125 
z
" id="DejaVuSans-33"/>
      </defs>
      <g transform="translate(283.749103 177.030437)scale(0.1 -0.1)">
       <use xlink:href="#DejaVuSans-33"/>
       <use x="63.623047" xlink:href="#DejaVuSans-30"/>
       <use x="127.246094" xlink:href="#DejaVuSans-30"/>
      </g>
     </g>
    </g>
    <g id="xtick_5">
     <g id="line2d_9">
      <path clip-path="url(#pce1833b0e5)" d="M 371.857137 162.432 
L 371.857137 41.472 
" style="fill:none;stroke:#b0b0b0;stroke-linecap:square;stroke-width:0.8;"/>
     </g>
     <g id="line2d_10">
      <g>
       <use style="stroke:#000000;stroke-width:0.8;" x="371.857137" xlink:href="#ma225b89673" y="162.432"/>
      </g>
     </g>
     <g id="text_5">
      <!-- 400 -->
      <defs>
       <path d="M 37.796875 64.3125 
L 12.890625 25.390625 
L 37.796875 25.390625 
z
M 35.203125 72.90625 
L 47.609375 72.90625 
L 47.609375 25.390625 
L 58.015625 25.390625 
L 58.015625 17.1875 
L 47.609375 17.1875 
L 47.609375 0 
L 37.796875 0 
L 37.796875 17.1875 
L 4.890625 17.1875 
L 4.890625 26.703125 
z
" id="DejaVuSans-34"/>
      </defs>
      <g transform="translate(362.313387 177.030437)scale(0.1 -0.1)">
       <use xlink:href="#DejaVuSans-34"/>
       <use x="63.623047" xlink:href="#DejaVuSans-30"/>
       <use x="127.246094" xlink:href="#DejaVuSans-30"/>
      </g>
     </g>
    </g>
    <g id="text_6">
     <!-- t (s) -->
     <defs>
      <path d="M 18.3125 70.21875 
L 18.3125 54.6875 
L 36.8125 54.6875 
L 36.8125 47.703125 
L 18.3125 47.703125 
L 18.3125 18.015625 
Q 18.3125 11.328125 20.140625 9.421875 
Q 21.96875 7.515625 27.59375 7.515625 
L 36.8125 7.515625 
L 36.8125 0 
L 27.59375 0 
Q 17.1875 0 13.234375 3.875 
Q 9.28125 7.765625 9.28125 18.015625 
L 9.28125 47.703125 
L 2.6875 47.703125 
L 2.6875 54.6875 
L 9.28125 54.6875 
L 9.28125 70.21875 
z
" id="DejaVuSans-74"/>
      <path id="DejaVuSans-20"/>
      <path d="M 31 75.875 
Q 24.46875 64.65625 21.28125 53.65625 
Q 18.109375 42.671875 18.109375 31.390625 
Q 18.109375 20.125 21.3125 9.0625 
Q 24.515625 -2 31 -13.1875 
L 23.1875 -13.1875 
Q 15.875 -1.703125 12.234375 9.375 
Q 8.59375 20.453125 8.59375 31.390625 
Q 8.59375 42.28125 12.203125 53.3125 
Q 15.828125 64.359375 23.1875 75.875 
z
" id="DejaVuSans-28"/>
      <path d="M 44.28125 53.078125 
L 44.28125 44.578125 
Q 40.484375 46.53125 36.375 47.5 
Q 32.28125 48.484375 27.875 48.484375 
Q 21.1875 48.484375 17.84375 46.4375 
Q 14.5 44.390625 14.5 40.28125 
Q 14.5 37.15625 16.890625 35.375 
Q 19.28125 33.59375 26.515625 31.984375 
L 29.59375 31.296875 
Q 39.15625 29.25 43.1875 25.515625 
Q 47.21875 21.78125 47.21875 15.09375 
Q 47.21875 7.46875 41.1875 3.015625 
Q 35.15625 -1.421875 24.609375 -1.421875 
Q 20.21875 -1.421875 15.453125 -0.5625 
Q 10.6875 0.296875 5.421875 2 
L 5.421875 11.28125 
Q 10.40625 8.6875 15.234375 7.390625 
Q 20.0625 6.109375 24.8125 6.109375 
Q 31.15625 6.109375 34.5625 8.28125 
Q 37.984375 10.453125 37.984375 14.40625 
Q 37.984375 18.0625 35.515625 20.015625 
Q 33.0625 21.96875 24.703125 23.78125 
L 21.578125 24.515625 
Q 13.234375 26.265625 9.515625 29.90625 
Q 5.8125 33.546875 5.8125 39.890625 
Q 5.8125 47.609375 11.28125 51.796875 
Q 16.75 56 26.8125 56 
Q 31.78125 56 36.171875 55.265625 
Q 40.578125 54.546875 44.28125 53.078125 
z
" id="DejaVuSans-73"/>
      <path d="M 8.015625 75.875 
L 15.828125 75.875 
Q 23.140625 64.359375 26.78125 53.3125 
Q 30.421875 42.28125 30.421875 31.390625 
Q 30.421875 20.453125 26.78125 9.375 
Q 23.140625 -1.703125 15.828125 -13.1875 
L 8.015625 -13.1875 
Q 14.5 -2 17.703125 9.0625 
Q 20.90625 20.125 20.90625 31.390625 
Q 20.90625 42.671875 17.703125 53.65625 
Q 14.5 64.65625 8.015625 75.875 
z
" id="DejaVuSans-29"/>
     </defs>
     <g transform="translate(226.104531 190.708562)scale(0.1 -0.1)">
      <use xlink:href="#DejaVuSans-74"/>
      <use x="39.208984" xlink:href="#DejaVuSans-20"/>
      <use x="70.996094" xlink:href="#DejaVuSans-28"/>
      <use x="110.009766" xlink:href="#DejaVuSans-73"/>
      <use x="162.109375" xlink:href="#DejaVuSans-29"/>
     </g>
    </g>
   </g>
   <g id="matplotlib.axis_2">
    <g id="ytick_1">
     <g id="line2d_11">
      <path clip-path="url(#pce1833b0e5)" d="M 57.6 156.301597 
L 414.72 156.301597 
" style="fill:none;stroke:#b0b0b0;stroke-linecap:square;stroke-width:0.8;"/>
     </g>
     <g id="line2d_12">
      <defs>
       <path d="M 0 0 
L -3.5 0 
" id="meed2aba33d" style="stroke:#000000;stroke-width:0.8;"/>
      </defs>
      <g>
       <use style="stroke:#000000;stroke-width:0.8;" x="57.6" xlink:href="#meed2aba33d" y="156.301597"/>
      </g>
     </g>
     <g id="text_7">
      <!-- 5000 -->
      <defs>
       <path d="M 10.796875 72.90625 
L 49.515625 72.90625 
L 49.515625 64.59375 
L 19.828125 64.59375 
L 19.828125 46.734375 
Q 21.96875 47.46875 24.109375 47.828125 
Q 26.265625 48.1875 28.421875 48.1875 
Q 40.625 48.1875 47.75 41.5 
Q 54.890625 34.8125 54.890625 23.390625 
Q 54.890625 11.625 47.5625 5.09375 
Q 40.234375 -1.421875 26.90625 -1.421875 
Q 22.3125 -1.421875 17.546875 -0.640625 
Q 12.796875 0.140625 7.71875 1.703125 
L 7.71875 11.625 
Q 12.109375 9.234375 16.796875 8.0625 
Q 21.484375 6.890625 26.703125 6.890625 
Q 35.15625 6.890625 40.078125 11.328125 
Q 45.015625 15.765625 45.015625 23.390625 
Q 45.015625 31 40.078125 35.4375 
Q 35.15625 39.890625 26.703125 39.890625 
Q 22.75 39.890625 18.8125 39.015625 
Q 14.890625 38.140625 10.796875 36.28125 
z
" id="DejaVuSans-35"/>
      </defs>
      <g transform="translate(25.15 160.100816)scale(0.1 -0.1)">
       <use xlink:href="#DejaVuSans-35"/>
       <use x="63.623047" xlink:href="#DejaVuSans-30"/>
       <use x="127.246094" xlink:href="#DejaVuSans-30"/>
       <use x="190.869141" xlink:href="#DejaVuSans-30"/>
      </g>
     </g>
    </g>
    <g id="ytick_2">
     <g id="line2d_13">
      <path clip-path="url(#pce1833b0e5)" d="M 57.6 129.588699 
L 414.72 129.588699 
" style="fill:none;stroke:#b0b0b0;stroke-linecap:square;stroke-width:0.8;"/>
     </g>
     <g id="line2d_14">
      <g>
       <use style="stroke:#000000;stroke-width:0.8;" x="57.6" xlink:href="#meed2aba33d" y="129.588699"/>
      </g>
     </g>
     <g id="text_8">
      <!-- 10000 -->
      <g transform="translate(18.7875 133.387918)scale(0.1 -0.1)">
       <use xlink:href="#DejaVuSans-31"/>
       <use x="63.623047" xlink:href="#DejaVuSans-30"/>
       <use x="127.246094" xlink:href="#DejaVuSans-30"/>
       <use x="190.869141" xlink:href="#DejaVuSans-30"/>
       <use x="254.492188" xlink:href="#DejaVuSans-30"/>
      </g>
     </g>
    </g>
    <g id="ytick_3">
     <g id="line2d_15">
      <path clip-path="url(#pce1833b0e5)" d="M 57.6 102.875801 
L 414.72 102.875801 
" style="fill:none;stroke:#b0b0b0;stroke-linecap:square;stroke-width:0.8;"/>
     </g>
     <g id="line2d_16">
      <g>
       <use style="stroke:#000000;stroke-width:0.8;" x="57.6" xlink:href="#meed2aba33d" y="102.875801"/>
      </g>
     </g>
     <g id="text_9">
      <!-- 15000 -->
      <g transform="translate(18.7875 106.67502)scale(0.1 -0.1)">
       <use xlink:href="#DejaVuSans-31"/>
       <use x="63.623047" xlink:href="#DejaVuSans-35"/>
       <use x="127.246094" xlink:href="#DejaVuSans-30"/>
       <use x="190.869141" xlink:href="#DejaVuSans-30"/>
       <use x="254.492188" xlink:href="#DejaVuSans-30"/>
      </g>
     </g>
    </g>
    <g id="ytick_4">
     <g id="line2d_17">
      <path clip-path="url(#pce1833b0e5)" d="M 57.6 76.162903 
L 414.72 76.162903 
" style="fill:none;stroke:#b0b0b0;stroke-linecap:square;stroke-width:0.8;"/>
     </g>
     <g id="line2d_18">
      <g>
       <use style="stroke:#000000;stroke-width:0.8;" x="57.6" xlink:href="#meed2aba33d" y="76.162903"/>
      </g>
     </g>
     <g id="text_10">
      <!-- 20000 -->
      <g transform="translate(18.7875 79.962122)scale(0.1 -0.1)">
       <use xlink:href="#DejaVuSans-32"/>
       <use x="63.623047" xlink:href="#DejaVuSans-30"/>
       <use x="127.246094" xlink:href="#DejaVuSans-30"/>
       <use x="190.869141" xlink:href="#DejaVuSans-30"/>
       <use x="254.492188" xlink:href="#DejaVuSans-30"/>
      </g>
     </g>
    </g>
    <g id="ytick_5">
     <g id="line2d_19">
      <path clip-path="url(#pce1833b0e5)" d="M 57.6 49.450005 
L 414.72 49.450005 
" style="fill:none;stroke:#b0b0b0;stroke-linecap:square;stroke-width:0.8;"/>
     </g>
     <g id="line2d_20">
      <g>
       <use style="stroke:#000000;stroke-width:0.8;" x="57.6" xlink:href="#meed2aba33d" y="49.450005"/>
      </g>
     </g>
     <g id="text_11">
      <!-- 25000 -->
      <g transform="translate(18.7875 53.249224)scale(0.1 -0.1)">
       <use xlink:href="#DejaVuSans-32"/>
       <use x="63.623047" xlink:href="#DejaVuSans-35"/>
       <use x="127.246094" xlink:href="#DejaVuSans-30"/>
       <use x="190.869141" xlink:href="#DejaVuSans-30"/>
       <use x="254.492188" xlink:href="#DejaVuSans-30"/>
      </g>
     </g>
    </g>
    <g id="text_12">
     <!-- Power (arb. units) -->
     <defs>
      <path d="M 19.671875 64.796875 
L 19.671875 37.40625 
L 32.078125 37.40625 
Q 38.96875 37.40625 42.71875 40.96875 
Q 46.484375 44.53125 46.484375 51.125 
Q 46.484375 57.671875 42.71875 61.234375 
Q 38.96875 64.796875 32.078125 64.796875 
z
M 9.8125 72.90625 
L 32.078125 72.90625 
Q 44.34375 72.90625 50.609375 67.359375 
Q 56.890625 61.8125 56.890625 51.125 
Q 56.890625 40.328125 50.609375 34.8125 
Q 44.34375 29.296875 32.078125 29.296875 
L 19.671875 29.296875 
L 19.671875 0 
L 9.8125 0 
z
" id="DejaVuSans-50"/>
      <path d="M 30.609375 48.390625 
Q 23.390625 48.390625 19.1875 42.75 
Q 14.984375 37.109375 14.984375 27.296875 
Q 14.984375 17.484375 19.15625 11.84375 
Q 23.34375 6.203125 30.609375 6.203125 
Q 37.796875 6.203125 41.984375 11.859375 
Q 46.1875 17.53125 46.1875 27.296875 
Q 46.1875 37.015625 41.984375 42.703125 
Q 37.796875 48.390625 30.609375 48.390625 
z
M 30.609375 56 
Q 42.328125 56 49.015625 48.375 
Q 55.71875 40.765625 55.71875 27.296875 
Q 55.71875 13.875 49.015625 6.21875 
Q 42.328125 -1.421875 30.609375 -1.421875 
Q 18.84375 -1.421875 12.171875 6.21875 
Q 5.515625 13.875 5.515625 27.296875 
Q 5.515625 40.765625 12.171875 48.375 
Q 18.84375 56 30.609375 56 
z
" id="DejaVuSans-6f"/>
      <path d="M 4.203125 54.6875 
L 13.1875 54.6875 
L 24.421875 12.015625 
L 35.59375 54.6875 
L 46.1875 54.6875 
L 57.421875 12.015625 
L 68.609375 54.6875 
L 77.59375 54.6875 
L 63.28125 0 
L 52.6875 0 
L 40.921875 44.828125 
L 29.109375 0 
L 18.5 0 
z
" id="DejaVuSans-77"/>
      <path d="M 56.203125 29.59375 
L 56.203125 25.203125 
L 14.890625 25.203125 
Q 15.484375 15.921875 20.484375 11.0625 
Q 25.484375 6.203125 34.421875 6.203125 
Q 39.59375 6.203125 44.453125 7.46875 
Q 49.3125 8.734375 54.109375 11.28125 
L 54.109375 2.78125 
Q 49.265625 0.734375 44.1875 -0.34375 
Q 39.109375 -1.421875 33.890625 -1.421875 
Q 20.796875 -1.421875 13.15625 6.1875 
Q 5.515625 13.8125 5.515625 26.8125 
Q 5.515625 40.234375 12.765625 48.109375 
Q 20.015625 56 32.328125 56 
Q 43.359375 56 49.78125 48.890625 
Q 56.203125 41.796875 56.203125 29.59375 
z
M 47.21875 32.234375 
Q 47.125 39.59375 43.09375 43.984375 
Q 39.0625 48.390625 32.421875 48.390625 
Q 24.90625 48.390625 20.390625 44.140625 
Q 15.875 39.890625 15.1875 32.171875 
z
" id="DejaVuSans-65"/>
      <path d="M 41.109375 46.296875 
Q 39.59375 47.171875 37.8125 47.578125 
Q 36.03125 48 33.890625 48 
Q 26.265625 48 22.1875 43.046875 
Q 18.109375 38.09375 18.109375 28.8125 
L 18.109375 0 
L 9.078125 0 
L 9.078125 54.6875 
L 18.109375 54.6875 
L 18.109375 46.1875 
Q 20.953125 51.171875 25.484375 53.578125 
Q 30.03125 56 36.53125 56 
Q 37.453125 56 38.578125 55.875 
Q 39.703125 55.765625 41.0625 55.515625 
z
" id="DejaVuSans-72"/>
      <path d="M 34.28125 27.484375 
Q 23.390625 27.484375 19.1875 25 
Q 14.984375 22.515625 14.984375 16.5 
Q 14.984375 11.71875 18.140625 8.90625 
Q 21.296875 6.109375 26.703125 6.109375 
Q 34.1875 6.109375 38.703125 11.40625 
Q 43.21875 16.703125 43.21875 25.484375 
L 43.21875 27.484375 
z
M 52.203125 31.203125 
L 52.203125 0 
L 43.21875 0 
L 43.21875 8.296875 
Q 40.140625 3.328125 35.546875 0.953125 
Q 30.953125 -1.421875 24.3125 -1.421875 
Q 15.921875 -1.421875 10.953125 3.296875 
Q 6 8.015625 6 15.921875 
Q 6 25.140625 12.171875 29.828125 
Q 18.359375 34.515625 30.609375 34.515625 
L 43.21875 34.515625 
L 43.21875 35.40625 
Q 43.21875 41.609375 39.140625 45 
Q 35.0625 48.390625 27.6875 48.390625 
Q 23 48.390625 18.546875 47.265625 
Q 14.109375 46.140625 10.015625 43.890625 
L 10.015625 52.203125 
Q 14.9375 54.109375 19.578125 55.046875 
Q 24.21875 56 28.609375 56 
Q 40.484375 56 46.34375 49.84375 
Q 52.203125 43.703125 52.203125 31.203125 
z
" id="DejaVuSans-61"/>
      <path d="M 48.6875 27.296875 
Q 48.6875 37.203125 44.609375 42.84375 
Q 40.53125 48.484375 33.40625 48.484375 
Q 26.265625 48.484375 22.1875 42.84375 
Q 18.109375 37.203125 18.109375 27.296875 
Q 18.109375 17.390625 22.1875 11.75 
Q 26.265625 6.109375 33.40625 6.109375 
Q 40.53125 6.109375 44.609375 11.75 
Q 48.6875 17.390625 48.6875 27.296875 
z
M 18.109375 46.390625 
Q 20.953125 51.265625 25.265625 53.625 
Q 29.59375 56 35.59375 56 
Q 45.5625 56 51.78125 48.09375 
Q 58.015625 40.1875 58.015625 27.296875 
Q 58.015625 14.40625 51.78125 6.484375 
Q 45.5625 -1.421875 35.59375 -1.421875 
Q 29.59375 -1.421875 25.265625 0.953125 
Q 20.953125 3.328125 18.109375 8.203125 
L 18.109375 0 
L 9.078125 0 
L 9.078125 75.984375 
L 18.109375 75.984375 
z
" id="DejaVuSans-62"/>
      <path d="M 10.6875 12.40625 
L 21 12.40625 
L 21 0 
L 10.6875 0 
z
" id="DejaVuSans-2e"/>
      <path d="M 8.5 21.578125 
L 8.5 54.6875 
L 17.484375 54.6875 
L 17.484375 21.921875 
Q 17.484375 14.15625 20.5 10.265625 
Q 23.53125 6.390625 29.59375 6.390625 
Q 36.859375 6.390625 41.078125 11.03125 
Q 45.3125 15.671875 45.3125 23.6875 
L 45.3125 54.6875 
L 54.296875 54.6875 
L 54.296875 0 
L 45.3125 0 
L 45.3125 8.40625 
Q 42.046875 3.421875 37.71875 1 
Q 33.40625 -1.421875 27.6875 -1.421875 
Q 18.265625 -1.421875 13.375 4.4375 
Q 8.5 10.296875 8.5 21.578125 
z
M 31.109375 56 
z
" id="DejaVuSans-75"/>
      <path d="M 54.890625 33.015625 
L 54.890625 0 
L 45.90625 0 
L 45.90625 32.71875 
Q 45.90625 40.484375 42.875 44.328125 
Q 39.84375 48.1875 33.796875 48.1875 
Q 26.515625 48.1875 22.3125 43.546875 
Q 18.109375 38.921875 18.109375 30.90625 
L 18.109375 0 
L 9.078125 0 
L 9.078125 54.6875 
L 18.109375 54.6875 
L 18.109375 46.1875 
Q 21.34375 51.125 25.703125 53.5625 
Q 30.078125 56 35.796875 56 
Q 45.21875 56 50.046875 50.171875 
Q 54.890625 44.34375 54.890625 33.015625 
z
" id="DejaVuSans-6e"/>
      <path d="M 9.421875 54.6875 
L 18.40625 54.6875 
L 18.40625 0 
L 9.421875 0 
z
M 9.421875 75.984375 
L 18.40625 75.984375 
L 18.40625 64.59375 
L 9.421875 64.59375 
z
" id="DejaVuSans-69"/>
     </defs>
     <g transform="translate(12.707812 146.498875)rotate(-90)scale(0.1 -0.1)">
      <use xlink:href="#DejaVuSans-50"/>
      <use x="60.255859" xlink:href="#DejaVuSans-6f"/>
      <use x="121.4375" xlink:href="#DejaVuSans-77"/>
      <use x="203.224609" xlink:href="#DejaVuSans-65"/>
      <use x="264.748047" xlink:href="#DejaVuSans-72"/>
      <use x="305.861328" xlink:href="#DejaVuSans-20"/>
      <use x="337.648438" xlink:href="#DejaVuSans-28"/>
      <use x="376.662109" xlink:href="#DejaVuSans-61"/>
      <use x="437.941406" xlink:href="#DejaVuSans-72"/>
      <use x="479.054688" xlink:href="#DejaVuSans-62"/>
      <use x="542.53125" xlink:href="#DejaVuSans-2e"/>
      <use x="574.318359" xlink:href="#DejaVuSans-20"/>
      <use x="606.105469" xlink:href="#DejaVuSans-75"/>
      <use x="669.484375" xlink:href="#DejaVuSans-6e"/>
      <use x="732.863281" xlink:href="#DejaVuSans-69"/>
      <use x="760.646484" xlink:href="#DejaVuSans-74"/>
      <use x="799.855469" xlink:href="#DejaVuSans-73"/>
      <use x="851.955078" xlink:href="#DejaVuSans-29"/>
     </g>
    </g>
   </g>
   <g id="line2d_21">
    <path clip-path="url(#pce1833b0e5)" d="M 57.6 47.663728 
L 57.80607 46.982148 
L 58.012141 47.681187 
L 58.218211 51.427388 
L 58.630352 51.627507 
L 58.836422 51.842982 
L 59.042493 48.764653 
L 59.248563 49.399387 
L 59.454634 51.624972 
L 59.660704 51.870597 
L 60.072845 51.608815 
L 60.278915 51.24832 
L 60.484986 51.719539 
L 60.691056 48.42956 
L 60.897126 48.223238 
L 61.103197 48.801218 
L 61.515338 51.757069 
L 61.927478 50.963408 
L 62.133549 51.115125 
L 62.339619 51.07826 
L 62.54569 51.185525 
L 62.95783 48.357296 
L 63.163901 49.010489 
L 63.369971 48.157515 
L 63.576042 48.366296 
L 63.782112 50.36706 
L 63.988182 48.77138 
L 64.194253 48.309711 
L 64.606394 48.163943 
L 64.812464 47.718058 
L 65.018534 47.636087 
L 65.224605 48.504883 
L 65.430675 47.598147 
L 65.636746 47.821998 
L 65.842816 46.981276 
L 66.048886 47.533455 
L 66.461027 47.250045 
L 66.667098 46.970182 
L 66.873168 47.402034 
L 67.079238 47.139754 
L 67.491379 48.156943 
L 67.69745 47.462126 
L 68.315661 47.919271 
L 68.521731 47.277137 
L 68.933872 48.528084 
L 69.139942 48.089856 
L 69.346013 48.702224 
L 69.552083 47.686368 
L 69.758153 47.816433 
L 69.964224 47.461587 
L 70.170294 47.77534 
L 70.376365 48.744032 
L 70.582435 48.030719 
L 70.788505 48.198837 
L 70.994576 50.855078 
L 71.200646 51.028998 
L 71.818857 52.018026 
L 72.024928 51.718985 
L 72.230998 49.945237 
L 72.437069 51.595828 
L 72.849209 52.167203 
L 73.05528 51.715899 
L 73.26135 51.694455 
L 73.467421 51.096279 
L 73.673491 51.684302 
L 73.879561 51.630305 
L 74.291702 50.757712 
L 74.497773 51.801252 
L 74.909913 47.86146 
L 75.115984 48.03311 
L 75.322054 49.211315 
L 75.528125 51.151652 
L 75.734195 51.302336 
L 75.940265 51.024011 
L 76.146336 51.836935 
L 76.764547 48.647488 
L 76.970617 48.479524 
L 77.382758 51.424827 
L 77.588829 51.531137 
L 78.000969 50.946119 
L 78.20704 51.429499 
L 78.41311 51.277356 
L 78.619181 51.395168 
L 78.825251 50.507045 
L 79.031321 47.484961 
L 79.237392 47.495597 
L 79.443462 48.420375 
L 79.649533 51.201037 
L 79.855603 51.389961 
L 80.061673 52.412546 
L 80.267744 52.390875 
L 80.473814 52.027059 
L 80.679885 52.877118 
L 80.885955 52.661429 
L 81.298096 52.092379 
L 81.504166 52.637026 
L 81.710237 52.074003 
L 81.916307 52.03279 
L 82.122377 50.999329 
L 82.328448 49.160599 
L 82.534518 49.563613 
L 82.740589 49.122294 
L 82.946659 48.999219 
L 83.3588 49.942193 
L 83.56487 49.01245 
L 83.770941 49.479834 
L 83.977011 50.256159 
L 84.183081 50.14801 
L 84.389152 49.907238 
L 84.595222 49.900144 
L 84.801293 49.185928 
L 85.007363 48.875278 
L 85.419504 48.854 
L 85.831645 48.190498 
L 86.037715 48.925455 
L 86.655926 48.867487 
L 86.861997 48.83605 
L 87.068067 49.04195 
L 87.480208 48.278312 
L 87.686278 49.07526 
L 88.304489 48.964527 
L 88.51056 48.491597 
L 88.71663 48.818616 
L 89.128771 50.011451 
L 89.540912 48.95817 
L 89.746982 49.791356 
L 89.953053 49.685839 
L 90.571264 48.902596 
L 90.983405 49.224029 
L 91.189475 48.896745 
L 91.601616 49.327089 
L 91.807686 49.409022 
L 92.013756 51.123147 
L 93.044108 68.488669 
L 95.310883 122.908759 
L 95.929094 133.660502 
L 96.341235 141.503597 
L 96.547305 142.483574 
L 96.959446 145.973866 
L 97.165516 144.741247 
L 97.577657 156.666193 
L 97.783728 156.800374 
L 97.989798 156.768543 
L 98.195868 156.933818 
L 98.401939 156.730716 
L 98.608009 156.340419 
L 99.02015 156.442527 
L 99.22622 155.382213 
L 99.432291 156.533117 
L 99.844432 156.841371 
L 100.050502 156.776294 
L 100.462643 156.817033 
L 101.080854 156.82528 
L 102.317276 156.642105 
L 102.729417 156.220321 
L 103.347628 156.635727 
L 103.553699 156.678906 
L 103.759769 156.570198 
L 104.584051 156.852642 
L 104.996192 156.723336 
L 105.202262 156.502147 
L 105.408332 156.715657 
L 105.614403 156.111232 
L 106.026544 151.694197 
L 106.232614 155.696123 
L 106.438684 156.889069 
L 106.644755 156.805354 
L 106.850825 156.846361 
L 107.056896 156.516987 
L 107.262966 156.818402 
L 107.675107 156.866655 
L 108.087248 156.449369 
L 108.499388 156.643152 
L 108.705459 156.578999 
L 108.911529 156.633224 
L 109.1176 156.835193 
L 109.32367 153.926608 
L 109.52974 148.234744 
L 109.941881 146.741935 
L 110.147952 143.877498 
L 110.354022 151.221394 
L 110.560092 151.408728 
L 110.766163 150.429597 
L 111.178304 151.31845 
L 111.384374 150.991513 
L 111.590444 150.016963 
L 112.002585 150.943885 
L 112.414726 151.412986 
L 112.620796 151.078312 
L 112.826867 151.406535 
L 113.445078 151.354265 
L 114.063289 151.452658 
L 114.47543 151.341659 
L 114.6815 151.474266 
L 114.887571 150.209699 
L 115.093641 150.976285 
L 115.299711 151.307845 
L 115.505782 150.644607 
L 115.711852 151.22254 
L 115.917923 151.00683 
L 116.123993 150.461649 
L 116.330063 147.111534 
L 116.536134 150.630529 
L 116.742204 150.480932 
L 116.948275 151.347874 
L 117.360415 150.842019 
L 117.566486 151.310781 
L 117.772556 151.130138 
L 119.008979 151.365508 
L 119.421119 151.105749 
L 119.62719 151.374792 
L 119.83326 151.219222 
L 120.657542 151.45714 
L 121.069683 151.192757 
L 121.481823 151.452557 
L 121.893964 151.319785 
L 122.100035 150.649758 
L 122.718246 135.862326 
L 123.130387 128.844817 
L 123.336457 131.25116 
L 123.542527 137.066872 
L 123.748598 137.148712 
L 123.954668 137.086641 
L 124.160739 137.155464 
L 124.366809 137.100988 
L 124.572879 137.422684 
L 124.77895 137.421288 
L 124.98502 137.793553 
L 125.191091 137.250283 
L 125.397161 137.575889 
L 126.015372 137.305994 
L 126.221443 137.69306 
L 126.427513 137.094837 
L 126.633583 137.407152 
L 127.045724 137.521482 
L 127.251795 137.475215 
L 127.457865 137.003986 
L 127.663935 136.959421 
L 127.870006 137.297002 
L 128.282147 137.426667 
L 128.488217 135.788014 
L 128.694287 137.642711 
L 129.312499 137.07541 
L 129.518569 137.19114 
L 129.724639 136.816757 
L 129.93071 137.139602 
L 130.13678 137.0626 
L 130.548921 136.534157 
L 130.754991 136.980023 
L 130.961062 137.045502 
L 131.167132 137.269857 
L 131.785343 137.23902 
L 131.991414 136.935345 
L 132.197484 136.966774 
L 132.403555 135.556949 
L 132.609625 134.929768 
L 132.815695 136.408897 
L 133.021766 135.463835 
L 133.227836 136.372502 
L 133.433907 136.760939 
L 133.639977 136.750709 
L 133.846047 136.983637 
L 134.052118 135.907416 
L 134.258188 137.555032 
L 134.464259 137.045633 
L 134.670329 134.859835 
L 134.876399 135.191317 
L 135.08247 136.778469 
L 135.700681 114.357259 
L 135.906751 113.76015 
L 136.112822 111.693109 
L 136.524962 115.461488 
L 136.731033 116.388003 
L 137.143174 117.088848 
L 137.349244 116.310252 
L 137.555314 116.228956 
L 137.761385 116.387547 
L 137.967455 116.973681 
L 138.379596 117.126613 
L 138.585666 116.717265 
L 138.791737 116.790918 
L 139.203878 115.605751 
L 140.028159 115.533393 
L 140.23423 115.902031 
L 140.4403 115.762586 
L 140.64637 116.12323 
L 140.852441 115.97066 
L 141.058511 116.931603 
L 141.264582 117.102487 
L 141.470652 116.018618 
L 141.676722 114.149008 
L 142.088863 115.708525 
L 142.294934 115.508683 
L 142.707074 115.784611 
L 142.913145 114.596692 
L 143.531356 116.734504 
L 143.737426 116.292634 
L 143.943497 116.3239 
L 144.149567 116.870384 
L 144.355638 115.176635 
L 144.767778 116.036223 
L 144.973849 117.090725 
L 145.179919 117.020264 
L 145.59206 115.704347 
L 145.79813 116.026316 
L 146.004201 115.711365 
L 146.416342 115.59283 
L 146.622412 115.680299 
L 147.034553 115.336282 
L 147.240623 115.717115 
L 147.446694 115.472315 
L 147.652764 115.694925 
L 147.858834 115.28998 
L 148.064905 115.916998 
L 148.477046 103.985408 
L 149.095257 92.458614 
L 149.301327 92.656234 
L 149.507398 93.599494 
L 149.919538 93.362962 
L 150.125609 93.484363 
L 150.53775 93.350249 
L 150.94989 91.705817 
L 151.155961 91.747301 
L 151.362031 90.896754 
L 151.568102 91.560723 
L 151.774172 91.452856 
L 151.980242 91.052003 
L 152.392383 91.733885 
L 152.598454 91.614135 
L 153.216665 92.695806 
L 153.422735 91.620663 
L 153.628806 91.933282 
L 154.040946 91.319302 
L 154.247017 91.805086 
L 154.453087 91.867567 
L 154.659158 91.732972 
L 154.865228 92.110007 
L 155.071298 91.219776 
L 155.277369 91.939837 
L 155.483439 91.679054 
L 155.68951 92.24044 
L 156.10165 91.491291 
L 156.307721 91.798013 
L 156.719862 91.309917 
L 157.132002 92.151412 
L 157.338073 91.564469 
L 157.544143 91.440595 
L 157.750214 92.454866 
L 158.162354 91.328078 
L 158.368425 92.097542 
L 158.574495 91.694074 
L 158.986636 92.080418 
L 159.398777 91.456042 
L 159.604847 91.476855 
L 159.810917 92.082003 
L 160.016988 93.069379 
L 160.223058 92.819738 
L 160.429129 91.611844 
L 160.635199 91.869077 
L 160.841269 91.250478 
L 161.04734 91.044909 
L 161.25341 89.323926 
L 161.665551 79.968012 
L 162.077692 70.458504 
L 162.283762 67.954231 
L 162.489833 70.395018 
L 162.695903 68.783379 
L 162.901973 68.945471 
L 163.726255 72.18296 
L 164.138396 71.753041 
L 164.344466 69.376757 
L 164.550537 69.452125 
L 164.756607 71.733113 
L 164.962677 71.617523 
L 165.786959 71.757779 
L 165.993029 71.418152 
L 166.1991 72.194538 
L 166.40517 71.557612 
L 166.611241 71.826748 
L 167.023381 69.277965 
L 167.229452 69.258694 
L 167.641593 71.728394 
L 167.847663 71.717992 
L 168.465874 71.426451 
L 168.671945 71.649872 
L 168.878015 71.200539 
L 169.290156 68.970207 
L 169.496226 69.284755 
L 169.908367 70.838814 
L 170.114437 68.903759 
L 170.320508 69.019979 
L 170.526578 68.963414 
L 170.732649 68.776405 
L 170.938719 68.783743 
L 171.144789 68.627132 
L 171.35086 69.315631 
L 171.55693 71.087248 
L 171.763001 68.784036 
L 171.969071 69.623833 
L 172.381212 69.166055 
L 172.587282 69.290187 
L 172.793353 69.579598 
L 173.411564 69.008633 
L 173.823705 70.34205 
L 174.029775 70.720553 
L 174.235845 69.010316 
L 174.647986 58.869543 
L 174.854057 56.797366 
L 175.060127 56.312615 
L 175.266197 53.865148 
L 175.472268 54.295316 
L 175.678338 55.409743 
L 176.090479 54.831361 
L 176.50262 54.350269 
L 176.70869 56.870764 
L 177.945113 57.750077 
L 178.357253 54.669965 
L 178.563324 55.261759 
L 178.769394 54.882214 
L 178.975465 55.761754 
L 179.181535 54.982473 
L 179.387605 54.699529 
L 179.593676 54.092054 
L 179.799746 54.750829 
L 180.005817 54.549978 
L 180.211887 54.570517 
L 180.417957 54.145491 
L 180.830098 55.010434 
L 181.036168 54.816196 
L 181.448309 55.139214 
L 181.86045 54.468953 
L 182.272591 55.635799 
L 182.478661 55.397623 
L 182.684732 54.527648 
L 182.890802 54.597077 
L 183.096872 54.306587 
L 183.509013 54.373387 
L 183.921154 55.408705 
L 184.333295 54.647375 
L 184.745436 55.146466 
L 185.157576 53.895559 
L 185.363647 54.881892 
L 185.569717 54.456383 
L 185.775788 54.392008 
L 185.981858 54.523609 
L 186.187928 55.174519 
L 186.600069 54.845465 
L 186.80614 55.344455 
L 187.01221 55.4547 
L 187.21828 55.823054 
L 187.630421 52.567007 
L 187.836492 52.624611 
L 188.042562 50.209044 
L 188.248632 50.741875 
L 188.454703 54.761718 
L 188.866844 54.803007 
L 189.072914 54.554469 
L 189.278984 55.381901 
L 189.485055 54.908069 
L 189.691125 54.957264 
L 189.897196 55.494499 
L 190.103266 54.757887 
L 190.309336 55.548759 
L 190.515407 55.146753 
L 190.721477 55.801997 
L 190.927548 55.570964 
L 191.133618 55.83687 
L 191.339688 55.030112 
L 191.545759 55.368643 
L 191.751829 54.702358 
L 191.9579 54.654826 
L 192.16397 54.950615 
L 192.37004 55.705547 
L 192.576111 55.931462 
L 192.782181 54.904748 
L 193.194322 55.762184 
L 193.400392 54.984423 
L 193.606463 54.851216 
L 193.812533 55.635438 
L 194.018604 54.972938 
L 194.224674 54.957288 
L 194.430744 56.557148 
L 194.636815 55.24266 
L 194.842885 55.230945 
L 195.048956 55.339169 
L 195.461096 54.875711 
L 195.667167 55.418812 
L 195.873237 55.066219 
L 196.079308 55.776282 
L 196.285378 55.685895 
L 196.491448 55.151883 
L 196.697519 55.46725 
L 196.903589 54.805747 
L 197.10966 55.102181 
L 197.5218 54.884092 
L 197.727871 55.092921 
L 198.140012 56.920415 
L 198.552152 57.780839 
L 198.758223 57.373237 
L 198.964293 54.720985 
L 199.170364 53.691844 
L 199.582504 57.358803 
L 199.788575 57.069519 
L 199.994645 55.111004 
L 200.200716 55.075461 
L 200.612856 52.330351 
L 201.231068 60.659823 
L 201.437138 68.432118 
L 201.643208 68.049513 
L 202.055349 68.285995 
L 202.26142 67.784117 
L 202.46749 68.132964 
L 202.67356 67.929923 
L 203.085701 67.888562 
L 203.703912 67.234013 
L 203.909983 67.381537 
L 204.116053 67.16003 
L 204.322123 67.754933 
L 204.528194 67.630525 
L 204.940335 69.096111 
L 205.146405 67.658892 
L 205.352475 67.722633 
L 205.970687 68.413305 
L 206.176757 68.678767 
L 206.382827 68.124598 
L 206.588898 68.27964 
L 206.794968 69.38861 
L 207.001039 69.435136 
L 207.207109 68.382378 
L 207.413179 68.591292 
L 207.61925 69.676401 
L 207.82532 69.899191 
L 208.031391 69.550931 
L 208.237461 69.892722 
L 208.443531 70.460047 
L 208.649602 69.392682 
L 209.267813 70.253578 
L 209.473883 68.734615 
L 209.679954 68.888742 
L 209.886024 68.39664 
L 210.298165 68.498923 
L 210.504235 69.138062 
L 210.710306 67.374874 
L 210.916376 67.360424 
L 211.328517 70.332169 
L 211.740658 67.414468 
L 211.946728 68.494207 
L 212.358869 68.012557 
L 212.564939 68.094875 
L 212.77101 69.186507 
L 212.97708 68.718098 
L 213.183151 68.82424 
L 213.389221 59.500116 
L 213.801362 67.07302 
L 214.007432 69.870131 
L 214.213503 75.27771 
L 214.625643 91.013456 
L 215.037784 90.566955 
L 215.243855 90.855793 
L 215.449925 90.531031 
L 215.655995 90.512386 
L 215.862066 89.760211 
L 216.068136 89.624848 
L 216.274207 90.730055 
L 216.686347 91.059301 
L 216.892418 90.741969 
L 217.098488 91.084426 
L 217.510629 91.096664 
L 217.716699 90.927545 
L 217.92277 91.192177 
L 218.12884 91.06284 
L 218.540981 91.202252 
L 218.747051 90.746008 
L 219.159192 91.28723 
L 219.365263 91.195293 
L 219.571333 91.361309 
L 219.777403 91.775168 
L 219.983474 91.534192 
L 220.601685 91.760423 
L 221.013826 91.936303 
L 221.219896 91.621957 
L 221.425967 91.722976 
L 221.838107 91.271594 
L 222.044178 91.669265 
L 222.250248 91.807415 
L 222.456319 91.747814 
L 222.662389 91.901287 
L 222.868459 91.734271 
L 223.07453 91.845958 
L 223.2806 91.643517 
L 223.486671 92.004509 
L 223.692741 91.971488 
L 223.898811 91.762809 
L 224.104882 92.112127 
L 224.310952 92.034945 
L 224.723093 92.546097 
L 224.929163 92.065001 
L 225.341304 92.778705 
L 225.547374 92.282241 
L 225.753445 92.180996 
L 225.959515 92.21022 
L 226.165586 92.107417 
L 226.371656 89.64544 
L 226.577726 85.479054 
L 226.989867 91.108644 
L 227.195938 96.15923 
L 227.608078 112.609471 
L 228.22629 113.6059 
L 228.43236 113.055072 
L 228.844501 112.818616 
L 229.050571 113.659252 
L 229.462712 113.602132 
L 229.874853 112.663051 
L 230.080923 113.677356 
L 230.286994 113.046324 
L 230.493064 113.865187 
L 230.905205 112.675409 
L 231.317346 114.312482 
L 231.523416 113.651503 
L 231.729486 113.390588 
L 231.935557 113.663962 
L 232.141627 112.917242 
L 232.553768 113.380615 
L 232.759838 111.429989 
L 232.965909 112.859404 
L 233.171979 113.469788 
L 233.37805 113.438352 
L 233.58412 112.539794 
L 233.79019 112.514503 
L 233.996261 113.480656 
L 234.202331 113.528238 
L 234.408402 114.154196 
L 234.614472 114.002449 
L 234.820542 114.156391 
L 235.026613 114.520704 
L 235.438754 114.304144 
L 235.850894 115.011073 
L 236.056965 114.389589 
L 236.263035 114.594563 
L 236.469106 114.045353 
L 236.675176 113.878597 
L 236.881246 115.1079 
L 237.087317 114.685079 
L 237.293387 114.928817 
L 237.499458 115.534383 
L 237.911598 114.742537 
L 238.117669 114.901689 
L 238.323739 114.735106 
L 238.52981 115.585483 
L 238.73588 115.09811 
L 238.94195 115.09308 
L 239.148021 115.385276 
L 239.354091 112.880686 
L 239.560162 105.456565 
L 239.972302 111.967196 
L 240.178373 116.166099 
L 240.590514 132.178173 
L 240.796584 132.558779 
L 241.002654 132.434697 
L 241.208725 131.826912 
L 241.620866 128.734365 
L 241.826936 129.834038 
L 242.239077 129.862757 
L 242.445147 129.841261 
L 242.651218 129.577688 
L 242.857288 131.10387 
L 243.063358 131.553159 
L 243.269429 130.90116 
L 243.475499 131.072185 
L 243.68157 131.461782 
L 243.88764 130.259911 
L 244.09371 131.605937 
L 244.299781 131.537226 
L 244.505851 133.007682 
L 244.711922 133.551128 
L 245.124062 132.803526 
L 245.330133 132.814168 
L 245.536203 132.436506 
L 245.742274 132.903533 
L 246.154414 132.757925 
L 246.360485 132.515498 
L 246.566555 132.044625 
L 246.772626 132.599686 
L 246.978696 131.343649 
L 247.184766 130.974331 
L 247.596907 131.621404 
L 247.802977 132.137354 
L 248.009048 132.340935 
L 248.215118 132.788607 
L 248.421189 132.229139 
L 248.627259 133.503313 
L 249.0394 132.047162 
L 249.24547 132.39012 
L 249.451541 133.229773 
L 249.657611 132.308389 
L 249.863681 133.153364 
L 250.069752 133.059452 
L 250.275822 131.539061 
L 250.481893 133.567096 
L 250.687963 132.69166 
L 250.894033 133.106992 
L 251.100104 132.789472 
L 251.306174 133.289009 
L 251.512245 132.951538 
L 251.924385 132.980195 
L 252.130456 133.03515 
L 252.336526 132.290273 
L 252.748667 124.207049 
L 253.366878 108.884203 
L 254.809371 71.721452 
L 255.015441 69.090176 
L 255.427582 61.312642 
L 255.633653 60.117548 
L 256.045793 56.827834 
L 256.251864 56.604388 
L 256.457934 54.929183 
L 256.664005 56.158296 
L 256.870075 58.208327 
L 257.076145 58.663357 
L 257.282216 58.720706 
L 257.488286 59.108818 
L 257.694357 58.448976 
L 257.900427 59.506913 
L 258.312568 67.021423 
L 260.785413 132.439697 
L 261.403624 143.354023 
L 262.021835 151.166606 
L 262.227905 151.051296 
L 262.433976 151.342086 
L 262.640046 150.963569 
L 262.846117 150.967014 
L 263.052187 151.127848 
L 263.258257 151.47462 
L 263.464328 151.2551 
L 263.670398 150.654232 
L 263.876469 151.048271 
L 264.082539 150.904262 
L 264.70075 151.344527 
L 264.906821 151.023052 
L 265.112891 151.244693 
L 265.318961 151.071033 
L 265.731102 151.303903 
L 265.937173 151.2548 
L 266.143243 151.082588 
L 266.349313 151.310471 
L 266.555384 151.206844 
L 266.761454 151.29703 
L 267.173595 151.246101 
L 267.585736 151.583384 
L 267.791806 151.468185 
L 268.410017 151.4701 
L 268.616088 151.366033 
L 268.822158 151.504756 
L 269.028229 151.20978 
L 269.440369 152.035359 
L 269.64644 152.064621 
L 269.85251 152.240766 
L 270.264651 151.901988 
L 270.882862 152.441793 
L 271.088932 151.757506 
L 271.295003 152.023501 
L 271.501073 151.679827 
L 271.913214 152.258059 
L 272.119284 152.158017 
L 272.325355 151.737927 
L 272.737496 152.390013 
L 272.943566 152.003967 
L 273.149636 152.277942 
L 273.355707 151.969215 
L 273.561777 152.168969 
L 273.767848 152.122962 
L 273.973918 151.82294 
L 274.179988 152.020117 
L 274.386059 152.026854 
L 275.00427 150.335231 
L 275.21034 150.580233 
L 275.416411 150.209049 
L 275.622481 150.799966 
L 275.828552 150.719534 
L 276.034622 150.474513 
L 276.240692 150.683832 
L 276.446763 150.181957 
L 276.652833 150.666857 
L 277.064974 150.938706 
L 277.271044 150.786658 
L 277.889256 150.915294 
L 278.095326 150.777222 
L 278.301396 150.077512 
L 278.507467 150.830309 
L 278.713537 150.80635 
L 279.125678 151.062184 
L 279.743889 150.888528 
L 279.94996 150.971493 
L 280.15603 150.916753 
L 280.3621 150.622334 
L 280.568171 150.683131 
L 280.774241 150.927651 
L 280.980312 150.66196 
L 281.186382 150.916515 
L 281.392452 150.916115 
L 281.598523 150.664445 
L 282.010664 151.138505 
L 282.422804 151.266695 
L 282.834945 151.031905 
L 283.453156 151.247269 
L 283.659227 151.207281 
L 283.865297 151.289182 
L 284.071368 151.056365 
L 284.277438 151.339735 
L 284.483508 151.151032 
L 284.689579 151.43206 
L 284.895649 151.100322 
L 285.10172 151.016138 
L 285.30779 150.60905 
L 285.51386 150.928784 
L 285.719931 150.912569 
L 285.926001 151.049044 
L 286.132072 151.452527 
L 286.338142 151.490779 
L 286.544212 150.404047 
L 286.750283 150.309119 
L 286.956353 148.419394 
L 287.574564 138.966737 
L 287.780635 138.472377 
L 287.986705 138.47967 
L 288.192776 138.23587 
L 288.604916 138.29881 
L 289.017057 138.882208 
L 289.429198 138.609553 
L 289.841339 138.638774 
L 290.66562 138.502229 
L 290.871691 138.613469 
L 291.695972 138.475457 
L 292.108113 139.188111 
L 292.314183 138.958423 
L 292.726324 138.994121 
L 292.932395 138.907478 
L 293.138465 138.654148 
L 293.344535 138.59488 
L 293.550606 138.726903 
L 293.962747 138.733467 
L 294.168817 138.856681 
L 294.374887 138.755616 
L 294.787028 138.98083 
L 294.993099 138.947407 
L 295.199169 139.162389 
L 295.61131 139.220293 
L 295.81738 139.397647 
L 296.023451 139.307895 
L 296.641662 139.386298 
L 296.847732 139.171891 
L 297.465943 139.273006 
L 297.878084 139.173071 
L 298.496295 139.189646 
L 298.702366 139.366479 
L 298.908436 139.308638 
L 299.114507 138.971153 
L 299.320577 139.191106 
L 299.526647 138.733684 
L 300.144859 125.931832 
L 300.350929 121.32272 
L 300.556999 120.295665 
L 300.76307 120.212742 
L 301.381281 120.378558 
L 301.587351 120.197277 
L 301.793422 120.508918 
L 301.999492 120.205226 
L 302.205563 120.433549 
L 302.411633 120.240375 
L 302.617703 120.493482 
L 302.823774 120.50246 
L 303.029844 120.251223 
L 303.441985 120.524638 
L 303.854126 120.425301 
L 304.884478 120.613974 
L 305.502689 120.757829 
L 305.708759 120.807807 
L 305.91483 120.716092 
L 306.1209 120.903263 
L 306.326971 120.889039 
L 306.533041 121.086954 
L 307.563393 120.73221 
L 307.769463 120.882624 
L 307.975534 120.750711 
L 308.593745 120.951176 
L 308.799815 121.258163 
L 309.005886 120.940316 
L 309.211956 121.155859 
L 311.06659 121.191776 
L 311.478731 121.46019 
L 311.684801 121.206486 
L 311.890871 121.456669 
L 312.096942 121.310272 
L 312.303012 120.695164 
L 313.127294 99.137569 
L 313.333364 98.178546 
L 313.539435 97.783202 
L 313.951575 97.825072 
L 314.157646 97.450015 
L 314.363716 97.748711 
L 314.569786 97.557114 
L 314.775857 97.591597 
L 314.981927 97.987586 
L 315.187998 97.893711 
L 315.394068 97.458328 
L 315.600138 98.070962 
L 315.806209 97.64063 
L 316.012279 97.744417 
L 316.42442 97.701486 
L 317.042631 98.266295 
L 317.248702 98.293054 
L 317.454772 97.781674 
L 318.072983 98.234565 
L 318.279054 97.903622 
L 318.485124 98.530009 
L 318.897265 98.233096 
L 319.309406 98.530446 
L 319.515476 98.387994 
L 319.721546 98.434427 
L 319.927617 97.799605 
L 320.133687 98.270704 
L 320.339758 98.22742 
L 320.751898 98.48482 
L 320.957969 98.205099 
L 321.164039 98.295102 
L 321.37011 98.005269 
L 322.194391 98.224255 
L 322.606532 98.579469 
L 322.812602 98.527237 
L 323.018673 98.627711 
L 323.224743 99.540504 
L 323.430814 99.573654 
L 323.636884 99.053329 
L 324.049025 99.558008 
L 324.255095 99.381199 
L 324.461166 98.893761 
L 324.667236 99.200626 
L 324.873306 99.104041 
L 325.079377 98.401247 
L 325.285447 96.245783 
L 326.109729 75.832522 
L 326.315799 75.340932 
L 326.72794 75.873414 
L 326.93401 75.757066 
L 327.140081 75.39022 
L 327.346151 75.712255 
L 327.758292 75.639414 
L 327.964362 75.359951 
L 328.170433 75.401025 
L 328.376503 75.247471 
L 328.582574 75.545932 
L 328.788644 75.280035 
L 329.200785 76.419065 
L 329.406855 75.710071 
L 329.612926 75.928136 
L 329.818996 75.701253 
L 330.437207 75.829597 
L 331.261489 77.150919 
L 331.467559 76.148263 
L 331.67363 75.702764 
L 331.8797 75.80319 
L 332.08577 76.170153 
L 332.497911 76.1584 
L 332.703982 75.871388 
L 332.910052 76.291347 
L 333.116122 76.11433 
L 333.528263 76.566023 
L 333.734334 76.691948 
L 333.940404 76.364182 
L 334.146474 77.054733 
L 334.352545 76.698299 
L 334.558615 76.085483 
L 334.764686 76.605568 
L 335.176826 76.303775 
L 335.382897 76.701203 
L 335.795038 76.864422 
L 336.001108 76.61491 
L 336.413249 77.197175 
L 336.619319 77.489657 
L 336.825389 77.390088 
L 337.03146 76.847753 
L 337.23753 77.279422 
L 337.443601 77.123065 
L 337.649671 77.115393 
L 337.855741 77.539621 
L 338.061812 74.601268 
L 338.680023 61.034912 
L 338.886093 58.21219 
L 339.298234 57.584551 
L 339.504305 57.841675 
L 339.710375 57.666922 
L 339.916445 58.1799 
L 340.122516 57.563425 
L 340.328586 57.738094 
L 340.534657 58.326136 
L 340.740727 58.109823 
L 340.946797 58.291572 
L 341.358938 58.072018 
L 341.565009 58.429082 
L 341.771079 57.359767 
L 342.18322 57.759314 
L 342.38929 58.605009 
L 342.595361 58.482827 
L 343.007501 57.615086 
L 343.213572 57.714965 
L 343.419642 57.586651 
L 343.625713 57.6997 
L 344.037853 57.265846 
L 344.449994 58.638305 
L 344.656065 57.999792 
L 344.862135 57.84147 
L 345.068205 58.397785 
L 345.274276 57.250086 
L 345.480346 58.645762 
L 345.686417 58.076218 
L 345.892487 56.981971 
L 346.098557 57.592284 
L 346.304628 56.948575 
L 346.716769 56.856102 
L 346.922839 57.772685 
L 347.128909 58.155106 
L 347.33498 57.924277 
L 347.54105 57.951249 
L 347.953191 56.947543 
L 348.159261 57.411839 
L 348.365332 57.019529 
L 348.571402 57.170198 
L 348.777473 56.915203 
L 348.983543 57.945471 
L 349.189613 57.974035 
L 349.395684 57.59394 
L 349.601754 57.667125 
L 349.807825 57.352908 
L 350.013895 57.287395 
L 350.219965 56.719222 
L 350.426036 57.376233 
L 350.632106 57.094802 
L 350.838177 57.938061 
L 351.250317 51.575906 
L 351.456388 50.764538 
L 351.662458 48.754255 
L 351.868529 49.773908 
L 352.074599 48.237443 
L 352.48674 53.475805 
L 352.69281 52.061321 
L 353.104951 53.031943 
L 353.517092 49.421042 
L 353.723162 50.978217 
L 353.929233 50.635188 
L 354.341373 49.012949 
L 354.547444 48.841221 
L 354.753514 49.245488 
L 354.959585 48.62279 
L 355.165655 48.808547 
L 355.371725 48.766489 
L 355.577796 49.175265 
L 355.989937 48.821834 
L 356.196007 49.523482 
L 356.402077 49.49401 
L 356.814218 48.561313 
L 357.020289 49.551736 
L 357.226359 48.648074 
L 357.432429 48.416448 
L 357.6385 48.96586 
L 357.84457 49.150578 
L 358.256711 49.067643 
L 358.462781 49.327863 
L 358.668852 49.131005 
L 358.874922 49.192855 
L 359.287063 48.830008 
L 359.493133 49.565942 
L 359.699204 49.045981 
L 359.905274 50.076493 
L 360.935626 48.619187 
L 361.141696 49.008278 
L 361.347767 48.996409 
L 361.553837 48.699078 
L 361.759908 48.111524 
L 362.172048 49.874038 
L 362.378119 48.794861 
L 362.584189 48.837123 
L 362.79026 50.519628 
L 362.99633 50.269337 
L 363.2024 49.146541 
L 363.408471 49.249187 
L 363.614541 49.516611 
L 363.820612 50.023157 
L 364.026682 49.713246 
L 364.438823 51.833682 
L 364.644893 54.376294 
L 364.850964 54.237388 
L 365.057034 53.575504 
L 365.263104 54.035635 
L 365.469175 52.494572 
L 365.881316 54.700591 
L 366.087386 53.455058 
L 366.293456 54.208143 
L 366.705597 53.285335 
L 366.911668 53.65594 
L 367.117738 53.697838 
L 367.323808 55.27343 
L 367.529879 54.043712 
L 367.735949 54.645051 
L 367.94202 53.127969 
L 368.14809 53.917423 
L 368.35416 55.210128 
L 368.560231 55.118097 
L 369.178442 51.706976 
L 369.384512 52.89388 
L 369.796653 52.570838 
L 370.002724 52.914428 
L 370.414864 51.590467 
L 370.827005 54.455521 
L 371.239146 52.412121 
L 371.445216 51.864735 
L 371.651287 52.995213 
L 371.857357 52.671944 
L 372.063428 53.022858 
L 372.269498 52.615935 
L 372.475568 53.695123 
L 372.681639 53.126621 
L 372.887709 53.607286 
L 373.09378 56.388881 
L 373.29985 52.833219 
L 373.50592 52.448408 
L 373.711991 51.731447 
L 373.918061 51.869125 
L 374.124132 52.447794 
L 374.742343 51.609369 
L 374.948413 53.449663 
L 375.154484 54.017649 
L 375.360554 53.4541 
L 375.772695 53.587019 
L 376.184836 52.091569 
L 376.390906 53.527628 
L 376.596976 53.568171 
L 376.803047 55.853014 
L 377.009117 61.832537 
L 377.627328 68.28973 
L 378.039469 66.613709 
L 378.24554 66.56706 
L 378.45161 66.791187 
L 378.863751 69.523115 
L 379.069821 68.638757 
L 379.275892 68.422322 
L 379.481962 67.277365 
L 379.688032 67.413276 
L 379.894103 68.065222 
L 380.100173 67.357398 
L 380.306244 67.327543 
L 380.512314 68.400769 
L 380.718384 68.405121 
L 380.924455 67.731337 
L 381.130525 67.875266 
L 381.336595 67.33039 
L 381.954807 69.749357 
L 382.779088 65.485275 
L 382.985159 65.595356 
L 383.191229 65.847701 
L 383.397299 65.668792 
L 383.60337 65.956685 
L 384.015511 67.263322 
L 384.221581 66.827227 
L 384.427651 67.120232 
L 384.633722 66.217194 
L 385.251933 66.744267 
L 385.870144 66.297327 
L 386.076215 66.316738 
L 386.282285 65.89278 
L 386.694426 66.858061 
L 386.900496 65.793171 
L 387.106567 67.665444 
L 387.312637 66.894583 
L 387.518707 66.691245 
L 387.724778 66.869026 
L 388.136919 67.422564 
L 388.342989 66.742811 
L 388.549059 67.663899 
L 388.75513 67.563406 
L 389.167271 66.501415 
L 389.373341 66.43426 
L 390.197623 85.967527 
L 390.403693 87.684293 
L 390.609763 87.361956 
L 390.815834 87.993589 
L 391.021904 88.098867 
L 391.227975 88.552319 
L 391.434045 86.84541 
L 391.640115 87.263456 
L 391.846186 87.05191 
L 392.258327 88.731598 
L 392.464397 87.116508 
L 392.670467 86.968145 
L 392.876538 88.693942 
L 393.082608 87.227469 
L 393.494749 88.152844 
L 393.700819 86.595034 
L 393.90689 86.454417 
L 394.525101 87.388597 
L 394.731171 88.293507 
L 395.143312 87.700964 
L 395.349383 87.980423 
L 395.555453 88.656772 
L 395.761523 88.060613 
L 395.967594 88.956357 
L 396.173664 87.824654 
L 396.379735 89.793076 
L 396.585805 90.589861 
L 396.997946 88.017112 
L 397.204016 87.868882 
L 397.410087 88.159936 
L 397.616157 88.004009 
L 397.822227 88.919049 
L 398.028298 89.063588 
L 398.234368 90.082146 
L 398.440439 88.577205 
L 398.646509 88.882559 
L 399.05865 90.927735 
L 399.26472 89.507677 
L 399.470791 90.172431 
L 399.676861 89.451712 
L 399.882931 90.219645 
L 400.089002 89.41411 
L 400.295072 89.314248 
L 400.501143 89.053524 
L 400.707213 89.036452 
L 400.913283 87.845338 
L 401.119354 88.807796 
L 401.325424 87.942163 
L 401.531495 88.450577 
L 401.943635 90.355654 
L 402.149706 89.179581 
L 402.973987 109.904873 
L 403.180058 112.488451 
L 403.386128 111.990523 
L 403.592198 111.065673 
L 403.798269 112.095604 
L 404.004339 112.177008 
L 404.21041 111.885253 
L 404.62255 111.867716 
L 404.828621 112.626958 
L 405.034691 112.259713 
L 405.240762 112.714099 
L 405.652902 112.019247 
L 405.858973 111.881337 
L 406.065043 112.276291 
L 406.271114 110.509927 
L 406.477184 111.117645 
L 406.889325 111.138559 
L 407.095395 111.486675 
L 407.507536 111.253232 
L 407.713606 110.730386 
L 407.919677 110.518356 
L 408.331818 110.922727 
L 408.537888 110.495652 
L 408.743958 110.940468 
L 408.950029 110.236817 
L 409.156099 110.109121 
L 409.36217 109.681083 
L 409.77431 111.273115 
L 409.980381 109.815099 
L 410.186451 110.512158 
L 410.392522 110.201283 
L 410.598592 110.656559 
L 411.010733 110.333524 
L 411.216803 110.94178 
L 411.422874 110.174319 
L 411.628944 110.197768 
L 411.835014 110.69802 
L 412.247155 109.685133 
L 412.659296 110.270894 
L 413.071437 110.052496 
L 413.277507 110.60111 
L 413.689648 109.30243 
L 413.895718 109.360026 
L 414.101789 109.132361 
L 414.307859 109.279188 
L 414.51393 109.783153 
L 414.72 109.305675 
L 414.72 109.305675 
" style="fill:none;stroke:#0000ff;stroke-linecap:square;stroke-width:1.5;"/>
   </g>
   <g id="patch_3">
    <path d="M 57.6 162.432 
L 57.6 41.472 
" style="fill:none;stroke:#000000;stroke-linecap:square;stroke-linejoin:miter;stroke-width:0.8;"/>
   </g>
   <g id="patch_4">
    <path d="M 414.72 162.432 
L 414.72 41.472 
" style="fill:none;stroke:#000000;stroke-linecap:square;stroke-linejoin:miter;stroke-width:0.8;"/>
   </g>
   <g id="patch_5">
    <path d="M 57.6 162.432 
L 414.72 162.432 
" style="fill:none;stroke:#000000;stroke-linecap:square;stroke-linejoin:miter;stroke-width:0.8;"/>
   </g>
   <g id="patch_6">
    <path d="M 57.6 41.472 
L 414.72 41.472 
" style="fill:none;stroke:#000000;stroke-linecap:square;stroke-linejoin:miter;stroke-width:0.8;"/>
   </g>
   <g id="text_13">
    <!-- Power vs. Time Sun Scan -->
    <defs>
     <path d="M 2.984375 54.6875 
L 12.5 54.6875 
L 29.59375 8.796875 
L 46.6875 54.6875 
L 56.203125 54.6875 
L 35.6875 0 
L 23.484375 0 
z
" id="DejaVuSans-76"/>
     <path d="M -0.296875 72.90625 
L 61.375 72.90625 
L 61.375 64.59375 
L 35.5 64.59375 
L 35.5 0 
L 25.59375 0 
L 25.59375 64.59375 
L -0.296875 64.59375 
z
" id="DejaVuSans-54"/>
     <path d="M 52 44.1875 
Q 55.375 50.25 60.0625 53.125 
Q 64.75 56 71.09375 56 
Q 79.640625 56 84.28125 50.015625 
Q 88.921875 44.046875 88.921875 33.015625 
L 88.921875 0 
L 79.890625 0 
L 79.890625 32.71875 
Q 79.890625 40.578125 77.09375 44.375 
Q 74.3125 48.1875 68.609375 48.1875 
Q 61.625 48.1875 57.5625 43.546875 
Q 53.515625 38.921875 53.515625 30.90625 
L 53.515625 0 
L 44.484375 0 
L 44.484375 32.71875 
Q 44.484375 40.625 41.703125 44.40625 
Q 38.921875 48.1875 33.109375 48.1875 
Q 26.21875 48.1875 22.15625 43.53125 
Q 18.109375 38.875 18.109375 30.90625 
L 18.109375 0 
L 9.078125 0 
L 9.078125 54.6875 
L 18.109375 54.6875 
L 18.109375 46.1875 
Q 21.1875 51.21875 25.484375 53.609375 
Q 29.78125 56 35.6875 56 
Q 41.65625 56 45.828125 52.96875 
Q 50 49.953125 52 44.1875 
z
" id="DejaVuSans-6d"/>
     <path d="M 53.515625 70.515625 
L 53.515625 60.890625 
Q 47.90625 63.578125 42.921875 64.890625 
Q 37.9375 66.21875 33.296875 66.21875 
Q 25.25 66.21875 20.875 63.09375 
Q 16.5 59.96875 16.5 54.203125 
Q 16.5 49.359375 19.40625 46.890625 
Q 22.3125 44.4375 30.421875 42.921875 
L 36.375 41.703125 
Q 47.40625 39.59375 52.65625 34.296875 
Q 57.90625 29 57.90625 20.125 
Q 57.90625 9.515625 50.796875 4.046875 
Q 43.703125 -1.421875 29.984375 -1.421875 
Q 24.8125 -1.421875 18.96875 -0.25 
Q 13.140625 0.921875 6.890625 3.21875 
L 6.890625 13.375 
Q 12.890625 10.015625 18.65625 8.296875 
Q 24.421875 6.59375 29.984375 6.59375 
Q 38.421875 6.59375 43.015625 9.90625 
Q 47.609375 13.234375 47.609375 19.390625 
Q 47.609375 24.75 44.3125 27.78125 
Q 41.015625 30.8125 33.5 32.328125 
L 27.484375 33.5 
Q 16.453125 35.6875 11.515625 40.375 
Q 6.59375 45.0625 6.59375 53.421875 
Q 6.59375 63.09375 13.40625 68.65625 
Q 20.21875 74.21875 32.171875 74.21875 
Q 37.3125 74.21875 42.625 73.28125 
Q 47.953125 72.359375 53.515625 70.515625 
z
" id="DejaVuSans-53"/>
     <path d="M 48.78125 52.59375 
L 48.78125 44.1875 
Q 44.96875 46.296875 41.140625 47.34375 
Q 37.3125 48.390625 33.40625 48.390625 
Q 24.65625 48.390625 19.8125 42.84375 
Q 14.984375 37.3125 14.984375 27.296875 
Q 14.984375 17.28125 19.8125 11.734375 
Q 24.65625 6.203125 33.40625 6.203125 
Q 37.3125 6.203125 41.140625 7.25 
Q 44.96875 8.296875 48.78125 10.40625 
L 48.78125 2.09375 
Q 45.015625 0.34375 40.984375 -0.53125 
Q 36.96875 -1.421875 32.421875 -1.421875 
Q 20.0625 -1.421875 12.78125 6.34375 
Q 5.515625 14.109375 5.515625 27.296875 
Q 5.515625 40.671875 12.859375 48.328125 
Q 20.21875 56 33.015625 56 
Q 37.15625 56 41.109375 55.140625 
Q 45.0625 54.296875 48.78125 52.59375 
z
" id="DejaVuSans-63"/>
    </defs>
    <g transform="translate(160.730625 35.472)scale(0.12 -0.12)">
     <use xlink:href="#DejaVuSans-50"/>
     <use x="60.255859" xlink:href="#DejaVuSans-6f"/>
     <use x="121.4375" xlink:href="#DejaVuSans-77"/>
     <use x="203.224609" xlink:href="#DejaVuSans-65"/>
     <use x="264.748047" xlink:href="#DejaVuSans-72"/>
     <use x="305.861328" xlink:href="#DejaVuSans-20"/>
     <use x="337.648438" xlink:href="#DejaVuSans-76"/>
     <use x="396.828125" xlink:href="#DejaVuSans-73"/>
     <use x="448.927734" xlink:href="#DejaVuSans-2e"/>
     <use x="480.714844" xlink:href="#DejaVuSans-20"/>
     <use x="512.501953" xlink:href="#DejaVuSans-54"/>
     <use x="573.539062" xlink:href="#DejaVuSans-69"/>
     <use x="601.322266" xlink:href="#DejaVuSans-6d"/>
     <use x="698.734375" xlink:href="#DejaVuSans-65"/>
     <use x="760.257812" xlink:href="#DejaVuSans-20"/>
     <use x="792.044922" xlink:href="#DejaVuSans-53"/>
     <use x="855.521484" xlink:href="#DejaVuSans-75"/>
     <use x="918.900391" xlink:href="#DejaVuSans-6e"/>
     <use x="982.279297" xlink:href="#DejaVuSans-20"/>
     <use x="1014.066406" xlink:href="#DejaVuSans-53"/>
     <use x="1077.542969" xlink:href="#DejaVuSans-63"/>
     <use x="1132.523438" xlink:href="#DejaVuSans-61"/>
     <use x="1193.802734" xlink:href="#DejaVuSans-6e"/>
    </g>
   </g>
  </g>
  <g id="axes_2">
   <g id="patch_7">
    <path d="M 57.6 307.584 
L 414.72 307.584 
L 414.72 186.624 
L 57.6 186.624 
z
" style="fill:#ffffff;"/>
   </g>
   <g id="matplotlib.axis_3">
    <g id="xtick_6">
     <g id="line2d_22">
      <path clip-path="url(#p3928a3abd1)" d="M 57.6 307.584 
L 57.6 186.624 
" style="fill:none;stroke:#b0b0b0;stroke-linecap:square;stroke-width:0.8;"/>
     </g>
     <g id="line2d_23">
      <g>
       <use style="stroke:#000000;stroke-width:0.8;" x="57.6" xlink:href="#ma225b89673" y="307.584"/>
      </g>
     </g>
     <g id="text_14">
      <!-- 0 -->
      <g transform="translate(54.41875 322.182437)scale(0.1 -0.1)">
       <use xlink:href="#DejaVuSans-30"/>
      </g>
     </g>
    </g>
    <g id="xtick_7">
     <g id="line2d_24">
      <path clip-path="url(#p3928a3abd1)" d="M 136.164284 307.584 
L 136.164284 186.624 
" style="fill:none;stroke:#b0b0b0;stroke-linecap:square;stroke-width:0.8;"/>
     </g>
     <g id="line2d_25">
      <g>
       <use style="stroke:#000000;stroke-width:0.8;" x="136.164284" xlink:href="#ma225b89673" y="307.584"/>
      </g>
     </g>
     <g id="text_15">
      <!-- 100 -->
      <g transform="translate(126.620534 322.182437)scale(0.1 -0.1)">
       <use xlink:href="#DejaVuSans-31"/>
       <use x="63.623047" xlink:href="#DejaVuSans-30"/>
       <use x="127.246094" xlink:href="#DejaVuSans-30"/>
      </g>
     </g>
    </g>
    <g id="xtick_8">
     <g id="line2d_26">
      <path clip-path="url(#p3928a3abd1)" d="M 214.728568 307.584 
L 214.728568 186.624 
" style="fill:none;stroke:#b0b0b0;stroke-linecap:square;stroke-width:0.8;"/>
     </g>
     <g id="line2d_27">
      <g>
       <use style="stroke:#000000;stroke-width:0.8;" x="214.728568" xlink:href="#ma225b89673" y="307.584"/>
      </g>
     </g>
     <g id="text_16">
      <!-- 200 -->
      <g transform="translate(205.184818 322.182437)scale(0.1 -0.1)">
       <use xlink:href="#DejaVuSans-32"/>
       <use x="63.623047" xlink:href="#DejaVuSans-30"/>
       <use x="127.246094" xlink:href="#DejaVuSans-30"/>
      </g>
     </g>
    </g>
    <g id="xtick_9">
     <g id="line2d_28">
      <path clip-path="url(#p3928a3abd1)" d="M 293.292853 307.584 
L 293.292853 186.624 
" style="fill:none;stroke:#b0b0b0;stroke-linecap:square;stroke-width:0.8;"/>
     </g>
     <g id="line2d_29">
      <g>
       <use style="stroke:#000000;stroke-width:0.8;" x="293.292853" xlink:href="#ma225b89673" y="307.584"/>
      </g>
     </g>
     <g id="text_17">
      <!-- 300 -->
      <g transform="translate(283.749103 322.182437)scale(0.1 -0.1)">
       <use xlink:href="#DejaVuSans-33"/>
       <use x="63.623047" xlink:href="#DejaVuSans-30"/>
       <use x="127.246094" xlink:href="#DejaVuSans-30"/>
      </g>
     </g>
    </g>
    <g id="xtick_10">
     <g id="line2d_30">
      <path clip-path="url(#p3928a3abd1)" d="M 371.857137 307.584 
L 371.857137 186.624 
" style="fill:none;stroke:#b0b0b0;stroke-linecap:square;stroke-width:0.8;"/>
     </g>
     <g id="line2d_31">
      <g>
       <use style="stroke:#000000;stroke-width:0.8;" x="371.857137" xlink:href="#ma225b89673" y="307.584"/>
      </g>
     </g>
     <g id="text_18">
      <!-- 400 -->
      <g transform="translate(362.313387 322.182437)scale(0.1 -0.1)">
       <use xlink:href="#DejaVuSans-34"/>
       <use x="63.623047" xlink:href="#DejaVuSans-30"/>
       <use x="127.246094" xlink:href="#DejaVuSans-30"/>
      </g>
     </g>
    </g>
    <g id="text_19">
     <!-- t (s) -->
     <g transform="translate(226.104531 335.860562)scale(0.1 -0.1)">
      <use xlink:href="#DejaVuSans-74"/>
      <use x="39.208984" xlink:href="#DejaVuSans-20"/>
      <use x="70.996094" xlink:href="#DejaVuSans-28"/>
      <use x="110.009766" xlink:href="#DejaVuSans-73"/>
      <use x="162.109375" xlink:href="#DejaVuSans-29"/>
     </g>
    </g>
   </g>
   <g id="matplotlib.axis_4">
    <g id="ytick_6">
     <g id="line2d_32">
      <path clip-path="url(#p3928a3abd1)" d="M 57.6 292.089124 
L 414.72 292.089124 
" style="fill:none;stroke:#b0b0b0;stroke-linecap:square;stroke-width:0.8;"/>
     </g>
     <g id="line2d_33">
      <g>
       <use style="stroke:#000000;stroke-width:0.8;" x="57.6" xlink:href="#meed2aba33d" y="292.089124"/>
      </g>
     </g>
     <g id="text_20">
      <!-- 5.0 -->
      <defs>
       <path d="M 10.59375 35.5 
L 73.1875 35.5 
L 73.1875 27.203125 
L 10.59375 27.203125 
z
" id="DejaVuSans-2212"/>
      </defs>
      <g transform="translate(26.317187 295.888343)scale(0.1 -0.1)">
       <use xlink:href="#DejaVuSans-2212"/>
       <use x="83.789062" xlink:href="#DejaVuSans-35"/>
       <use x="147.412109" xlink:href="#DejaVuSans-2e"/>
       <use x="179.199219" xlink:href="#DejaVuSans-30"/>
      </g>
     </g>
    </g>
    <g id="ytick_7">
     <g id="line2d_34">
      <path clip-path="url(#p3928a3abd1)" d="M 57.6 267.097388 
L 414.72 267.097388 
" style="fill:none;stroke:#b0b0b0;stroke-linecap:square;stroke-width:0.8;"/>
     </g>
     <g id="line2d_35">
      <g>
       <use style="stroke:#000000;stroke-width:0.8;" x="57.6" xlink:href="#meed2aba33d" y="267.097388"/>
      </g>
     </g>
     <g id="text_21">
      <!-- 2.5 -->
      <g transform="translate(26.317187 270.896607)scale(0.1 -0.1)">
       <use xlink:href="#DejaVuSans-2212"/>
       <use x="83.789062" xlink:href="#DejaVuSans-32"/>
       <use x="147.412109" xlink:href="#DejaVuSans-2e"/>
       <use x="179.199219" xlink:href="#DejaVuSans-35"/>
      </g>
     </g>
    </g>
    <g id="ytick_8">
     <g id="line2d_36">
      <path clip-path="url(#p3928a3abd1)" d="M 57.6 242.105653 
L 414.72 242.105653 
" style="fill:none;stroke:#b0b0b0;stroke-linecap:square;stroke-width:0.8;"/>
     </g>
     <g id="line2d_37">
      <g>
       <use style="stroke:#000000;stroke-width:0.8;" x="57.6" xlink:href="#meed2aba33d" y="242.105653"/>
      </g>
     </g>
     <g id="text_22">
      <!-- 0.0 -->
      <g transform="translate(34.696875 245.904872)scale(0.1 -0.1)">
       <use xlink:href="#DejaVuSans-30"/>
       <use x="63.623047" xlink:href="#DejaVuSans-2e"/>
       <use x="95.410156" xlink:href="#DejaVuSans-30"/>
      </g>
     </g>
    </g>
    <g id="ytick_9">
     <g id="line2d_38">
      <path clip-path="url(#p3928a3abd1)" d="M 57.6 217.113917 
L 414.72 217.113917 
" style="fill:none;stroke:#b0b0b0;stroke-linecap:square;stroke-width:0.8;"/>
     </g>
     <g id="line2d_39">
      <g>
       <use style="stroke:#000000;stroke-width:0.8;" x="57.6" xlink:href="#meed2aba33d" y="217.113917"/>
      </g>
     </g>
     <g id="text_23">
      <!-- 2.5 -->
      <g transform="translate(34.696875 220.913136)scale(0.1 -0.1)">
       <use xlink:href="#DejaVuSans-32"/>
       <use x="63.623047" xlink:href="#DejaVuSans-2e"/>
       <use x="95.410156" xlink:href="#DejaVuSans-35"/>
      </g>
     </g>
    </g>
    <g id="ytick_10">
     <g id="line2d_40">
      <path clip-path="url(#p3928a3abd1)" d="M 57.6 192.122182 
L 414.72 192.122182 
" style="fill:none;stroke:#b0b0b0;stroke-linecap:square;stroke-width:0.8;"/>
     </g>
     <g id="line2d_41">
      <g>
       <use style="stroke:#000000;stroke-width:0.8;" x="57.6" xlink:href="#meed2aba33d" y="192.122182"/>
      </g>
     </g>
     <g id="text_24">
      <!-- 5.0 -->
      <g transform="translate(34.696875 195.921401)scale(0.1 -0.1)">
       <use xlink:href="#DejaVuSans-35"/>
       <use x="63.623047" xlink:href="#DejaVuSans-2e"/>
       <use x="95.410156" xlink:href="#DejaVuSans-30"/>
      </g>
     </g>
    </g>
    <g id="text_25">
     <!-- Offset from Sun (degrees) -->
     <defs>
      <path d="M 39.40625 66.21875 
Q 28.65625 66.21875 22.328125 58.203125 
Q 16.015625 50.203125 16.015625 36.375 
Q 16.015625 22.609375 22.328125 14.59375 
Q 28.65625 6.59375 39.40625 6.59375 
Q 50.140625 6.59375 56.421875 14.59375 
Q 62.703125 22.609375 62.703125 36.375 
Q 62.703125 50.203125 56.421875 58.203125 
Q 50.140625 66.21875 39.40625 66.21875 
z
M 39.40625 74.21875 
Q 54.734375 74.21875 63.90625 63.9375 
Q 73.09375 53.65625 73.09375 36.375 
Q 73.09375 19.140625 63.90625 8.859375 
Q 54.734375 -1.421875 39.40625 -1.421875 
Q 24.03125 -1.421875 14.8125 8.828125 
Q 5.609375 19.09375 5.609375 36.375 
Q 5.609375 53.65625 14.8125 63.9375 
Q 24.03125 74.21875 39.40625 74.21875 
z
" id="DejaVuSans-4f"/>
      <path d="M 37.109375 75.984375 
L 37.109375 68.5 
L 28.515625 68.5 
Q 23.6875 68.5 21.796875 66.546875 
Q 19.921875 64.59375 19.921875 59.515625 
L 19.921875 54.6875 
L 34.71875 54.6875 
L 34.71875 47.703125 
L 19.921875 47.703125 
L 19.921875 0 
L 10.890625 0 
L 10.890625 47.703125 
L 2.296875 47.703125 
L 2.296875 54.6875 
L 10.890625 54.6875 
L 10.890625 58.5 
Q 10.890625 67.625 15.140625 71.796875 
Q 19.390625 75.984375 28.609375 75.984375 
z
" id="DejaVuSans-66"/>
      <path d="M 45.40625 46.390625 
L 45.40625 75.984375 
L 54.390625 75.984375 
L 54.390625 0 
L 45.40625 0 
L 45.40625 8.203125 
Q 42.578125 3.328125 38.25 0.953125 
Q 33.9375 -1.421875 27.875 -1.421875 
Q 17.96875 -1.421875 11.734375 6.484375 
Q 5.515625 14.40625 5.515625 27.296875 
Q 5.515625 40.1875 11.734375 48.09375 
Q 17.96875 56 27.875 56 
Q 33.9375 56 38.25 53.625 
Q 42.578125 51.265625 45.40625 46.390625 
z
M 14.796875 27.296875 
Q 14.796875 17.390625 18.875 11.75 
Q 22.953125 6.109375 30.078125 6.109375 
Q 37.203125 6.109375 41.296875 11.75 
Q 45.40625 17.390625 45.40625 27.296875 
Q 45.40625 37.203125 41.296875 42.84375 
Q 37.203125 48.484375 30.078125 48.484375 
Q 22.953125 48.484375 18.875 42.84375 
Q 14.796875 37.203125 14.796875 27.296875 
z
" id="DejaVuSans-64"/>
      <path d="M 45.40625 27.984375 
Q 45.40625 37.75 41.375 43.109375 
Q 37.359375 48.484375 30.078125 48.484375 
Q 22.859375 48.484375 18.828125 43.109375 
Q 14.796875 37.75 14.796875 27.984375 
Q 14.796875 18.265625 18.828125 12.890625 
Q 22.859375 7.515625 30.078125 7.515625 
Q 37.359375 7.515625 41.375 12.890625 
Q 45.40625 18.265625 45.40625 27.984375 
z
M 54.390625 6.78125 
Q 54.390625 -7.171875 48.1875 -13.984375 
Q 42 -20.796875 29.203125 -20.796875 
Q 24.46875 -20.796875 20.265625 -20.09375 
Q 16.0625 -19.390625 12.109375 -17.921875 
L 12.109375 -9.1875 
Q 16.0625 -11.328125 19.921875 -12.34375 
Q 23.78125 -13.375 27.78125 -13.375 
Q 36.625 -13.375 41.015625 -8.765625 
Q 45.40625 -4.15625 45.40625 5.171875 
L 45.40625 9.625 
Q 42.625 4.78125 38.28125 2.390625 
Q 33.9375 0 27.875 0 
Q 17.828125 0 11.671875 7.65625 
Q 5.515625 15.328125 5.515625 27.984375 
Q 5.515625 40.671875 11.671875 48.328125 
Q 17.828125 56 27.875 56 
Q 33.9375 56 38.28125 53.609375 
Q 42.625 51.21875 45.40625 46.390625 
L 45.40625 54.6875 
L 54.390625 54.6875 
z
" id="DejaVuSans-67"/>
     </defs>
     <g transform="translate(20.2375 312.362594)rotate(-90)scale(0.1 -0.1)">
      <use xlink:href="#DejaVuSans-4f"/>
      <use x="78.710938" xlink:href="#DejaVuSans-66"/>
      <use x="113.916016" xlink:href="#DejaVuSans-66"/>
      <use x="149.121094" xlink:href="#DejaVuSans-73"/>
      <use x="201.220703" xlink:href="#DejaVuSans-65"/>
      <use x="262.744141" xlink:href="#DejaVuSans-74"/>
      <use x="301.953125" xlink:href="#DejaVuSans-20"/>
      <use x="333.740234" xlink:href="#DejaVuSans-66"/>
      <use x="368.945312" xlink:href="#DejaVuSans-72"/>
      <use x="410.027344" xlink:href="#DejaVuSans-6f"/>
      <use x="471.208984" xlink:href="#DejaVuSans-6d"/>
      <use x="568.621094" xlink:href="#DejaVuSans-20"/>
      <use x="600.408203" xlink:href="#DejaVuSans-53"/>
      <use x="663.884766" xlink:href="#DejaVuSans-75"/>
      <use x="727.263672" xlink:href="#DejaVuSans-6e"/>
      <use x="790.642578" xlink:href="#DejaVuSans-20"/>
      <use x="822.429688" xlink:href="#DejaVuSans-28"/>
      <use x="861.443359" xlink:href="#DejaVuSans-64"/>
      <use x="924.919922" xlink:href="#DejaVuSans-65"/>
      <use x="986.443359" xlink:href="#DejaVuSans-67"/>
      <use x="1049.919922" xlink:href="#DejaVuSans-72"/>
      <use x="1091.001953" xlink:href="#DejaVuSans-65"/>
      <use x="1152.525391" xlink:href="#DejaVuSans-65"/>
      <use x="1214.048828" xlink:href="#DejaVuSans-73"/>
      <use x="1266.148438" xlink:href="#DejaVuSans-29"/>
     </g>
    </g>
   </g>
   <g id="line2d_42">
    <path clip-path="url(#p3928a3abd1)" d="M 73.446416 242.105653 
L 85.498177 242.105653 
L 85.498177 242.105653 
L 102.994443 242.105653 
L 102.994443 302.085818 
L 115.926125 302.085818 
L 115.926125 292.089124 
L 128.944226 292.089124 
L 128.944226 282.09243 
L 141.938759 282.09243 
L 141.938759 272.095736 
L 154.917579 272.095736 
L 154.917579 262.099041 
L 167.919968 262.099041 
L 167.919968 252.102347 
L 181.000921 252.102347 
L 181.000921 242.105653 
L 193.932602 242.105653 
L 193.932602 232.108959 
L 206.934991 232.108959 
L 206.934991 222.112264 
L 220.04737 222.112264 
L 220.04737 212.11557 
L 233.034047 212.11557 
L 233.034047 202.118876 
L 245.997153 202.118876 
L 245.997153 192.122182 
L 267.460916 192.122182 
L 267.460916 242.105653 
L 280.164761 242.105653 
L 280.164761 242.105653 
L 293.088585 242.105653 
L 293.088585 242.105653 
L 305.863138 242.105653 
L 305.863138 242.105653 
L 318.629834 242.105653 
L 318.629834 242.105653 
L 331.482951 242.105653 
L 331.482951 242.105653 
L 344.281073 242.105653 
L 344.281073 242.105653 
L 357.220611 242.105653 
L 357.220611 242.105653 
L 370.00302 242.105653 
L 370.00302 242.105653 
L 382.785429 242.105653 
L 382.785429 242.105653 
L 395.646402 242.105653 
L 395.646402 242.105653 
L 408.483806 242.105653 
L 408.483806 242.105653 
" style="fill:none;stroke:#ff0000;stroke-linecap:square;stroke-width:1.5;"/>
   </g>
   <g id="line2d_43">
    <path clip-path="url(#p3928a3abd1)" d="M 73.446416 242.105653 
L 85.498177 242.105653 
L 85.498177 242.105653 
L 102.994443 242.105653 
L 102.994443 242.105653 
L 115.926125 242.105653 
L 115.926125 242.105653 
L 128.944226 242.105653 
L 128.944226 242.105653 
L 141.938759 242.105653 
L 141.938759 242.105653 
L 154.917579 242.105653 
L 154.917579 242.105653 
L 167.919968 242.105653 
L 167.919968 242.105653 
L 181.000921 242.105653 
L 181.000921 242.105653 
L 193.932602 242.105653 
L 193.932602 242.105653 
L 206.934991 242.105653 
L 206.934991 242.105653 
L 220.04737 242.105653 
L 220.04737 242.105653 
L 233.034047 242.105653 
L 233.034047 242.105653 
L 245.997153 242.105653 
L 245.997153 242.105653 
L 267.460916 242.105653 
L 267.460916 302.085818 
L 280.164761 302.085818 
L 280.164761 292.089124 
L 293.088585 292.089124 
L 293.088585 282.09243 
L 305.863138 282.09243 
L 305.863138 272.095736 
L 318.629834 272.095736 
L 318.629834 262.099041 
L 331.482951 262.099041 
L 331.482951 252.102347 
L 344.281073 252.102347 
L 344.281073 242.105653 
L 357.220611 242.105653 
L 357.220611 232.108959 
L 370.00302 232.108959 
L 370.00302 222.112264 
L 382.785429 222.112264 
L 382.785429 212.11557 
L 395.646402 212.11557 
L 395.646402 202.118876 
L 408.483806 202.118876 
L 408.483806 192.122182 
" style="fill:none;stroke:#0000ff;stroke-linecap:square;stroke-width:1.5;"/>
   </g>
   <g id="patch_8">
    <path d="M 57.6 307.584 
L 57.6 186.624 
" style="fill:none;stroke:#000000;stroke-linecap:square;stroke-linejoin:miter;stroke-width:0.8;"/>
   </g>
   <g id="patch_9">
    <path d="M 414.72 307.584 
L 414.72 186.624 
" style="fill:none;stroke:#000000;stroke-linecap:square;stroke-linejoin:miter;stroke-width:0.8;"/>
   </g>
   <g id="patch_10">
    <path d="M 57.6 307.584 
L 414.72 307.584 
" style="fill:none;stroke:#000000;stroke-linecap:square;stroke-linejoin:miter;stroke-width:0.8;"/>
   </g>
   <g id="patch_11">
    <path d="M 57.6 186.624 
L 414.72 186.624 
" style="fill:none;stroke:#000000;stroke-linecap:square;stroke-linejoin:miter;stroke-width:0.8;"/>
   </g>
   <g id="legend_1">
    <g id="patch_12">
     <path d="M 64.6 223.98025 
L 137.803125 223.98025 
Q 139.803125 223.98025 139.803125 221.98025 
L 139.803125 193.624 
Q 139.803125 191.624 137.803125 191.624 
L 64.6 191.624 
Q 62.6 191.624 62.6 193.624 
L 62.6 221.98025 
Q 62.6 223.98025 64.6 223.98025 
z
" style="fill:#ffffff;opacity:0.8;stroke:#cccccc;stroke-linejoin:miter;"/>
    </g>
    <g id="line2d_44">
     <path d="M 66.6 199.722437 
L 86.6 199.722437 
" style="fill:none;stroke:#ff0000;stroke-linecap:square;stroke-width:1.5;"/>
    </g>
    <g id="line2d_45"/>
    <g id="text_26">
     <!-- Altitude -->
     <defs>
      <path d="M 34.1875 63.1875 
L 20.796875 26.90625 
L 47.609375 26.90625 
z
M 28.609375 72.90625 
L 39.796875 72.90625 
L 67.578125 0 
L 57.328125 0 
L 50.6875 18.703125 
L 17.828125 18.703125 
L 11.1875 0 
L 0.78125 0 
z
" id="DejaVuSans-41"/>
      <path d="M 9.421875 75.984375 
L 18.40625 75.984375 
L 18.40625 0 
L 9.421875 0 
z
" id="DejaVuSans-6c"/>
     </defs>
     <g transform="translate(94.6 203.222437)scale(0.1 -0.1)">
      <use xlink:href="#DejaVuSans-41"/>
      <use x="68.408203" xlink:href="#DejaVuSans-6c"/>
      <use x="96.191406" xlink:href="#DejaVuSans-74"/>
      <use x="135.400391" xlink:href="#DejaVuSans-69"/>
      <use x="163.183594" xlink:href="#DejaVuSans-74"/>
      <use x="202.392578" xlink:href="#DejaVuSans-75"/>
      <use x="265.771484" xlink:href="#DejaVuSans-64"/>
      <use x="329.248047" xlink:href="#DejaVuSans-65"/>
     </g>
    </g>
    <g id="line2d_46">
     <path d="M 66.6 214.400562 
L 86.6 214.400562 
" style="fill:none;stroke:#0000ff;stroke-linecap:square;stroke-width:1.5;"/>
    </g>
    <g id="line2d_47"/>
    <g id="text_27">
     <!-- Azimuth -->
     <defs>
      <path d="M 5.515625 54.6875 
L 48.1875 54.6875 
L 48.1875 46.484375 
L 14.40625 7.171875 
L 48.1875 7.171875 
L 48.1875 0 
L 4.296875 0 
L 4.296875 8.203125 
L 38.09375 47.515625 
L 5.515625 47.515625 
z
" id="DejaVuSans-7a"/>
      <path d="M 54.890625 33.015625 
L 54.890625 0 
L 45.90625 0 
L 45.90625 32.71875 
Q 45.90625 40.484375 42.875 44.328125 
Q 39.84375 48.1875 33.796875 48.1875 
Q 26.515625 48.1875 22.3125 43.546875 
Q 18.109375 38.921875 18.109375 30.90625 
L 18.109375 0 
L 9.078125 0 
L 9.078125 75.984375 
L 18.109375 75.984375 
L 18.109375 46.1875 
Q 21.34375 51.125 25.703125 53.5625 
Q 30.078125 56 35.796875 56 
Q 45.21875 56 50.046875 50.171875 
Q 54.890625 44.34375 54.890625 33.015625 
z
" id="DejaVuSans-68"/>
     </defs>
     <g transform="translate(94.6 217.900562)scale(0.1 -0.1)">
      <use xlink:href="#DejaVuSans-41"/>
      <use x="68.408203" xlink:href="#DejaVuSans-7a"/>
      <use x="120.898438" xlink:href="#DejaVuSans-69"/>
      <use x="148.681641" xlink:href="#DejaVuSans-6d"/>
      <use x="246.09375" xlink:href="#DejaVuSans-75"/>
      <use x="309.472656" xlink:href="#DejaVuSans-74"/>
      <use x="348.681641" xlink:href="#DejaVuSans-68"/>
     </g>
    </g>
   </g>
  </g>
 </g>
 <defs>
  <clipPath id="pce1833b0e5">
   <rect height="120.96" width="357.12" x="57.6" y="41.472"/>
  </clipPath>
  <clipPath id="p3928a3abd1">
   <rect height="120.96" width="357.12" x="57.6" y="186.624"/>
  </clipPath>
 </defs>
</svg>
